<?xml version="1.0" encoding="UTF-8" standalone="no"?>
<svg width="117px" height="120px" viewBox="0 0 117 120" version="1.1" xmlns="http://www.w3.org/2000/svg" xmlns:xlink="http://www.w3.org/1999/xlink">
    <!-- Generator: sketchtool 40.3 (33839) - http://www.bohemiancoding.com/sketch -->
    <title>share-bg-small</title>
    <desc>Created with sketchtool.</desc>
    <defs>
        <rect id="path-1" x="0" y="0" width="118" height="120"></rect>
        <polygon id="path-3" points="86.1263315 0.0684679196 0.00506306388 0.0684679196 0.00506306388 132.30751 86.1263315 132.30751 86.1263315 0.0684679196"></polygon>
    </defs>
    <g id="Plugin" stroke="none" stroke-width="1" fill="none" fill-rule="evenodd">
        <g id="Artwork" transform="translate(-444.000000, 0.000000)">
            <g id="share-bg-small" transform="translate(443.000000, 0.000000)">
                <mask id="mask-2" fill="white">
                    <use xlink:href="#path-1"></use>
                </mask>
                <g id="Mask"></g>
                <g id="smush" mask="url(#mask-2)">
                    <g transform="translate(-40.000000, 0.000000)">
                        <path d="M114.982169,83.3418295 C119.721153,83.8909286 124.509966,84.4515521 128.996407,86.0741062 C133.482508,87.6963214 137.705898,90.503845 140.112339,94.6227666 C145.541492,103.914745 140.225898,116.059666 143.333356,126.362393 C144.716068,130.947371 147.699458,134.894783 149.317085,139.402142 C150.923186,143.877639 151.120814,148.717507 151.266915,153.469927 C151.567932,163.27033 151.718102,173.088358 151.079458,182.872492 C150.856746,186.282669 150.538441,189.688439 150.267593,193.096244 C149.979119,196.726399 130.087932,246.490375 118.296746,238.654865 C127.888271,207.843623 127.755051,174.891912 125.718441,142.686907 C124.972678,130.896867 123.978441,119.083778 121.52861,107.526936 C119.777424,99.2643493 117.28522,91.1590356 114.091661,83.3397958" id="Fill-4" fill="#161C23"></path>
                        <path d="M155.130644,113.85788 C150.603864,109.33154 141.462169,103.869359 134.157424,97.261866 C120.837085,85.2135458 114.404203,79.0761764 114.404203,79.0761764 L84.7252203,79.0761764 C84.7252203,79.0761764 61.4242034,88.9582665 60.0886102,92.9646566 C58.7530169,96.9713857 64.6157288,120.07558 64.6157288,120.07558 C64.6157288,129.869543 69.0303051,152.14975 80.6058983,171.737337 C82.6499661,175.825414 82.9594576,180.392089 82.5062373,184.589647 C83.8574237,184.430001 85.2025085,184.296794 86.5279322,184.177484 C90.4255593,183.82667 94.3458983,183.695158 98.2597966,183.778539 C97.9086102,182.495613 97.752339,181.148626 97.3533559,179.872478 C96.6184407,177.522198 95.7560678,175.194628 95.5774237,172.716903 C95.4492881,170.93911 94.6970847,166.768329 97.6177627,166.898486 C98.731322,166.948311 99.8743729,167.501478 100.994373,167.655361 C102.001831,167.793992 102.970983,167.978042 103.947593,168.275301 C106.324203,168.998281 108.593017,170.04157 110.844542,171.079435 C115.550305,173.249055 120.160475,175.550865 124.773356,177.910974 C129.092678,180.121268 133.724203,181.759753 137.93878,184.157147 C139.339797,184.954018 140.673695,185.857998 141.913356,186.87112 C144.931661,158.697249 141.116746,144.159001 141.116746,144.159001 C141.116746,144.159001 164.938441,129.850223 155.130644,113.85788" id="Fill-104" fill="#345468"></path>
                        <path d="M113.017898,99.4122332 C113.017898,99.4122332 67.4717966,95.2299279 71.2073898,77.4038644 C74.9426441,59.5781399 119.130102,27.090112 119.130102,27.090112 C119.130102,27.090112 129.48739,41.5205734 131.354847,52.0463297 C133.222644,62.5720861 120.997898,89.9050219 113.017898,99.4122332" id="Fill-226" fill="#161C23"></path>
                        <path d="M110.308576,114.822057 C110.688237,116.524942 111.186881,118.27562 111.830271,120.052057 C113.549254,124.210636 117.653322,134.413712 118.318746,136.631801 C124.64078,132.25121 134.733661,125.874203 139.447559,117.44587 C142.179763,112.560243 142.731288,107.881715 142.453661,103.957351 C139.65061,101.867045 136.785186,99.6387874 134.15739,97.2620693 C127.581458,91.3138341 122.686881,86.8091873 119.413322,83.7694828 C118.71739,84.7514213 117.966881,85.7211575 117.207898,86.6458134 C110.748576,94.5155567 108.092983,104.885396 110.308576,114.822057" id="Fill-228" fill="#345468"></path>
                        <path d="M129.553559,85.7442739 C126.971864,83.3004437 124.009492,81.1172661 121.114915,79.0578053 C118.490847,77.1905292 115.810169,74.7531391 112.512542,74.318944 C108.492542,73.789504 104.423729,73.5356303 100.381695,73.2366763 C96.1871186,72.926537 92.0111864,72.5347107 87.8057627,72.3815052 C84.4864407,72.260839 81.0871186,72.0476394 77.9501695,73.3441235 C72.3959322,75.6394936 69.0281356,82.4649317 70.3447458,88.3016524 C71.0216949,91.3016997 73.0518644,93.8922953 76.0830508,94.7437379 C77.9776271,95.2755506 79.8969492,94.8684715 81.8152542,94.9976115 C82.6989831,95.0572668 83.2813559,95.1620023 83.3694915,94.1539647 C83.3840678,93.9878792 83.2932203,93.8865331 83.1738983,93.8478928 C84.3064407,91.5240509 86.1637288,89.8242162 88.2505085,88.3399537 C90.1644068,86.9787301 92.7766102,86.5330108 95.0647458,86.0879693 C97.3840678,85.6364878 99.7233898,85.3446517 102.038305,84.8640205 C104.607119,84.330852 107.255254,84.0769784 109.881695,84.2047625 C111.36678,84.27662 112.492542,84.8297865 113.72339,85.5849673 C114.401695,86.0008591 115.028475,86.5716511 115.751525,86.9190749 C117.346102,87.6854411 119.119322,87.1353251 120.785763,87.1976919 C123.104068,87.285141 125.40678,89.3998507 127.432203,90.4207684 C128.693898,91.0569777 130.307797,92.1043335 131.739322,92.2514378 C131.858983,92.2636401 131.971186,92.1768688 132.032203,92.0836576 C133.376271,90.0265694 130.949492,87.0658403 129.553559,85.7442739" id="Fill-230" fill="#161C23"></path>
                        <path d="M80.7815593,166.920178 C80.0056271,164.569898 79.268339,162.304017 78.2568136,160.044915 C77.0269831,157.298741 75.5961356,154.615951 74.5235932,151.802665 C73.5666441,149.293079 72.8913898,146.573343 72.1768136,143.983086 C70.6618983,138.490061 70.4110508,132.055432 73.1337627,126.925084 C74.4595254,124.42736 76.2151186,122.558051 76.7618983,119.690533 C77.1842712,117.475155 76.4191864,116.008857 74.5256271,114.837445 C72.3446102,113.488763 70.1039322,113.923297 67.7751186,114.58425 C66.4174915,114.969636 64.5581695,115.761762 63.8927458,117.125697 C64.3269831,118.938064 64.6157966,120.075919 64.6157966,120.075919 C64.6157966,129.869543 69.0303729,152.14975 80.6056271,171.737337 C82.2435932,175.012612 82.6578305,180.485978 82.568339,183.93988 C83.1524068,184.110371 85.0174915,185.660729 85.4452881,184.928936 C86.5551186,183.030815 84.7934237,176.836502 84.0429153,174.937026 C82.9788475,172.245762 81.6917288,169.677876 80.7815593,166.920178" id="Fill-232" fill="#161C23"></path>
                        <path d="M122.327831,142.319146 C121.580034,140.889116 119.720712,139.416717 118.315288,138.680517 C116.698,137.833481 114.844102,138.240221 113.106475,138.352752 C110.62478,138.513076 108.201051,138.455115 105.779695,137.862292 C103.479017,137.298957 101.09122,136.792904 98.8461356,136.046875 C97.3807119,135.559804 95.9868136,134.881903 94.5932542,134.207393 C94.5844407,134.041646 94.5902034,133.867765 94.6237627,133.678631 C94.8261356,132.532979 96.0274915,131.665945 96.9034237,131.032447 C98.3407119,129.993226 100.035288,129.185169 101.101051,127.723616 C104.363085,123.250153 105.402746,116.553177 103.187492,111.468925 C102.579695,110.074146 101.85461,108.654284 100.983085,107.403897 C99.9796949,105.964376 98.6837627,104.759069 97.7091864,103.297178 C96.9630847,102.178303 96.3712203,100.965201 95.517322,99.9188619 C94.3695254,98.51188 93.1617288,97.1269299 91.9817288,95.7450304 C90.738678,94.2885618 89.3264746,93.4808437 87.8807119,92.2785878 C86.3451186,91.0017627 84.8908814,89.6120673 83.3596949,88.3230401 C82.0396949,87.2119617 80.9037627,85.9578463 79.698678,84.7318638 C78.4335932,83.4448703 76.7468136,82.6466428 75.7146102,81.1281464 C75.6210508,80.9905327 75.4047797,80.8898645 75.2508814,81.0064633 C73.777661,82.1202533 72.5993559,83.4991023 71.3295254,84.8277867 C70.1861356,86.0246195 69.0013898,87.1428159 68.1969831,88.6104698 C66.4288475,91.8376137 66.1607119,95.3860822 66.3291864,98.9914944 C66.518339,103.042287 67.9732542,106.587366 69.6207119,110.241248 C71.4929153,114.393387 73.0593559,118.699409 74.2420678,123.099998 C75.4210508,127.485673 75.7946102,131.989303 76.7902034,136.407518 C77.3013898,138.675094 77.337322,140.957923 77.5817288,143.258038 C77.8339322,145.634417 78.397322,147.984697 78.8400339,150.330571 C79.6864746,154.815559 80.4074915,159.261228 81.4952881,163.694356 C82.0190169,165.828047 81.7444407,167.881746 81.9905424,170.024249 C82.1013898,170.989579 82.4868136,171.8739 82.6505424,172.823638 C82.8359661,173.899805 82.5152881,174.922078 82.798678,175.982653 C83.1556271,177.318794 83.4535932,178.38547 83.4051186,179.811434 C83.3715593,180.801507 83.3315593,181.77226 83.4278305,182.761655 C83.6142712,184.673673 84.0902034,186.545355 84.8451186,188.311963 C85.8820678,190.739863 87.9410508,194.370357 90.7003729,195.183159 C93.4363051,195.989522 95.7427458,193.02947 96.9135932,190.984923 C98.698,187.868616 99.9515593,183.874089 99.6247797,180.255458 C99.4596949,178.428517 98.8732542,176.678518 98.3451186,174.932925 C97.6271525,172.558579 97.3118983,170.258464 97.2135932,167.78684 C97.1413898,165.964305 97.0146102,164.191935 96.6627458,162.399567 C96.2013898,160.049965 95.6068136,157.306164 96.3410508,154.942665 C97.5888475,150.925428 102.151559,149.929593 105.825119,149.875022 C109.661051,149.818078 113.528508,150.105508 117.359017,149.891631 C119.606136,149.766219 122.26478,149.192376 122.669864,146.591951 C122.876305,145.26869 122.967492,143.542417 122.327831,142.319146" id="Fill-234" fill="#161C23"></path>
                        <path d="M154.839966,121.18249 C154.079966,116.319911 152.804373,114.567539 147.715559,112.193194 C142.82539,109.911382 116.792169,91.4979179 109.799288,79.0760747 L102.957254,76.0600968 C100.127424,74.8127604 96.9281017,74.6920942 94.0121695,75.7225025 L83.9406441,79.2814785 L84.3714915,80.1800352 C86.5765763,85.0985401 101.296915,103.29711 106.498271,107.950556 C112.944373,113.717453 115.167085,116.734786 115.691153,120.322573 C117.896576,135.418055 110.790136,142.497027 110.057593,141.879799 C110.057593,141.879799 119.727085,166.63807 119.727085,198.86409 C128.295898,203.089442 134.515559,203.304336 138.030475,203.004704 C139.06539,199.785356 139.948441,196.70091 140.276237,194.361477 C141.229119,187.555698 142.496576,181.506455 142.796915,176.059527 C143.958271,154.985644 141.116915,144.1589 141.116915,144.1589 C141.116915,144.1589 145.115559,141.756083 149.162,137.820194 C153.991831,131.189652 155.688102,126.610097 154.839966,121.18249" id="Fill-236" fill="#00CABC"></path>
                        <path d="M111.305831,86.1888069 C111.685831,86.5633468 111.952949,87.071094 112.381763,87.3930966 C113.047186,87.893387 113.896339,87.9652444 114.704814,88.00219 C115.393627,88.0333734 116.086847,88.0174427 116.754644,87.9116903 C113.799729,84.8333455 111.338373,81.8095717 109.79939,79.0762781 L102.957356,76.0603001 C100.127186,74.8126248 96.9282034,74.6919586 94.0122712,75.7223669 L83.9404068,79.2813429 L84.3715932,80.1798996 C85.0797288,81.7594071 87.0790508,84.7089508 89.6387119,88.1391258 C90.0983729,87.9381284 90.6621017,87.893387 91.1254915,87.8689826 C92.1098983,87.8167843 93.0702373,88.0893001 94.0393898,87.9140629 C96.2946441,87.505967 98.296339,85.5203973 100.202102,84.3455963 C102.920068,82.670166 106.457356,84.0300338 109.217695,85.0356987 C110.000068,85.3207557 110.702441,85.5942885 111.305831,86.1888069" id="Fill-238" fill="#00B1B2"></path>
                        <path d="M61.5614576,91.278346 C61.5614576,91.278346 52.0868814,102.253211 50.0014576,108.276354 C47.9156949,114.299498 30.6489153,128.977732 20.9963729,160.085216 C18.2207797,179.030492 20.8404407,184.160841 26.0811186,181.665152 C31.3217966,179.169123 61.8672203,140.03869 68.3411186,120.201975 C74.8150169,100.365598 71.5468814,86.6740479 61.5614576,91.278346" id="Fill-242" fill="#345468"></path>
                        <path d="M64.7906102,118.397947 C63.574,119.368022 62.6885763,120.663489 61.8902712,121.982005 C61.5478983,122.547374 61.0407797,123.179516 60.6055254,123.834706 C61.0028136,120.828219 61.9892542,117.833934 63.0024746,115.020648 C64.1153559,111.930101 65.3980678,109.070379 65.7956949,105.755786 C66.1431525,102.856746 65.6282373,99.8641553 63.933322,97.434561 C62.5404407,95.437806 60.3855254,95.5937231 58.3038305,96.4346583 C57.8167119,96.6312493 57.3367119,96.8630912 56.8645085,97.1213712 C54.1580678,100.68916 51.0841695,105.149065 50.0014576,108.276219 C48.0407797,113.938719 32.6641695,127.251662 22.8092542,154.67103 C23.0119661,154.354112 23.1787458,154.041939 23.2994237,153.852127 C25.2665424,150.762258 27.3882373,147.830678 29.0485763,144.550658 C30.6675593,141.351647 32.1478983,138.075356 33.8801017,134.933966 C35.5895932,131.834267 37.8126441,129.191813 39.8482373,126.320566 C41.0156949,124.673947 42.0007797,123.07478 43.5845085,121.76406 C45.3506102,120.302507 45.6909492,123.248662 46.4251864,124.298051 C47.2407797,125.463022 48.4038305,126.13855 49.5601017,126.901188 C52.1051864,128.580008 51.5384068,131.913921 50.1990847,134.241152 C48.1587458,137.785553 45.413661,140.996089 43.1431525,144.402198 C40.7824746,147.944227 38.4502712,151.505236 35.9824746,154.974391 C34.6719661,156.816923 33.3312881,158.637424 31.8970508,160.386407 C30.7817966,161.746275 29.5380678,163.780314 27.9855254,164.65989 C27.9221356,164.695479 27.8851864,164.74361 27.8587458,164.794453 C27.5360339,164.738187 27.2987458,165.222547 27.634339,165.420494 C27.9851864,165.627592 28.454,165.496418 28.7306102,165.654369 C29.3777288,166.024164 29.353661,167.498258 29.3973898,168.100233 C29.4916271,169.406547 29.5445085,170.661001 30.0601017,171.891729 C31.0472203,174.246754 32.253661,171.790383 33.1987458,170.780989 C35.814,167.98838 37.773322,164.645993 40.1794237,161.67679 C42.5475593,158.75504 44.8916271,155.847187 47.1502712,152.838666 C49.5173898,149.685752 51.6373898,146.41929 53.754,143.096901 C54.654678,141.682801 55.4031525,140.175151 56.3021356,138.766136 C57.2695932,137.249334 58.3899322,135.99488 59.2516271,134.401137 C61.1438305,130.901138 62.9407797,127.762121 66.2953559,125.42506 C67.1190847,123.576087 67.8119661,121.823715 68.3411186,120.202178 C68.6234915,119.336838 68.8862034,118.484379 69.1316271,117.643783 C68.0184068,116.613713 66.0811186,117.368894 64.7906102,118.397947" id="Fill-244" fill="#161C23"></path>
                        <path d="M88.2828475,78.5187391 C88.2828475,78.5187391 100.037085,94.5466723 108.094373,101.631068 C117.933017,110.281414 136.41539,113.797343 139.638441,122.108399 C134.540475,102.713336 107.132,84.6822076 107.132,76.8802543 C107.132,69.077962 88.2828475,78.5187391 88.2828475,78.5187391" id="Fill-280" fill="#C68657"></path>
                        <path d="M122.955559,98.2915964 C130.000983,106.11931 132.461322,108.467556 134.474542,113.052534 C135.191153,113.590109 135.858949,114.017864 136.479627,114.361559 C127.646407,98.0387396 107.131831,83.6306489 107.131831,76.8801187 L105.397593,80.1760695 C105.397593,80.1760695 115.909797,90.4638828 122.955559,98.2915964" id="Fill-282" fill="#BB6D35"></path>
                        <path d="M88.3415254,78.5187391 C88.4001695,78.2841856 88.3415254,70.5391759 85.8184746,66.4321176 C96.6154237,73.7076814 109.172712,78.6360158 109.172712,78.6360158 L105.827966,84.7381344 C105.827966,84.7381344 108.820508,89.7254461 109.348644,90.3121688 C109.87678,90.8988914 107.881525,92.3068901 103.480847,90.7226373 C99.0798305,89.1387235 88.3415254,78.5187391 88.3415254,78.5187391" id="Fill-284" fill="#BB6D35"></path>
                        <path d="M110.13061,12.4667541 C115.508915,14.4835071 129.71061,24.2303561 127.357729,47.0857612 C125.004847,69.9411662 112.903831,77.4194222 110.634678,79.7720749 C108.365864,82.1247275 105.844847,85.0657975 101.475017,84.729559 C97.1051864,84.3936594 91.3909492,75.2345499 89.7102712,73.5540353 C88.0295932,71.8735207 81.6428136,60.2780379 79.9621356,55.6564533 C78.2814576,51.0348688 77.5251864,19.272872 89.794339,11.6264968 C102.063153,3.98012152 110.13061,12.4667541 110.13061,12.4667541" id="Fill-290" fill="#C68657"></path>
                        <path d="M86.8385085,69.2433697 C84.3191864,64.9658194 81.0869831,58.7494747 79.9622373,55.656555 C78.2815593,51.0349704 77.5249492,19.2729737 89.7941017,11.6265984 C91.3371525,10.6646581 92.8137627,9.95862502 94.2161356,9.45833467 C96.0178305,10.1155589 97.7313898,11.4716983 98.8408814,12.6468382 C99.0788475,12.8986782 99.327322,13.1857689 99.5493559,13.4969251 C104.79139,12.7461506 109.727661,15.5197793 113.642576,18.8733515 C118.135458,22.7217909 123.036475,25.7472595 125.710034,31.0786056 C126.699186,33.0512951 126.885966,36.6350145 127.485966,38.7822634 C127.687661,41.3345576 127.665627,44.0970009 127.357831,47.0858629 C125.780203,62.4091189 119.82122,70.8198266 115.380881,75.4088719 C119.789695,67.3727041 123.423932,58.7803191 123.640881,49.5022381 C123.706305,46.6964092 123.451051,43.8821065 122.801898,41.1494909 C122.130373,38.3246808 121.159864,35.8998318 118.403932,34.5816548 C116.238847,33.5461623 113.865966,32.9309679 111.653763,31.9907203 C109.454102,31.055557 107.308339,29.9939653 105.230712,28.8117073 C101.755458,26.8342725 98.4842712,24.5195822 95.4544407,21.9181402 C94.5300339,23.7250832 93.4008814,25.424918 92.0757966,26.9888337 C90.6517288,28.6696872 89.0815593,30.2549568 88.2178305,32.3178071 C87.3815593,34.3152401 87.1035932,36.5143483 86.7178305,38.6307527 C85.8910508,43.1689555 84.8408814,47.730207 84.3402034,52.3175576 C83.8446102,56.858811 84.9032542,61.0655207 86.0059661,65.430859 C86.3252881,66.6964986 86.6029153,67.9672226 86.8385085,69.2433697" id="Fill-292" fill="#BB6D35"></path>
                        <path d="M79.3797966,52.5807863 C78.6930169,46.5627273 78.7794576,34.2168089 81.7214915,24.3550559 C89.2211525,26.1979275 107.052,30.9469574 111.727254,35.4902445 C118.956746,32.7233948 123.389627,31.3787798 125.957424,30.7259619 C127.364542,35.2129833 128.022847,40.6253384 127.357763,47.0857273 C126.814034,52.3669087 125.749288,56.8254583 124.406237,60.590855 C123.010305,61.1057202 121.322169,61.6290591 119.542508,61.9585186 C117.357424,61.2023209 113.239797,60.0258251 113.239797,60.0258251 C113.239797,60.0258251 112.567593,60.9501421 110.550644,62.1266378 C109.038102,61.2863806 104.966915,58.2300675 104.63539,58.1690565 C104.304542,58.1077065 96.7689492,59.605866 91.6428475,59.8577059 C87.1069153,58.2656573 82.4906441,55.0402082 79.3797966,52.5807863" id="Fill-294" fill="#00CABC"></path>
                        <path d="M87.3102373,57.9021672 C83.5210847,55.8532139 80.0478644,53.1738134 77.8827797,51.3644977 C80.0237966,44.2804407 85.3671864,31.2427252 87.6041356,25.8744336 C89.0787119,26.2737168 90.6529492,26.7150298 92.2688814,27.1905768 C92.015661,27.7081536 91.8088814,28.3091121 91.8590508,28.8361795 C91.9770169,30.0753811 101.948542,33.9689008 102.715661,36.3879877 C103.482441,38.8067356 104.426508,51.0780849 104.426508,51.0780849 C104.426508,51.0780849 104.780746,52.1989929 104.603458,52.3762638 C104.426508,52.5531957 101.358373,50.8421756 99.2343051,50.4293344 C97.1102373,50.0161542 90.2068475,48.1282022 88.9088814,47.6563837 C87.6109153,47.1842262 86.135661,45.473545 86.1946441,47.3614971 C86.2336271,48.6054439 86.836,54.1282968 87.3102373,57.9021672" id="Fill-296" fill="#00B1B2"></path>
                        <path d="M111.418407,35.2066449 C111.526881,35.301212 111.630271,35.3957791 111.72722,35.4900072 C118.420102,32.9289003 122.748915,30.2403481 125.38722,29.5370266 C126.114678,31.5547966 126.784169,35.3835769 127.420441,38.0321329 C127.69061,40.7905088 127.695695,43.8020804 127.357729,47.085829 C126.814,52.3666715 125.749254,56.8252211 124.406203,60.5906177 C123.411288,60.9573617 122.26722,61.3285121 121.047559,61.6308555 C121.545186,58.9558614 122.916373,52.6039366 122.304508,52.553094 C121.596373,52.4941167 113.807898,51.9629819 113.571966,52.8479806 C113.379763,53.5692664 117.026542,59.3436203 118.415356,61.5844194 C116.184847,60.867201 113.239763,60.0259268 113.239763,60.0259268 C113.239763,60.0259268 112.575017,60.9383805 110.589254,62.103352 C111.132983,46.1133811 111.342136,38.6676644 111.418407,35.2066449" id="Fill-298" fill="#00B1B2"></path>
                        <path d="M103.963492,51.2972839 C103.963492,51.2972839 103.080441,42.1141089 101.314339,38.7588419 C99.5482373,35.4035749 85.2424746,30.1057849 85.2424746,30.1057849 C85.2424746,30.1057849 85.7723051,42.1141089 86.1255254,44.2335639 C86.4787458,46.3526799 97.3621356,49.2581601 99.6458644,49.5615205 C101.929932,49.8645419 103.963492,51.2972839 103.963492,51.2972839" id="Fill-300" fill="#C68657"></path>
                        <path d="M103.963492,51.2972839 C103.963492,51.2972839 103.080441,42.1141089 101.314339,38.7588419 C99.5482373,35.4035749 85.2424746,30.1057849 85.2424746,30.1057849 C85.2424746,30.1057849 85.7723051,42.1141089 86.1255254,44.2335639 C86.4787458,46.3526799 97.3621356,49.2581601 99.6458644,49.5615205 C101.929932,49.8645419 103.963492,51.2972839 103.963492,51.2972839" id="Fill-302" fill="#C68657"></path>
                        <path d="M97.6389153,37.294747 C97.6334915,37.2988144 97.6294237,37.3042376 97.623661,37.308305 C97.7521356,37.4523588 97.8758644,37.5998021 97.9985763,37.7486012 C97.8880678,37.5889557 97.7663729,37.4388008 97.6389153,37.294747 M101.314169,38.7590114 C103.080271,42.1142784 103.963322,51.2971145 103.963322,51.2971145 C103.963322,51.2971145 103.363322,50.8764774 102.452475,50.4426213 C101.927051,49.8514923 101.348407,49.3067995 100.729424,48.7966796 C100.206034,48.365874 99.5989153,47.9981132 99.4172203,47.4103737 C99.2385763,47.1270114 99.104,46.8083983 99.0348475,46.4358922 C98.9829831,46.1565973 99.4104407,46.0369479 99.4626441,46.3179375 C99.4816271,46.4216563 99.5077288,46.5223244 99.5399322,46.620281 C99.5429831,46.6196031 99.5456949,46.6182473 99.5487458,46.6179084 C99.6060339,46.5738448 99.6802712,46.5541857 99.7460339,46.5762175 C99.5175593,45.1749978 99.5714576,43.7442894 99.544,42.3179874 C99.4019661,41.5472149 99.2389153,40.7479706 99.0104407,39.9839771 C97.7670508,37.8021553 95.9273898,36.011143 93.7809492,34.6529699 C91.1928136,33.0151631 88.1534915,32.2687949 85.6267119,30.5340483 C85.523661,30.4635467 85.5111186,30.3238993 85.5578983,30.2245869 C87.6629831,31.0231533 99.703322,35.698631 101.314169,38.7590114" id="Fill-304" fill="#BB6D35"></path>
                        <path d="M113.882102,52.0686666 C113.882102,52.0686666 115.065153,43.6399945 117.948881,41.5700262 C120.83261,39.4997191 126.673966,37.2816296 126.673966,37.2816296 C126.673966,37.2816296 124.014644,47.2982829 123.814644,47.9853347 C123.628881,48.6242557 123.420746,50.5159362 121.571932,51.5510898 C119.723458,52.5862434 116.174305,50.8857307 113.882102,52.0686666" id="Fill-306" fill="#C68657"></path>
                        <path d="M117.948949,41.5698568 C119.102169,40.7418017 120.72861,39.890698 122.26522,39.1667006 C122.703525,39.3765107 122.778441,40.2059216 122.164203,40.4472541 C120.737763,41.0078775 119.251661,41.5861264 118.070305,42.5917913 C116.885898,43.5998289 116.15878,44.9912191 115.786915,46.485989 C115.493695,47.6651964 115.509288,48.8888062 114.753017,49.9015891 C114.573017,50.1422437 114.367932,50.3557822 114.14522,50.5479669 C114.634712,48.0227887 115.834034,43.0880143 117.948949,41.5698568" id="Fill-308" fill="#BB6D35"></path>
                        <path d="M113.965085,51.5422432 C113.967797,51.543599 113.970847,51.5442769 113.973559,51.5456327 C114.288475,51.4408971 114.601695,51.3314162 114.914576,51.2209185 C115.220339,51.1127934 115.55661,51.0294117 115.849153,50.8907811 C116.12339,50.7606242 116.431186,50.6901226 116.723051,50.6016566 C117.043729,50.5047169 117.364407,50.4074382 117.685085,50.3104985 L117.954237,50.2288115 C118.46678,50.0739113 119.01661,49.8949457 119.259322,49.3733015 C119.463051,48.9357169 119.344407,48.4235633 119.547458,47.9876735 C119.56339,47.9534395 119.581017,47.9198835 119.601017,47.8876832 C119.822373,47.5270403 120.417288,47.4578945 120.788814,47.3565484 C120.540339,45.8146644 120.801017,44.5029275 121.016949,42.9834143 C121.093559,42.4448226 120.961356,42.0794343 120.897966,41.5479606 C120.869492,41.3123903 120.749153,41.2751058 120.874237,40.9842866 C121,40.6924506 121.391186,40.4867078 121.715932,40.2985905 C121.440678,40.1684337 121.185763,40.0053987 120.954915,39.8071129 C123.704746,38.4092827 126.674237,37.2815957 126.674237,37.2815957 C126.674237,37.2815957 124.014915,47.298249 123.814915,47.9853008 C123.628814,48.6242218 123.420678,50.5159023 121.572203,51.5510559 C119.723729,52.5862095 116.174237,50.8856968 113.882034,52.0686327 C113.882034,52.0686327 113.909492,51.8744143 113.965085,51.5422432" id="Fill-310" fill="#BB6D35"></path>
                        <path d="M112.974847,62.6103874 C113.399932,62.6103874 113.035525,61.9233356 112.691797,62.1453479 C112.348068,62.3676992 112.004678,63.1357601 110.549085,63.115762 C109.093831,63.095425 107.961627,62.1656849 107.031797,61.5593032 C106.101966,60.9529215 104.464678,60.6698981 103.938915,60.3465397 C103.413492,60.0231813 103.373153,59.5784788 103.211458,59.6391509 C103.049424,59.6998229 102.261288,60.2858677 104.666712,61.5189681 C107.072136,62.7517296 109.299932,63.9766953 109.881966,64.2678534 C110.811797,64.732554 112.469424,62.6103874 112.974847,62.6103874" id="Fill-312" fill="#BB6D35"></path>
                        <path d="M115.438983,69.3468172 C114.600678,69.4939216 113.424068,72.6485301 111.668475,74.5222463 C109.912881,76.3959624 107.877966,76.188186 104.883051,75.8438127 C101.626102,75.4689339 99.359661,73.2993143 98.7481356,72.1160395 C98.1366102,70.9324258 97.919661,67.6781659 96.1840678,66.0017187 C98.8864407,66.5145502 116.08678,69.233269 115.438983,69.3468172" id="Fill-314" fill="#345468"></path>
                        <path d="M113.968305,69.3026859 C113.968305,69.3026859 110.509661,73.0084273 107.58322,73.2585725 C107.318475,73.3317857 107.127288,73.3612744 107.009661,73.4348266 C106.759492,73.2141701 103.776441,72.3613716 103.070678,72.0380132 C102.364576,71.7143159 99.3350847,71.3024915 98.2910169,67.4791344 C103.364576,68.3468467 113.968305,69.3026859 113.968305,69.3026859" id="Fill-316" fill="#161C23"></path>
                        <path d="M112.694305,69.2756716 C112.694305,69.2756716 111.451593,71.3466567 110.820407,71.9581227 C110.18922,72.5695887 109.025492,73.1613955 107.032949,73.0431019 C105.040746,72.9244694 100.701085,71.0114351 99.8132881,70.0054312 C98.9258305,68.9994273 98.0580339,66.8498058 98.0580339,66.8498058 L112.694305,69.2756716 Z" id="Fill-318" fill="#F2F2F2"></path>
                        <path d="M108.361695,68.1018196 C108.361695,68.1018196 106.937966,66.7365286 106.176949,66.6975494 C105.416271,66.6585701 102.139661,66.5416323 100.228136,66.19048 C98.3166102,65.8393277 94.8447458,64.8448482 93.8888136,64.0452649 C94.1033898,64.9421268 96.3271186,66.9317639 98.0630508,67.5361119 C99.7989831,68.1407989 103.056271,68.6868475 104.48,68.9793614 C105.904068,69.2718754 107.035254,70.1107769 107.698644,70.1887354 C108.361695,70.2666939 110,69.7399655 111.033898,69.681666 C112.067797,69.6230277 115.247119,69.4671106 115.851525,69.3891521 C116.456271,69.3111936 117.041356,68.5502506 117.041356,68.5502506 C117.041356,68.5502506 113.589153,68.2773958 112.165085,67.8679441 C110.741356,67.4581534 109.161356,67.6727088 108.400678,68.0824995" id="Fill-320" fill="#161C23"></path>
                        <path d="M111.165966,72.1817959 C111.504949,72.1817959 111.504949,72.8471549 111.165966,72.8471549 C110.488,72.8471549 110.488,72.1817959 111.165966,72.1817959" id="Fill-322" fill="#F2F2F2"></path>
                        <path d="M107.063864,73.9271177 C107.166237,73.9501663 107.257085,73.8508539 107.365898,73.8593277 C107.398441,73.8620393 107.463864,73.8725467 107.467932,73.8884774 C107.503186,73.8576329 107.542847,73.8071294 107.574373,73.7884871 C107.702169,73.7129012 107.856407,73.6979874 107.997085,73.6579913 C108.205898,73.598675 108.407254,73.5213944 108.603525,73.428861 C108.742847,73.3634437 108.875051,73.3969997 108.969966,73.4742804 C108.992339,73.3868312 109.046237,73.306839 109.122847,73.2617587 C109.283186,73.1682084 109.470305,73.2295584 109.572,73.3736122 C109.581153,73.2373542 109.690644,73.1065195 109.818441,73.0716076 C109.846915,73.0638118 109.874712,73.0607612 109.901831,73.0604223 C109.910644,72.9960218 109.939119,72.9339939 109.991661,72.8814566 C110.044203,72.8292583 110.119797,72.797397 110.197763,72.7885843 C110.280475,72.7055415 110.404203,72.6645286 110.522508,72.6980846 C110.920814,72.811294 111.154373,73.2471838 111.160475,73.6393491 C111.164881,73.9389809 110.840814,74.0281248 110.643525,73.9084754 C110.58522,73.9705033 110.504542,74.0098215 110.409288,74.0098215 C110.387254,74.0098215 110.36522,74.0071099 110.343525,74.0023646 C110.330305,74.1718397 110.185898,74.3118261 110.013356,74.3118261 C109.901153,74.3118261 109.799119,74.2525098 109.738441,74.1640438 C109.716746,74.217259 109.688949,74.2691183 109.646237,74.3162324 C109.525898,74.4497787 109.298102,74.4385934 109.175729,74.3162324 C109.164881,74.305386 109.15878,74.2921669 109.149627,74.2803037 C109.110305,74.305725 109.069627,74.4674041 109.023864,74.4857075 C108.968949,74.5070613 108.909627,74.6697574 108.849288,74.6697574 L108.848271,74.6697574 C108.833695,74.6697574 108.820475,74.563666 108.802169,74.5755292 C108.684542,74.6673847 108.548271,74.6250159 108.402847,74.611119 C108.273695,74.5985778 108.150983,74.4660483 108.033017,74.536211 C107.916746,74.6050179 107.804203,74.5819693 107.71539,74.5280762 C107.659797,74.5487522 107.600814,74.5572259 107.547593,74.5595986 C107.491661,74.5623102 107.247593,74.5467185 107.469288,74.5057055 C107.242169,74.5477353 107.139797,74.6270496 106.886915,74.570445 C106.469288,74.4768948 106.645898,73.8335675 107.063864,73.9271177" id="Fill-324" fill="#F2F2F2"></path>
                        <path d="M100.07061,47.2442542 C100.07061,47.2442542 98.9794237,45.8660831 97.8021356,45.4928991 C96.6251864,45.119715 89.734,42.7653677 88.0397627,41.8752847 C86.3455254,40.9855407 86.4604407,40.4110203 86.4319661,40.2964552 C86.4031525,40.1815511 86.833661,40.324927 87.5804407,40.1815511 C87.2645085,38.9755666 87.1207797,36.1907526 88.1834915,35.0708615 C88.1258644,35.7314752 87.0062034,39.7795563 89.1309492,41.4732899 C91.2556949,43.1673625 96.5102712,44.4879121 98.2902712,45.2346191 C100.07061,45.9809872 100.07061,47.2442542 100.07061,47.2442542" id="Fill-326" fill="#00CABC"></path>
                        <path d="M99.8695932,46.7848752 C99.8695932,46.7848752 98.434,44.5454319 92.8350169,43.5692556 C90.2217966,42.765266 88.0970508,41.875522 87.6089153,39.090369 C87.1207797,36.305555 88.3556949,34.8989121 88.3556949,34.8989121 C88.3556949,34.8989121 93.4377288,38.5738091 95.1319661,39.3489879 C96.8258644,40.1241668 98.1468814,41.875522 98.8360339,43.2821649 C99.5251864,44.6891467 99.8695932,46.7848752 99.8695932,46.7848752" id="Fill-328" fill="#F2F2F2"></path>
                        <path d="M91.4335254,41.1002075 C91.4335254,42.5719288 92.6264068,43.7646942 94.0982712,43.7646942 C95.5697966,43.7646942 96.7630169,42.5719288 96.7630169,41.1002075 C96.7630169,40.7612574 96.6996271,40.4372211 96.5843729,40.138945 C96.061661,39.6440779 93.7992881,38.448262 93.6552203,38.4723274 C92.3945424,38.6834933 91.4335254,39.7796579 91.4335254,41.1002075" id="Fill-330" fill="#000000"></path>
                        <path d="M94.7471525,41.2541587 C94.7471525,41.2541587 93.9027458,41.8096979 93.3471525,41.0318074 C92.2803729,41.3653343 91.8803729,41.6985222 91.8803729,41.6985222 C91.8803729,41.6985222 92.4135932,43.2763349 93.7915593,43.3431081 C95.1695254,43.4095423 95.8139322,42.7431664 95.9695254,42.4764127 C96.1251186,42.209659 94.7471525,41.2541587 94.7471525,41.2541587" id="Fill-332" fill="#012942"></path>
                        <path d="M91.9934915,40.8646711 C92.204,40.9721183 92.563661,40.9158526 92.7965424,40.9209368 C93.0714576,40.9270379 93.3467119,40.9260211 93.6219661,40.9212758 C93.9073898,40.9161915 93.9073898,41.3598772 93.6219661,41.3649614 C93.2548475,41.3714015 92.8880678,41.3697067 92.5212881,41.3564877 C92.2673898,41.347336 92.0006102,41.3656393 91.7697627,41.2476847 C91.5151864,41.1178668 91.7392542,40.7351922 91.9934915,40.8646711" id="Fill-334" fill="#627B8A"></path>
                        <path d="M121.362712,46.2902453 C121.362712,46.2902453 121.897966,47.1176225 122.482034,47.2149012 C123.066102,47.3121798 123.163729,47.7501034 123.163729,47.7501034 C123.163729,47.7501034 121.313898,47.7016335 120.24339,47.7989122 C119.172542,47.8961909 117.079661,47.1660924 115.327458,48.7723769 C116.44678,47.0688137 118.393559,47.3609887 119.269831,47.3121798 C120.145763,47.26371 121.022034,46.8742563 121.362712,46.2902453" id="Fill-336" fill="#00B1B2"></path>
                        <path d="M115.32739,48.6749626 C115.32739,48.6749626 116.690102,47.3608531 117.663661,47.4096619 C118.63722,47.4584707 120.584,47.7503067 121.265356,46.9717384 C121.946712,46.192831 122.676881,43.6622296 121.654847,41.472273 C118.004339,42.8348524 116.300949,43.6137598 115.32739,48.6749626" id="Fill-338" fill="#F2F2F2"></path>
                        <path d="M119.421593,47.5021953 C120.045661,45.7213515 120.631085,43.9167811 120.213797,42.0318797 C120.657525,41.8478297 121.135831,41.6658135 121.654814,41.472273 C122.676847,43.6622296 121.946678,46.192831 121.265322,46.9717384 C120.899898,47.3893249 120.169729,47.4977889 119.421593,47.5021953" id="Fill-340" fill="#DAD7D0"></path>
                        <path d="M117.695559,47.3079091 C119.048441,47.4824684 120.286746,46.527307 120.461322,45.1745572 C120.635898,43.8218073 119.680644,42.5836226 118.327763,42.4090633 C118.016237,42.3687283 115.715559,45.8765228 115.972847,46.2524185 C116.356576,46.8133809 116.968441,47.2140199 117.695559,47.3079091" id="Fill-342" fill="#000000"></path>
                        <path d="M118.629898,44.9865076 C118.629898,44.9865076 117.847186,45.5013728 117.331932,44.780426 C116.343119,45.0895485 116.092949,45.6128874 116.092949,45.6128874 C116.092949,45.6128874 116.466847,46.8609017 117.744136,46.9225906 C119.021424,46.9846185 119.618712,46.3667124 119.76278,46.1192789 C119.907186,45.8721843 118.629898,44.9865076 118.629898,44.9865076" id="Fill-344" fill="#012942"></path>
                        <path id="Fill-346" fill="#627B8A"></path>
                        <path d="M100.07061,47.2442542 C100.07061,47.2442542 99.5824746,44.8899069 99.1231525,43.5693573 C98.6634915,42.2484688 98.0031525,40.5547351 95.3902712,39.1477533 C92.7773898,37.7411104 87.0634915,33.5493145 86.5753559,30.8794046 C86.2882373,33.1761305 86.8912881,34.9274856 89.5041695,36.4490326 C92.1170508,37.9709185 96.1655254,39.9517429 97.4289153,41.4160073 C98.6923051,42.8802717 100.07061,47.2442542 100.07061,47.2442542" id="Fill-348" fill="#00CABC"></path>
                        <path d="M91.0747119,9.78531983 C91.4489492,9.91005347 93.5696271,14.4001254 90.0767458,21.7594099 C86.5842034,29.1183555 77.2286102,38.0988383 80.2221695,60.5498759 C81.7191186,73.0229005 81.4696271,77.7624397 81.4696271,77.7624397 C81.4696271,77.7624397 85.5862373,64.6660859 82.7170847,52.1930612 C82.3428475,42.2147093 87.2652203,31.097824 91.6984407,24.3784773 C97.6777627,15.3159686 91.0747119,9.78531983 91.0747119,9.78531983" id="Fill-350" fill="#1D3650"></path>
                        <path d="M115.32739,48.6749626 C115.32739,48.6749626 115.960271,45.5603502 118.393831,43.4676723 C120.82739,41.3749944 122.53078,41.472273 123.650441,40.8394532 C124.769763,40.2069723 124.867051,37.5302834 124.867051,37.5302834 C124.867051,37.5302834 122.920271,39.8175187 121.314169,40.4988084 C119.707729,41.1800981 116.203322,41.5210819 115.32739,48.6749626" id="Fill-352" fill="#00B1B2"></path>
                        <path d="M128.455966,83.4709017 C128.455966,83.4709017 129.949525,83.7424007 133.071898,87.136308 C135.06139,89.2984707 137.930881,90.8532348 139.752915,91.6978984 C139.960373,92.4747721 140.498339,94.5074558 141.010542,96.6299613 C141.039356,96.7353748 141.085458,96.9062056 141.113932,97.0116191 C141.499695,98.2982737 141.912576,99.8669347 142.190542,101.647101 C136.495627,96.9899263 128.455966,83.4709017 128.455966,83.4709017" id="Fill-354" fill="#1D3650"></path>
                        <path d="M129.677831,56.727739 C130.886644,57.7635705 133.248,59.6220339 135.470712,60.8734377 C136.488,62.419728 138.198847,65.2052199 139.733424,68.5777734 C135.822915,64.6639166 130.702237,60.9276697 129.677831,56.727739" id="Fill-356" fill="#1D3650"></path>
                        <g id="Group-360" stroke-width="1" fill="none" transform="translate(43.050847, 0.271160)">
                            <mask id="mask-4" fill="white">
                                <use xlink:href="#path-3"></use>
                            </mask>
                            <g id="Clip-359"></g>
                            <path d="M86.1082034,14.6894532 C86.5339661,11.5199308 79.3434576,6.6414221 76.8068475,4.69381484 C74.2702373,2.74654653 71.0882034,1.85680253 67.9519322,1.2307617 C60.3980339,-0.277227285 52.476,-0.482292093 45.0600678,1.59987835 C37.6437966,3.6820488 30.7658305,8.19313564 26.6695593,14.7158913 C22.2505763,21.7528343 21.3793898,30.3530151 19.9834576,38.5440831 C19.8078644,39.5748304 19.6031186,40.6479464 18.9631186,41.4749846 C18.2743051,42.3650676 17.1905763,42.8321408 16.2017627,43.3700546 C11.6461695,45.8487967 8.41023729,50.6107066 7.78311864,55.7586807 C7.32650847,59.5095025 8.17667797,63.2833728 9.03464407,66.9633541 C9.28515254,68.0364701 9.5380339,69.1367021 9.40108475,70.2298161 C9.23566102,71.5523994 8.51871186,72.7309289 7.85057627,73.8843761 C2.37464407,83.3349827 -0.865016949,94.3328965 0.210237288,105.202348 C1.28515254,116.071461 7.05328814,126.706359 16.4312542,132.30751 C17.9882034,125.154646 23.5804068,119.024394 30.5607458,116.817829 C37.5410847,114.611264 45.6410847,116.413462 51.0271864,121.370946 C52.616678,112.849062 50.3573559,103.683852 44.9892203,96.876717 C43.0170169,94.3759432 40.595661,92.0843016 39.6061695,89.0574772 C38.4298983,85.4595219 39.5058305,81.5582063 40.5549831,77.9212717 C42.5082034,71.1507436 44.3854915,64.0741434 43.1471864,57.1371907 C42.5071864,53.5510987 41.0434576,50.0968583 40.9387119,46.4555174 C40.7817627,40.9963871 44.0061695,35.5803035 48.8800678,33.1157973 C51.9336271,31.5718797 55.4112542,31.1603942 58.7858305,30.5957034 C62.0817627,30.0445705 69.4800678,32.0545446 75.7173559,32.0030242 C80.3007458,31.9654007 84.1512542,28.5440384 84.8112542,24.0088861 C85.1390508,21.7565627 85.5688814,18.704995 86.1082034,14.6894532" id="Fill-358" fill="#012942" mask="url(#mask-4)"></path>
                        </g>
                        <path d="M142.453729,103.957418 C142.259492,101.208872 141.658814,98.8301203 141.114068,97.011653 C141.085254,96.9062395 141.039153,96.7354087 141.010678,96.6299952 C140.357797,93.9255124 139.663559,91.3661002 139.663559,91.3661002 C139.663559,91.3661002 144.161525,87.3356446 142.719492,78.0199401 C141.592712,70.739292 137.248305,63.5606679 135.403559,60.7714476 C135.914407,58.4408267 138.224576,47.1815824 137.929322,41.1442032 C137.568644,33.769327 136.289661,26.1673542 132.976102,19.5205428 C126.589661,6.71026286 117.564237,7.72711316 117.60661,7.72711316 L94.8950847,15.7300639 L94.9035593,15.8595428 C96.3740678,18.005097 98.2442373,20.6516193 99.1398305,21.4871313 C101.442203,23.6347191 104.179153,25.2088034 106.964576,26.6401896 C108.887288,27.6285681 110.885593,28.5755947 112.814746,29.6297295 C113.136102,29.8053056 113.455763,29.9839323 113.772373,30.1656096 C113.981186,30.2045889 114.190678,30.2384839 114.401525,30.2615325 C114.822881,30.319154 115.211356,30.2822084 115.574746,30.1869634 C115.941864,30.0890069 116.283898,29.9324119 116.611356,29.7507347 C116.860169,29.7103996 117.088983,29.6165104 117.308983,29.4931326 C117.489661,29.3182343 117.707627,29.1382518 117.952034,28.960642 C118.198475,28.7803205 118.471695,28.6027107 118.76322,28.4322188 C119.979492,27.5556938 122.01339,26.5388436 123.369322,27.2167437 C123.708305,27.3862188 123.962542,27.5980626 124.149322,27.8448183 C124.336102,28.0915739 124.455424,28.3732415 124.524576,28.682025 C124.858475,30.1747612 124.481186,31.98306 124.316441,33.4768131 C124.121864,35.2386757 124.104576,37.0157911 124.194068,38.7847716 C124.378475,42.4271294 125.019153,46.0250846 125.571695,49.6240568 C126.323559,54.5178183 126.915424,59.5851222 125.920508,64.4893912 C124.94661,69.2892635 124.102203,73.9786381 122.331695,78.6175091 C121.707627,80.2526044 120.64661,82.0300587 119.41339,83.7695506 C122.686949,86.8089161 127.581186,91.3135629 134.157458,97.2617982 C136.785254,99.6388552 139.650678,101.867113 142.453729,103.957418" id="Fill-361" fill="#012942"></path>
                        <path d="M53.7317627,70.0728822 C53.7317627,70.0728822 51.7378644,76.0119658 61.8300678,91.1969302 C66.3476949,100.134705 57.5310847,118.833565 55.5626102,126.555865 C49.4782034,118.849835 49.0612542,107.130635 46.7839661,102.039944 C46.2005763,100.736003 46.0198983,99.2842795 46.225322,97.8705187 C48.6321017,81.3100948 53.7561695,69.8610384 53.7561695,69.8610384" id="Fill-363" fill="#1D3650"></path>
                        <path d="M65.0267797,45.0190808 C63.7945763,43.6205727 62.9118644,42.374931 62.280339,41.3401164 C62.2,41.4801028 62.1138983,41.6170386 62.0138983,41.7461786 C61.5749153,42.3132421 60.9752542,42.7084579 60.3420339,43.0599492 C61.3389831,43.9046128 62.4250847,44.8106264 63.4888136,45.6918967 C66.8528814,48.4790833 71.3705085,61.4534152 71.3705085,61.4534152 C71.3705085,61.4534152 68.5830508,49.0556375 65.0267797,45.0190808" id="Fill-365" fill="#1D3650"></path>
                        <path d="M129.301559,19.0819753 C129.301559,19.0819753 137.267661,31.792604 135.233763,49.0790589 C133.369356,58.7391367 132.352407,62.9760129 132.352407,62.9760129 C132.352407,62.9760129 140.318508,66.3655139 140.826983,78.0592922 C140.318508,86.7025197 134.555797,91.7867712 134.555797,91.7867712 C134.555797,91.7867712 136.250712,99.2436733 144.216814,101.616324 C152.182915,103.988975 155.572746,108.734276 155.572746,108.734276 C155.572746,108.734276 147.437153,97.5489228 143.369356,95.8541723 C139.301559,94.1594218 137.606644,91.278346 137.606644,91.278346 C137.606644,91.278346 142.521898,87.5498949 142.352407,77.7203421 C142.182915,67.8907893 139.132068,62.2981127 134.386305,61.2812624 C138.115119,48.9095839 140.657492,32.1315541 129.301559,19.0819753" id="Fill-367" fill="#00B1B2"></path>
                        <path d="M135.923898,55.5169076 L133.985593,55.3816665 C132.920508,60.6089549 132.352373,62.9758434 132.352373,62.9758434 C132.352373,62.9758434 132.389322,62.992113 132.454746,63.0232964 C133.100169,62.3155686 133.817458,61.5342887 134.544237,60.7516529 C135.038814,59.0772394 135.508644,57.3258843 135.923898,55.5169076" id="Fill-369" fill="#00879F"></path>
                        <path d="M141.641085,94.987138 C138.820068,93.3279773 137.606508,91.278346 137.606508,91.278346 C137.606508,91.278346 137.704136,91.203438 137.867186,91.0529442 L135.04922,91.3034283 C134.74278,91.6210246 134.555661,91.7867712 134.555661,91.7867712 C134.555661,91.7867712 135.309559,95.0895009 138.160746,97.9987096 C139.159729,97.1113382 140.503458,95.9328087 141.641085,94.987138" id="Fill-371" fill="#00879F"></path>
                        <path d="M139.637559,122.105959 C138.449424,117.587415 136.050102,113.143102 133.069085,108.88521 C129.25722,111.004665 125.564339,105.77636 120.009424,104.189735 C120.009424,104.189735 125.588407,107.508395 129.764339,113.691184 C130.029763,113.828798 130.291119,113.967089 130.55078,114.10572 C130.60061,114.132158 130.65078,114.158935 130.70061,114.185712 C130.953153,114.321631 131.202983,114.457889 131.449085,114.594486 C131.49078,114.617873 131.532136,114.641261 131.573831,114.664649 C131.80739,114.795144 132.038237,114.926657 132.265356,115.058509 C132.291119,115.073422 132.31722,115.087997 132.342644,115.102911 C132.581288,115.24222 132.815186,115.382206 133.046034,115.52287 C133.094847,115.552698 133.143322,115.582525 133.191458,115.612014 C133.420949,115.753356 133.64739,115.895376 133.868407,116.038413 C133.894847,116.0557 133.92061,116.072986 133.946712,116.089934 C134.152475,116.223819 134.353831,116.358721 134.551797,116.49464 C134.588407,116.520061 134.625695,116.544805 134.661966,116.570226 C134.869763,116.71428 135.072475,116.859689 135.27078,117.005777 C135.312136,117.036621 135.353153,117.067127 135.394169,117.097971 C135.596203,117.249143 135.795186,117.401332 135.987051,117.555215 C135.989085,117.55691 135.99078,117.558266 135.993153,117.55996 C136.182644,117.712488 136.365017,117.86671 136.543661,118.021949 C136.579932,118.053472 136.616881,118.084994 136.652814,118.116855 C136.826034,118.269722 136.994169,118.423944 137.156203,118.5802 C137.185695,118.608672 137.214169,118.637483 137.243661,118.665955 C137.394847,118.814076 137.541288,118.963214 137.681966,119.114047 C137.699932,119.133028 137.718576,119.152009 137.736203,119.17099 C137.885017,119.33233 138.026373,119.496043 138.162983,119.661112 C138.192475,119.697041 138.221627,119.73263 138.25078,119.768559 C138.384678,119.934645 138.513831,120.102425 138.634508,120.272578 C138.649085,120.292915 138.662305,120.313591 138.676542,120.333928 C138.788068,120.493573 138.893492,120.654914 138.993153,120.818288 C139.012136,120.849132 139.031797,120.879638 139.050102,120.910482 C139.153153,121.084024 139.249085,121.25994 139.338237,121.437888 C139.356542,121.474495 139.374169,121.51178 139.392136,121.549064 C139.480949,121.733114 139.564678,121.918859 139.638237,122.107993 C139.637898,122.107315 139.637559,122.106637 139.637559,122.105959" id="Fill-383" fill="#BB6D35"></path>
                    </g>
                </g>
            </g>
        </g>
    </g>
</svg>