<?xml version="1.0" encoding="UTF-8" standalone="no"?>
<svg width="140px" height="140px" viewBox="0 0 140 140" version="1.1" xmlns="http://www.w3.org/2000/svg" xmlns:xlink="http://www.w3.org/1999/xlink">
    <!-- Generator: sketchtool 40.3 (33839) - http://www.bohemiancoding.com/sketch -->
    <title>smush-no-media</title>
    <desc>Created with sketchtool.</desc>
    <defs>
        <circle id="path-1" cx="70" cy="70" r="70"></circle>
        <polygon id="path-3" points="0 333.523755 93.2640059 333.523755 93.2640059 0.206910615 0 0.206910615"></polygon>
    </defs>
    <g id="Plugin" stroke="none" stroke-width="1" fill="none" fill-rule="evenodd">
        <g id="Artwork" transform="translate(-601.000000, 0.000000)">
            <g id="smush-no-media" transform="translate(601.000000, 0.000000)">
                <mask id="mask-2" fill="white">
                    <use xlink:href="#path-1"></use>
                </mask>
                <use id="Oval" fill="#29566A" xlink:href="#path-1"></use>
                <g id="Smush" mask="url(#mask-2)">
                    <g transform="translate(20.222222, -4.666667)">
                        <path d="M9.94831929,142.665656 C9.90796452,142.465373 9.56401774,142.484842 9.54083962,142.725513 C9.44998965,143.66997 9.29746933,144.601378 9.08555506,145.525952 C9.02574723,145.786506 9.40135698,145.889236 9.48454989,145.636138 C9.7136408,144.939601 9.89327125,144.230637 10.0075063,143.505725 C10.0501375,143.235644 10.1867228,142.83922 9.94831929,142.665656 L9.94831929,142.665656 Z" id="Fill-1" stroke="none" fill="#00B1B2" fill-rule="evenodd"></path>
                        <path d="M54.4960916,1.89409166 C54.4960916,1.89409166 45.7566977,-4.12557811 32.9669268,6.57660935 C20.1771559,17.2790039 24.278442,33.8515293 29.7360621,52.1903546 C37.7424479,64.9198105 39.185493,65.3282466 39.185493,65.3282466 L57.7811766,7.67971839 L54.4960916,1.89409166 Z" id="Fill-3" stroke="none" fill="#012942" fill-rule="evenodd"></path>
                        <path d="M74.3283075,70.0022932 C74.3283075,70.0022932 75.5505395,70.0756129 83.2458832,85.0580954 C82.8874501,97.6462969 85.0049372,105.73673 85.6810347,129.472836 C88.9946785,137.416008 89.32,146.146642 88.1205322,159.083423 C86.9208574,172.020203 78.668204,200.04986 78.668204,200.04986 L74.3283075,192.75186 C74.3283075,192.75186 76.2887214,155.356339 76.1231633,148.405468 C75.9576053,141.454597 76.1231633,132.10261 76.1231633,132.10261 C76.1231633,132.10261 71.3751663,109.059934 68.7622469,90.4330077 C66.1493274,71.8062887 74.3283075,70.0022932 74.3283075,70.0022932" id="Fill-5" stroke="none" fill="#161C23" fill-rule="evenodd"></path>
                        <path d="M85.6810968,129.472836 C85.3621907,118.277087 84.7225159,110.56278 84.1734841,104.214829 C82.9636689,107.165842 81.6555536,111.591327 80.6582735,113.877285 C79.1974309,117.226172 78.1854575,125.067856 76.089286,134.537072 C76.065901,136.558541 76.0530702,139.605243 76.0530702,142.765031 L76.0530702,142.796306 L76.0530702,143.723157 L76.0530702,143.755882 L76.0530702,144.188758 L76.0530702,144.225832 C76.0530702,144.52926 76.061969,144.832273 76.0652801,145.134458 C76.0654871,145.156619 76.0567953,145.178574 76.0570022,145.200735 C76.0586578,145.342818 76.0530702,145.484901 76.0530702,145.626569 L76.0530702,145.642725 C76.0530702,145.797442 76.0677635,145.951744 76.069833,146.105426 L76.0756275,146.122824 C76.07749,146.259314 76.0822498,146.39539 76.0841123,146.531053 C76.0845262,146.560878 76.0863888,146.590702 76.0870096,146.620527 C76.0913555,146.909457 76.09715,147.1959 76.1025307,147.479445 C76.1029446,147.501813 76.1037724,147.523975 76.1041863,147.546137 C76.1066696,147.666886 76.109153,147.787015 76.1118433,147.906521 C76.1124642,147.934482 76.113085,147.962443 76.1134989,147.990404 C76.1166031,148.129587 76.0797664,148.268149 76.0830776,148.405468 C76.089493,148.676792 76.0530702,148.994718 76.0530702,149.354896 L76.0530702,149.35531 C76.0530702,150.868926 76.041895,153.130652 75.955184,155.840995 C75.9508381,155.970029 75.9667731,156.100099 75.9624272,156.231204 C75.9537354,156.493415 75.9547701,156.759355 75.9458714,157.029229 C75.9411116,157.164063 75.9415255,157.299725 75.9367657,157.436423 C75.9272461,157.709818 75.920003,157.986734 75.9100695,158.266965 C75.9048958,158.406976 75.9011707,158.548023 75.895997,158.689692 C75.8856497,158.973236 75.8757162,159.25968 75.8649549,159.549231 C75.8595743,159.694006 75.8544006,159.839402 75.84902,159.985628 C75.8378448,160.277871 75.8266696,160.573013 75.8150806,160.870642 C75.8036984,161.16827 75.7919024,161.468383 75.7801064,161.770775 C75.7743119,161.921971 75.7681035,162.073789 75.762102,162.226227 C75.233765,175.475963 74.3281626,192.75186 74.3281626,192.75186 L75.6302764,194.941301 L78.6682661,200.049653 C78.6688869,200.047168 81.4266696,190.680061 83.9855758,180.277159 C84.1240237,179.714834 84.2616438,179.149403 84.3984361,178.582315 C86.1069948,171.493296 87.6516511,164.136888 88.1203873,159.083423 C88.4202542,155.849279 88.6249254,152.877968 88.7114294,150.116053 C88.9707347,141.830516 88.1663296,135.430371 85.6810968,129.472836" id="Fill-7" stroke="none" fill="#00B1B2" fill-rule="evenodd"></path>
                        <path d="M33.7739187,16.5926986 C28.6650052,20.8367481 25.5829357,27.4245418 25.597422,34.0695 C25.6168751,42.9823974 30.8375403,51.2445308 30.9819897,60.1563926 C31.0006149,61.3038248 30.9130761,62.5185703 30.266986,63.4667553 C29.864473,64.0576622 29.2786046,64.4932308 28.7384715,64.961524 C23.6210732,69.3973645 22.6395211,77.8616448 26.6058773,83.352543 C27.3620636,84.3995232 28.2811175,85.3659345 28.7175698,86.5815085 C29.0687598,87.5599326 29.0778655,88.6274174 29.0000532,89.6642488 C28.5900902,95.123458 25.7607036,100.356287 21.4185307,103.685912 C20.8959882,104.086685 20.2861138,104.620634 20.4247687,105.264771 C20.4862321,105.5508 20.691524,105.783808 20.9133718,105.974356 C22.2158995,107.092999 24.1105041,107.09652 25.8244435,107.004767 C31.5258477,106.699682 37.6614279,105.782772 41.726912,101.770694 C44.2711249,99.2595991 45.6752639,95.8330433 46.8229948,92.4464613 C49.0224331,85.95622 50.5207332,79.2530617 52.0146874,72.5648159 C53.1344804,67.5523597 54.2567568,62.5235412 54.7285972,57.4089759 C55.8247982,45.5241462 53.2892772,33.3282256 47.5473112,22.8673303 C46.1063356,20.2421131 44.37315,17.6301513 41.7867199,16.1231627 C39.2002897,14.6163812 35.56298,14.5465825 33.4742587,16.6917009" id="Fill-9" stroke="none" fill="#012942" fill-rule="evenodd"></path>
                        <path d="M80.6582528,225.293597 C80.6582528,225.293597 79.778105,200.232973 79.2261759,194.709765 C78.6742469,189.186556 73.9835743,170.40802 73.9835743,170.40802 C73.9835743,170.40802 77.1567007,162.813634 75.6391545,153.562306 C74.1214013,144.311185 62.670374,137.54527 58.3933895,136.854947 C50.6260281,135.601056 33.7391101,150.121666 37.5608101,162.12331 C41.5617265,174.688315 45.286782,182.835084 48.1840473,186.01082 C51.0813126,189.186556 59.2211796,212.383742 60.4628647,217.216627 C61.7045499,222.049305 65.2917783,235.442988 65.2917783,235.442988 L80.6582528,225.293597 Z" id="Fill-11" stroke="none" fill="#345468" fill-rule="evenodd"></path>
                        <path d="M26.2476305,241.035125 C26.2476305,241.035125 25.4198404,236.478535 25.2818064,235.097681 C25.1439793,233.717034 23.9022942,231.645857 22.7984361,228.331973 C21.6947849,225.018089 13.8996925,166.541712 15.0035506,150.110441 C15.2794117,142.101819 24.1092417,128.708344 29.6277044,126.360872 C35.146374,124.013606 53.2197221,129.122579 55.1513703,132.160168 C57.0828115,135.197964 71.0863296,142.308937 64.6018359,152.802971 C58.1175492,163.297005 53.0127746,162.468534 52.0471574,170.062713 C50.8054723,186.425014 47.1493304,203.684963 45.6317842,214.04085 C44.114031,224.396736 42.2912373,227.812315 42.7051323,231.678374 C43.1190273,235.544641 26.2476305,241.035125 26.2476305,241.035125" id="Fill-15" stroke="none" fill="#345468" fill-rule="evenodd"></path>
                        <path d="M55.1512875,132.16023 C54.1827731,130.637086 49.1558108,128.593249 43.6880503,127.229793 C43.5655373,127.24222 43.4430244,127.255475 43.3203045,127.267074 C39.5656556,127.619795 35.7884494,127.622695 32.0222114,127.49656 C30.682847,127.451616 29.3430687,127.375603 28.0028766,127.295449 C22.5330466,131.165444 15.2534605,142.850612 15.0034678,150.110503 C14.5707406,156.552693 15.5059364,169.458406 16.8695137,182.968488 C17.2211175,182.807143 17.558235,182.607275 17.8624479,182.378617 C19.9513762,180.808872 21.0192254,178.247654 21.6355152,175.783781 C22.4715831,172.441729 22.736476,168.941854 22.8103562,165.507635 C22.8918936,161.724629 22.6932239,157.943074 22.5479468,154.164004 C22.4763429,152.303879 22.6234826,153.342368 22.6147908,151.480586 C22.6067199,149.721536 22.4105336,147.654501 22.8966534,145.94785 C23.8852417,142.476143 28.7100163,142.655093 31.5410584,142.636038 C35.0941404,142.612219 38.345493,139.671148 41.8133126,138.803117 C46.8882868,137.533071 52.0238965,135.090739 57.2584272,134.26144 C56.2801863,133.424477 55.5088928,132.722348 55.1512875,132.16023" id="Fill-17" stroke="none" fill="#161C23" fill-rule="evenodd"></path>
                        <path d="M32.9571796,99.1740388 C32.9571796,99.1740388 32.9174457,100.436628 32.4532624,106.988177 C31.6316807,118.588219 20.9627081,135.076655 20.7979778,135.335966 L31.5985691,128.654348 L66.1027228,140.514945 C63.9355684,135.976789 62.1454723,129.630494 63.4146814,122.951362 C66.0172535,109.255494 83.7495521,95.8972291 83.2458418,85.0581368 C82.7419246,74.2190445 74.178643,64.9764157 71.4082365,62.2878205 C68.6376231,59.5990181 60.6620724,47.9198563 60.6620724,47.9198563 C60.6620724,47.9198563 49.4962188,55.3137522 48.572612,58.8428312 C47.6490052,62.3719103 44.601082,65.8121358 36.7931589,71.1056508 C28.9854427,76.3991658 22.9334693,82.7056936 24.2573126,89.3620433 C25.2794265,94.5010485 32.9571796,99.1740388 32.9571796,99.1740388" id="Fill-29" stroke="none" fill="#345468" fill-rule="evenodd"></path>
                        <path d="M82.0320325,91.6816376 C81.8294309,88.5481535 80.7278492,85.3587475 79.7102882,82.4087696 C78.2188174,78.0841514 76.3012417,72.1063194 71.6341611,70.2379103 C65.6583444,67.8454934 60.8608869,73.454863 57.7597783,77.8325034 C57.5503474,74.3755013 54.6518404,71.4176529 51.1846415,71.1689046 C50.8491796,71.065967 50.5126829,71.1156753 50.1664597,71.2039074 C50.1143089,71.217163 50.0582262,71.2322826 50.0013156,71.2484378 C49.9628234,71.1355586 49.8407243,71.0491905 49.7086918,71.1285166 C46.4196748,73.1019343 43.5383444,75.6853138 41.2379157,78.7581125 C38.933762,81.835882 36.8274501,85.6507835 36.5886327,89.5630304 C36.3916186,92.7926172 37.9493126,96.377618 41.2116334,97.4670573 C41.3976792,97.5291926 42.0025868,97.5615029 42.0938507,97.6743821 C42.0601183,98.078883 42.0187288,98.481727 41.9686475,98.8829141 L36.0530525,121.70791 L36.0416704,121.727586 C35.9514412,121.979027 35.8711456,122.232539 35.7954028,122.487915 C35.4769106,123.234367 35.152003,123.978127 34.8109534,124.715052 C34.7621138,124.821096 34.7902587,124.998596 34.9347081,125.019308 C44.2802513,126.359981 53.4217443,128.870869 62.1418921,132.492323 C62.2513673,132.537682 62.3612565,132.441372 62.3964375,132.347547 C64.6304361,126.37013 67.2760532,120.552193 70.3312195,114.949658 C71.8324169,112.196649 73.4300517,109.496248 75.1201922,106.855083 C76.7254841,104.34668 78.536068,101.949913 79.9776644,99.34023 C81.2752254,96.9908936 82.2079379,94.4023362 82.0320325,91.6816376" id="Fill-31" stroke="none" fill="#161C23" fill-rule="evenodd"></path>
                        <path d="M28.0654161,121.852146 C28.5633319,121.762879 29.087116,121.666569 29.6407007,121.561974 C35.3514176,108.011918 34.0072934,101.929699 33.8535314,99.6248926 C24.9299542,92.3157079 25.6221936,89.6113716 25.4495994,86.223754 C26.0830658,81.2755043 29.793221,76.8427706 33.2500724,73.6852607 C27.2591486,78.398639 23.1423415,83.7561533 24.2573747,89.362209 C25.2792816,94.5012142 32.9572417,99.1739973 32.9572417,99.1739973 C32.9572417,99.1739973 32.9173008,100.436794 32.4533245,106.988135 C32.1259335,111.612246 30.2333984,117.012219 28.0654161,121.852146" id="Fill-33" stroke="none" fill="#00B1B2" fill-rule="evenodd"></path>
                        <path d="M66.1027228,140.514842 C64.047527,136.210935 63.4773865,131.941617 64.3883695,125.662843 C58.6600621,123.400911 47.0805203,119.435227 28.7184804,120.090134 C25.3315772,128.156541 20.9049697,135.167683 20.7979778,135.33607 L20.8869653,135.280977 C20.7164405,135.539252 20.5481922,135.800635 20.3813925,136.063882 C25.8394265,135.423681 56.8513407,132.403904 66.1027228,140.514842" id="Fill-35" stroke="none" fill="#DAD7D0" fill-rule="evenodd"></path>
                        <path d="M65.7878108,124.427075 C63.1146696,123.371603 56.8714767,121.865236 51.8209224,121.100972 C50.4391338,122.071525 49.0888012,123.087024 47.7324671,124.092166 C44.5771382,126.430111 41.4216024,128.768263 38.2662735,131.106208 C36.6340783,132.315568 35.0020902,133.524929 33.370102,134.734289 C33.2215137,134.844269 33.0681656,134.95342 32.912541,135.063192 C38.2584095,134.819 44.5042927,134.778405 50.2706785,135.347151 C54.2074412,133.727076 57.1738271,130.152017 61.2409667,128.694736 C61.8169017,128.488447 63.4613067,129.174007 64.0589712,129.04083 C64.0204789,127.673646 65.5798285,125.860744 65.7878108,124.427075" id="Fill-37" stroke="none" fill="#C1BBB1" fill-rule="evenodd"></path>
                        <path d="M51.3629268,68.7595868 C50.3176349,71.251006 50.636748,74.139677 53.2190392,81.0487103 C55.8011234,87.9575365 56.9995565,96.8053989 62.7450407,103.292326 C57.8107908,104.275514 53.523459,106.389565 49.516748,110.098629 C45.510037,113.807694 59.1064893,116.741516 62.7104804,114.848667 C66.3144715,112.955818 75.1569254,109.017268 74.7312343,106.538897 C74.3055432,104.060526 71.4283518,87.6456172 70.6690613,78.4651238 C69.9099778,69.2848374 67.6509387,65.1526315 61.6933333,64.3007563 C55.735728,63.448881 51.827524,67.6521283 51.3629268,68.7595868" id="Fill-39" stroke="none" fill="#345468" fill-rule="evenodd"></path>
                        <path d="M74.7312757,106.538959 C74.3053777,104.060588 71.5221404,88.6736047 70.7630569,79.4931112 C70.7342912,79.1432893 70.7022143,78.8021664 70.6691027,78.4651859 C69.6765824,84.6312879 61.0462498,93.9433011 60.0253777,99.565512 C60.7985336,100.853577 61.6913052,102.102497 62.745082,103.292388 C57.8108322,104.275576 53.5235004,106.389627 49.5165824,110.098691 C45.5100783,113.807549 39.4233378,123.685615 35.3853777,125.555266 C29.8830569,128.103022 28.2489993,128.211758 28.2489993,128.211758 L20.3814752,137.089032 C20.3814752,137.089032 28.9540695,138.908147 33.1602779,138.183856 C37.3660724,137.459565 64.3623769,117.260823 67.6203518,114.819112 C72.2880532,111.320893 75.1569667,109.01733 74.7312757,106.538959" id="Fill-41" stroke="none" fill="#00CABC" fill-rule="evenodd"></path>
                        <path d="M39.3364405,67.0485665 C39.3364405,67.0485665 48.1137058,60.6925376 46.7598551,54.7163625 C44.2791752,42.8677784 35.2773718,18.9775765 35.2773718,18.9775765 C35.2773718,18.9775765 32.0732033,25.7714523 30.8329667,32.7676822 C29.5927302,39.7639121 34.0371353,60.7294045 39.3364405,67.0485665" id="Fill-43" stroke="none" fill="#161C23" fill-rule="evenodd"></path>
                        <mask id="mask-4" fill="white">
                            <use xlink:href="#path-3"></use>
                        </mask>
                        <g id="Clip-46" stroke="none" fill="none"></g>
                        <polygon id="Fill-45" stroke="none" fill="#BB6D35" fill-rule="evenodd" mask="url(#mask-4)" points="49.5637251 57.459844 67.3612121 57.459844 67.3612121 36.3338353 49.5637251 36.3338353"></polygon>
                        <path d="M41.2537886,9.25776911 C37.6822882,10.5982351 28.2512757,17.0768777 29.8137295,32.268342 C31.3763902,47.4595992 39.4121626,52.4304248 40.9189475,53.9941637 C42.4257324,55.5581097 44.099731,57.5128868 47.0017561,57.2894068 C49.9035743,57.0659268 53.6981641,50.9783224 54.814439,49.8613365 C55.930507,48.7441434 60.1716896,41.0368784 61.2877576,37.9651153 C62.4038256,34.8933522 62.9060872,13.7816346 54.7585632,8.69917258 C46.6110392,3.61691767 41.2537886,9.25776911 41.2537886,9.25776911" id="Fill-47" stroke="none" fill="#C68657" fill-rule="evenodd" mask="url(#mask-4)"></path>
                        <path d="M56.7213363,46.9959662 C58.3943001,44.152654 60.5407598,40.0208623 61.2876334,37.9650117 C62.4039084,34.8932486 62.90617,13.7817382 54.758646,8.69927614 C53.7338418,8.06011082 52.7535314,7.59078204 51.8220606,7.25835808 C50.62549,7.69516938 49.4876925,8.59633863 48.7509593,9.3773796 C48.5930584,9.54493784 48.4279143,9.73548616 48.2805676,9.94239677 C44.7995033,9.44345016 41.5212476,11.2870051 38.9215728,13.5160061 C35.9380103,16.0739101 33.0726149,19.0793955 31.2974191,22.6229728 C30.6405676,23.9340281 30.1271308,25.321924 29.7285499,26.7489652 C29.5946548,28.4456736 29.6095551,30.2817723 29.8138123,32.2682385 C30.8613806,42.4534601 34.8186312,48.0439819 37.7674265,51.0939976 C34.8395329,45.7526384 32.4263178,40.041367 32.2820754,33.8744365 C32.2386164,32.0095484 32.4081064,30.1388611 32.8393851,28.3226457 C33.285357,26.4449163 33.9295846,24.8333333 35.7598285,23.9572252 C37.197493,23.2687659 38.7731914,22.8599155 40.2423119,22.2348342 C41.7031545,21.613481 43.1279882,20.9078309 44.5075004,20.1220262 C46.8153792,18.8074499 48.9877073,17.2689794 50.9996511,15.5397535 C51.6136644,16.7408292 52.3634353,17.8706564 53.2433762,18.9103875 C54.1891264,20.0275805 55.231728,21.0813955 55.8051796,22.4523078 C56.3606268,23.7801396 56.5454309,25.2415623 56.801425,26.6485131 C57.3504568,29.6647686 58.0478699,32.696558 58.3804346,35.7457452 C58.7094812,38.7640719 58.0064804,41.5603684 57.2743001,44.4618807 C57.0619719,45.303193 56.8777886,46.1478191 56.7213363,46.9959662" id="Fill-48" stroke="none" fill="#BB6D35" fill-rule="evenodd" mask="url(#mask-4)"></path>
                        <path d="M61.6743976,35.9206976 C62.13051,31.9206328 62.0729786,23.7146282 60.1193939,17.1595591 C55.1389948,18.3846605 43.2980783,21.5411348 40.1934516,24.5609113 C35.3926829,22.721913 32.4488544,21.8281999 30.7436068,21.3942883 C29.8092387,24.3767836 29.3721656,27.9742115 29.8137916,32.2681764 C30.1747081,35.7784077 30.8820547,38.7420553 31.7737916,41.244866 C32.7009165,41.5870245 33.8217443,41.9347752 35.0036216,42.1539057 C36.4545307,41.651231 39.1889283,40.8693615 39.1889283,40.8693615 C39.1889283,40.8693615 39.6355211,41.4836727 40.9746785,42.2655422 C41.9792018,41.7069456 44.6829712,39.675742 44.9029564,39.6349399 C45.1227347,39.5943448 50.1267258,40.5899597 53.5308056,40.757518 C56.5431338,39.6991463 59.6084405,37.5552707 61.6743976,35.9206976" id="Fill-49" stroke="none" fill="#00CABC" fill-rule="evenodd" mask="url(#mask-4)"></path>
                        <path d="M56.4080798,39.4577092 C58.9243548,38.0959101 61.230578,36.3149047 62.6684494,35.1121721 C61.2469268,30.4035575 57.6983976,21.7377516 56.2129283,18.1695273 C55.2336526,18.4350523 54.1883607,18.728331 53.1153378,19.0443926 C53.2833792,19.3884152 53.4207923,19.7879453 53.3874738,20.1381814 C53.3090407,20.9616815 46.6873407,23.5498247 46.1780429,25.1576796 C45.6685381,26.7653275 45.041694,34.922038 45.041694,34.922038 C45.041694,34.922038 44.8066016,35.6670405 44.9241478,35.7846833 C45.041694,35.9023262 47.0790924,34.7650427 48.4896467,34.4906118 C49.900201,34.2161808 54.4845026,32.9612544 55.346439,32.6474711 C56.2085824,32.3338948 57.188065,31.1966113 57.148952,32.4515377 C57.1230835,33.2783517 56.722847,36.9493064 56.4080798,39.4577092" id="Fill-50" stroke="none" fill="#00B1B2" fill-rule="evenodd" mask="url(#mask-4)"></path>
                        <path d="M40.3986194,24.3724756 C40.3266016,24.4352323 40.257895,24.498196 40.1935344,24.5609527 C35.7489224,22.858445 32.8967716,21.9663889 31.1447539,21.4989242 C30.6617384,22.8400115 30.1948647,24.4901185 29.772071,26.2504121 C29.5926475,28.0838182 29.5893363,30.0856111 29.8138744,32.2682178 C30.1747908,35.7784491 30.8819305,38.7418896 31.7736674,41.2447003 C32.4346578,41.4884779 33.1941552,41.7351551 34.0041478,41.9360593 C33.6736526,40.1581607 32.7630835,35.9362728 33.1695285,35.9023055 C33.6397132,35.8631603 38.8117458,35.5102316 38.968405,36.098446 C39.0962986,36.5777164 36.6743917,40.4158151 35.7522336,41.9051987 C37.233357,41.4284137 39.1890111,40.8691958 39.1890111,40.8691958 C39.1890111,40.8691958 39.6306371,41.4756366 40.9493067,42.2502569 C40.5881833,31.6220104 40.4491146,26.6729322 40.3986194,24.3724756" id="Fill-51" stroke="none" fill="#00B1B2" fill-rule="evenodd" mask="url(#mask-4)"></path>
                        <path d="M45.3491973,35.0675796 C45.3491973,35.0675796 45.9356866,28.96382 47.1084582,26.7335763 C48.2812299,24.5033326 57.7811559,20.9819169 57.7811559,20.9819169 C57.7811559,20.9819169 57.4293452,28.96382 57.1948736,30.3724277 C56.9601951,31.7810354 49.7329667,33.7124083 48.2162483,33.9137267 C46.6995299,34.1152523 45.3491973,35.0675796 45.3491973,35.0675796" id="Fill-52" stroke="none" fill="#C68657" fill-rule="evenodd" mask="url(#mask-4)"></path>
                        <path d="M45.3491973,35.0675796 C45.3491973,35.0675796 45.9356866,28.96382 47.1084582,26.7335763 C48.2812299,24.5033326 57.7811559,20.9819169 57.7811559,20.9819169 C57.7811559,20.9819169 57.4293452,28.96382 57.1948736,30.3724277 C56.9601951,31.7810354 49.7329667,33.7124083 48.2162483,33.9137267 C46.6995299,34.1152523 45.3491973,35.0675796 45.3491973,35.0675796" id="Fill-53" stroke="none" fill="#C68657" fill-rule="evenodd" mask="url(#mask-4)"></path>
                        <path d="M49.5491353,25.7604129 L49.5592757,25.769319 C49.4740133,25.8652145 49.3916482,25.9631812 49.3103178,26.0621835 C49.3837842,25.9559321 49.4644937,25.8563084 49.5491353,25.7604129 M47.1083962,26.7336592 C45.9356245,28.9639029 45.3491353,35.0676625 45.3491353,35.0676625 C45.3491353,35.0676625 45.7477162,34.7878464 46.3524169,34.4995385 C46.7015373,34.1066362 47.0858389,33.7445944 47.4968367,33.4055427 C47.8443016,33.1190988 48.2474353,32.8746999 48.3682927,32.4840759 C48.4868736,32.2958059 48.5762749,32.0839244 48.6222173,31.8362116 C48.6565706,31.6508412 48.3728455,31.571308 48.3380783,31.7579211 C48.3254545,31.8268913 48.308071,31.8937903 48.2867554,31.9588253 L48.2809608,31.9573755 C48.2428825,31.9279648 48.193422,31.9151235 48.1497561,31.9296217 C48.3016556,30.9982133 48.2658537,30.0473358 48.284065,29.0993579 C48.3782262,28.5869486 48.4866667,28.0556916 48.6383592,27.547839 C49.4640798,26.0978077 50.6856911,24.907295 52.1109387,24.0044688 C53.8298448,22.915858 55.847997,22.419811 57.5261345,21.2667866 C57.5944272,21.2197709 57.602912,21.1271893 57.571663,21.0609116 C56.1737324,21.5917543 48.1781079,24.6995559 47.1083962,26.7336592" id="Fill-54" stroke="none" fill="#BB6D35" fill-rule="evenodd" mask="url(#mask-4)"></path>
                        <path d="M38.7625543,35.5802996 C38.7625543,35.5802996 37.9769815,29.977972 36.0618891,28.6020889 C34.1470037,27.2259987 30.2677724,25.7517347 30.2677724,25.7517347 C30.2677724,25.7517347 32.0338625,32.4095342 32.1665159,32.8662288 C32.2900636,33.2908202 32.4283045,34.5482319 33.6559172,35.236277 C34.8835299,35.9243221 37.2404553,34.7940807 38.7625543,35.5802996" id="Fill-55" stroke="none" fill="#C68657" fill-rule="evenodd" mask="url(#mask-4)"></path>
                        <path d="M36.0618684,28.6019854 C35.2959557,28.0516736 34.2158965,27.4858279 33.1954383,27.0046934 C32.9044701,27.1442908 32.8548027,27.6954311 33.2626962,27.8559473 C34.209895,28.228345 35.1968278,28.6127555 35.9813659,29.2811244 C36.7679734,29.9513574 37.250782,30.8761381 37.4974634,31.8696818 C37.692201,32.6534153 37.6820606,33.4667667 38.1841153,34.1398993 C38.303731,34.3000013 38.4399024,34.4416698 38.5878699,34.5696686 C38.2627554,32.8911865 37.4664213,29.611063 36.0618684,28.6019854" id="Fill-56" stroke="none" fill="#BB6D35" fill-rule="evenodd" mask="url(#mask-4)"></path>
                        <path d="M38.7074442,35.2304156 L38.7018566,35.2324868 C38.4926327,35.1631023 38.2846504,35.0901969 38.0768751,35.0166701 C37.8738596,34.9448002 37.6505632,34.8897069 37.4562395,34.7973324 C37.2741256,34.7107572 37.0698684,34.6639486 36.8759586,34.6053343 C36.6630096,34.5407135 36.4500606,34.4762999 36.2371116,34.4116792 C36.1777177,34.3936599 36.1179098,34.3756407 36.0583089,34.3576215 C35.7180872,34.2544768 35.3528248,34.1355912 35.1916127,33.788669 C35.056476,33.4978758 35.135116,33.1575813 35.0003932,32.8678236 C34.9898389,32.8450407 34.9780429,32.8226719 34.9650052,32.8013388 C34.8178655,32.5614965 34.4228027,32.5155163 34.1759143,32.4484102 C34.3410584,31.4235917 34.1680503,30.551626 34.0244287,29.5415128 C33.9737265,29.1836134 34.0614723,28.9406643 34.1036896,28.5875286 C34.1223149,28.4307404 34.2024035,28.4060934 34.1194176,28.2128526 C34.0358108,28.0189904 33.7760916,27.8820856 33.5602454,27.7569864 C33.743187,27.6706184 33.9124701,27.5620887 34.0656112,27.4303618 C32.2397132,26.5012316 30.2679172,25.7516726 30.2679172,25.7516726 C30.2679172,25.7516726 32.0338004,32.4094721 32.1666608,32.8661667 C32.2900015,33.290758 32.4282424,34.5483769 33.6558551,35.2362149 C34.8834678,35.92426 37.2403932,34.7940185 38.7624922,35.5802374 C38.7624922,35.5802374 38.7442809,35.4512031 38.7074442,35.2304156" id="Fill-57" stroke="none" fill="#BB6D35" fill-rule="evenodd" mask="url(#mask-4)"></path>
                        <path d="M39.36502,42.5871546 C39.0827435,42.5871546 39.3246652,42.13046 39.5529283,42.2781349 C39.7811914,42.426017 40.0094545,42.9365622 40.9758995,42.9230995 C41.9423444,42.9096369 42.6941848,42.2915976 43.3115092,41.8885465 C43.9290407,41.4854954 45.0163429,41.2974325 45.3654634,41.0824443 C45.7143769,40.8674561 45.7412801,40.571899 45.8486859,40.612287 C45.9560916,40.6524678 46.4796689,41.0422634 44.8822409,41.8616212 C43.284813,42.681186 41.8055521,43.4953658 41.4187672,43.6888138 C40.8014427,43.9978335 39.7006888,42.5871546 39.36502,42.5871546" id="Fill-58" stroke="none" fill="#BB6D35" fill-rule="evenodd" mask="url(#mask-4)"></path>
                        <path d="M37.7286652,47.0647293 C38.285354,47.1624888 39.0665809,49.2593488 40.2325233,50.5047477 C41.3982587,51.7501466 42.749626,51.6119991 44.7385987,51.383134 C46.9014072,51.1339714 48.4063296,49.6918106 48.8123607,48.9051774 C49.2185987,48.1187514 49.3626341,45.9556138 50.5153319,44.8411133 C48.7206829,45.1820291 37.2984213,46.9891313 37.7286652,47.0647293" id="Fill-59" stroke="none" fill="#345468" fill-rule="evenodd" mask="url(#mask-4)"></path>
                        <path d="M38.7052919,47.0354014 C38.7052919,47.0354014 41.0019956,49.4984455 42.9454398,49.664761 C43.1213452,49.7136408 43.248204,49.7331099 43.3264302,49.7819897 C43.4924021,49.6353503 45.4733038,49.0684691 45.9420399,48.8534809 C46.410983,48.6384927 48.4227199,48.364683 49.116201,45.8233484 C45.7468884,46.3999642 38.7052919,47.0354014 38.7052919,47.0354014" id="Fill-60" stroke="none" fill="#161C23" fill-rule="evenodd" mask="url(#mask-4)"></path>
                        <path d="M39.5513348,47.017465 C39.5513348,47.017465 40.3766415,48.3939695 40.7957103,48.8003345 C41.214986,49.2069066 41.987728,49.600016 43.3107435,49.5215184 C44.6337591,49.4428137 47.5157103,48.1711108 48.1050968,47.5025347 C48.6944834,46.8339587 49.2708322,45.4048463 49.2708322,45.4048463 L39.5513348,47.017465 Z" id="Fill-61" stroke="none" fill="#F2F2F2" fill-rule="evenodd" mask="url(#mask-4)"></path>
                        <path d="M42.4284642,46.2372111 C42.4284642,46.2372111 43.3740074,45.3298283 43.8791663,45.3039386 C44.3843252,45.2778418 46.5603784,45.2001726 47.8297945,44.9667509 C49.0992106,44.7335364 51.404813,44.0724166 52.0395211,43.5407453 C51.8969342,44.1370373 50.4203636,45.459484 49.267459,45.8612924 C48.1147613,46.2631008 45.9515388,46.6261782 45.0059956,46.8206617 C44.0604523,47.0149382 43.3092328,47.5724991 42.8688485,47.6242785 C42.4284642,47.6762651 41.340541,47.3262361 40.6538891,47.287298 C39.9674442,47.2483599 37.8561656,47.1445939 37.4546874,47.0928144 C37.0530022,47.041035 36.6645617,46.5354606 36.6645617,46.5354606 C36.6645617,46.5354606 38.9571264,46.3538184 39.9026696,46.0816657 C40.8482129,45.809513 41.8974368,45.95201 42.4025957,46.2243698" id="Fill-62" stroke="none" fill="#161C23" fill-rule="evenodd" mask="url(#mask-4)"></path>
                        <path id="Fill-63" stroke="none" fill="#F2F2F2" fill-rule="evenodd" mask="url(#mask-4)"></path>
                        <path d="M43.2903385,50.1091321 C43.2224597,50.1242517 43.162031,50.0585954 43.0898064,50.0641876 C43.0680769,50.0658445 43.0246179,50.0726794 43.0219276,50.0834495 C42.9987494,50.0629449 42.9722602,50.0293918 42.9513585,50.0169647 C42.86651,49.9666351 42.764071,49.9569006 42.6705307,49.9301824 C42.5318758,49.89083 42.3981877,49.8394648 42.2678108,49.7779509 C42.1755122,49.7344561 42.0875595,49.7568248 42.0244405,49.80819 C42.0097472,49.7501971 41.9739453,49.6967607 41.9230362,49.6669358 C41.8166652,49.6045933 41.6922897,49.6456026 41.6248248,49.741291 C41.6188234,49.6505735 41.5461848,49.5637911 41.4611293,49.5403868 C41.4420902,49.5352089 41.4238788,49.5333448 41.4058744,49.5331377 C41.3998729,49.4902643 41.3808337,49.4490479 41.3460665,49.414045 C41.3112993,49.3794563 41.2610111,49.3583303 41.2092742,49.352531 C41.1542262,49.2970235 41.072068,49.2698911 40.9936349,49.2922598 C40.7291559,49.3676506 40.5739453,49.6572012 40.5700133,49.9177553 C40.5669091,50.1170026 40.7821345,50.1762383 40.9131323,50.096705 C40.9518315,50.1379215 41.0056378,50.1642254 41.0689638,50.1642254 L41.1124228,50.1592546 C41.1213215,50.2717195 41.2171382,50.3649225 41.3315802,50.3649225 C41.4062882,50.3649225 41.4739601,50.325363 41.5143149,50.2665416 C41.5285942,50.3019587 41.5470126,50.3363403 41.5753644,50.3678222 C41.6552461,50.4566757 41.8065248,50.4492194 41.8878551,50.3678222 L41.9052387,50.3440036 C41.9313141,50.3607802 41.9584242,50.3758998 41.9888455,50.3879126 C42.0252683,50.4022037 42.0645883,50.4177375 42.1047361,50.4177375 L42.1055639,50.4177375 L42.1359852,50.4475625 C42.2140044,50.5086622 42.3046475,50.5268886 42.4012919,50.5175683 C42.4867613,50.5092836 42.5682986,50.4442486 42.6467317,50.4908501 C42.7239231,50.5366231 42.7988381,50.532895 42.8576112,50.4970636 C42.8944479,50.5107334 42.9337679,50.522332 42.9691559,50.5237818 C43.0061996,50.5254388 43.1682395,50.5181896 43.0210998,50.4908501 C43.1719645,50.518811 43.2398433,50.5728687 43.4078847,50.5351733 C43.6851944,50.473038 43.5678551,50.0469968 43.2903385,50.1091321" id="Fill-64" stroke="none" fill="#F2F2F2" fill-rule="evenodd" mask="url(#mask-4)"></path>
                        <path d="M47.9343237,32.3736407 C47.9343237,32.3736407 48.658847,31.457559 49.4406948,31.209639 C50.2225425,30.961512 54.7985661,29.3967375 55.9235329,28.8050022 C57.0487066,28.2134739 56.9723429,27.8317559 56.9913821,27.7555366 C57.0104213,27.6791102 56.7244198,27.7745915 56.2287805,27.6791102 C56.4384183,26.8775646 56.5338211,25.0265534 55.828337,24.2823794 C55.8664154,24.7212618 56.6099778,27.4119283 55.1990096,28.5378203 C53.7880414,29.6639194 50.2986992,30.5416844 49.1166149,31.0377313 C47.9343237,31.5339854 47.9343237,32.3736407 47.9343237,32.3736407" id="Fill-65" stroke="none" fill="#00CABC" fill-rule="evenodd" mask="url(#mask-4)"></path>
                        <path d="M48.0678049,32.068287 C48.0678049,32.068287 49.0212121,30.5797319 52.7392313,29.9310391 C54.4744863,29.3966754 55.8854545,28.8051472 56.2095344,26.9539289 C56.5338211,25.1029177 55.713895,24.1677811 55.713895,24.1677811 C55.713895,24.1677811 52.3389948,26.6105277 51.2140281,27.1256295 C50.0888544,27.6409384 49.2118108,28.8051472 48.7542498,29.7400766 C48.2966888,30.6752132 48.0678049,32.068287 48.0678049,32.068287" id="Fill-66" stroke="none" fill="#F2F2F2" fill-rule="evenodd" mask="url(#mask-4)"></path>
                        <path d="M53.6699157,28.2898175 C53.6699157,29.2680346 52.8777206,30.0608813 51.9003075,30.0608813 C50.9231013,30.0608813 50.1309061,29.2680346 50.1309061,28.2898175 C50.1309061,28.0644734 50.1729165,27.849071 50.2494871,27.6508593 C50.5965381,27.3219564 52.0987701,26.5272456 52.1945868,26.5431937 C53.0318965,26.6834124 53.6699157,27.4120526 53.6699157,28.2898175" id="Fill-67" stroke="none" fill="#000000" fill-rule="evenodd" mask="url(#mask-4)"></path>
                        <path d="M51.4694634,28.3921544 C51.4694634,28.3921544 52.0302912,28.7614453 52.3992786,28.2444795 C53.10766,28.4660954 53.3733806,28.6875043 53.3733806,28.6875043 C53.3733806,28.6875043 53.0190865,29.7363485 52.1041715,29.7804646 C51.1890495,29.8247878 50.761082,29.3817629 50.6578152,29.2044701 C50.5545484,29.0273845 51.4694634,28.3921544 51.4694634,28.3921544" id="Fill-68" stroke="none" fill="#012942" fill-rule="evenodd" mask="url(#mask-4)"></path>
                        <path id="Fill-69" stroke="none" fill="#627B8A" fill-rule="evenodd" mask="url(#mask-4)"></path>
                        <path d="M33.7949239,31.7395498 C33.7949239,31.7395498 33.439388,32.2894473 33.0515684,32.3540681 C32.6637487,32.4188959 32.5989741,32.7098963 32.5989741,32.7098963 C32.5989741,32.7098963 33.8272077,32.677586 34.5382794,32.7424138 C35.2493511,32.8070346 36.6392106,32.3217577 37.8028766,33.3892425 C37.0593141,32.257137 35.7665129,32.4512063 35.1847834,32.4188959 C34.603054,32.3865856 34.0211175,32.1276884 33.7949239,31.7395498" id="Fill-70" stroke="none" fill="#00B1B2" fill-rule="evenodd" mask="url(#mask-4)"></path>
                        <path d="M37.8027938,33.3246011 C37.8027938,33.3246011 36.8978123,32.4511856 36.2513082,32.4834959 C35.6050111,32.5158063 34.312003,32.7098756 33.8596157,32.1924955 C33.4070214,31.6749083 32.9223503,29.9926981 33.6009313,28.5370747 C36.0251146,29.4428005 37.1562897,29.9603877 37.8027938,33.3246011" id="Fill-71" stroke="none" fill="#F2F2F2" fill-rule="evenodd" mask="url(#mask-4)"></path>
                        <path d="M35.0839379,32.545072 C34.669422,31.3613942 34.2809815,30.1619754 34.5578773,28.9091203 C34.263184,28.7867137 33.9457265,28.665964 33.600952,28.5371368 C32.9221641,29.9927602 33.4070421,31.6747633 33.8596364,32.1923505 C34.1023858,32.4700954 34.5870569,32.5421724 35.0839379,32.545072" id="Fill-72" stroke="none" fill="#DAD7D0" fill-rule="evenodd" mask="url(#mask-4)"></path>
                        <path d="M36.2301582,32.4159341 C35.331799,32.5319201 34.5093895,31.8971042 34.3934989,30.9980061 C34.2774013,30.098701 34.9119024,29.2758222 35.8102616,29.1596292 C36.0172092,29.132911 37.5451027,31.4646424 37.3741641,31.7144264 C37.1194117,32.0872383 36.7129667,32.3535917 36.2301582,32.4159341" id="Fill-73" stroke="none" fill="#000000" fill-rule="evenodd" mask="url(#mask-4)"></path>
                        <path d="M35.6097088,30.8729485 C35.6097088,30.8729485 36.129561,31.2153141 36.4716452,30.7360436 C37.1282897,30.9415044 37.2944686,31.2894622 37.2944686,31.2894622 C37.2944686,31.2894622 37.0461316,32.1187616 36.1978537,32.159978 C35.3497827,32.2009874 34.9530643,31.7902729 34.8572476,31.6260285 C34.7616378,31.4615771 35.6097088,30.8729485 35.6097088,30.8729485" id="Fill-74" stroke="none" fill="#012942" fill-rule="evenodd" mask="url(#mask-4)"></path>
                        <path id="Fill-75" stroke="none" fill="#627B8A" fill-rule="evenodd" mask="url(#mask-4)"></path>
                        <path d="M47.9343237,32.3736407 C47.9343237,32.3736407 48.2584035,30.8088662 48.5636511,29.9308942 C48.8686918,29.0531292 49.3072136,27.9272372 51.0422616,26.9921007 C52.7775166,26.0571712 56.5718995,23.2710235 56.8959793,21.4962316 C57.0867849,23.0228964 56.6863415,24.1868981 54.9510865,25.198254 C53.2160384,26.209817 50.5275831,27.5264644 49.6886179,28.4997106 C48.8496526,29.4729569 47.9343237,32.3736407 47.9343237,32.3736407" id="Fill-76" stroke="none" fill="#00CABC" fill-rule="evenodd" mask="url(#mask-4)"></path>
                        <path d="M37.8027938,33.3246011 C37.8027938,33.3246011 37.3826903,31.2542522 35.7666371,29.8632495 C34.1503769,28.4724539 33.0192018,28.5370747 32.2758463,28.1166257 C31.5324908,27.6959696 31.4677162,25.9168282 31.4677162,25.9168282 C31.4677162,25.9168282 32.7607243,27.4372795 33.8273319,27.8900389 C34.8939394,28.3430054 37.2210643,28.569385 37.8027938,33.3246011" id="Fill-77" stroke="none" fill="#00B1B2" fill-rule="evenodd" mask="url(#mask-4)"></path>
                        <path d="M65.0180488,11.478444 C65.9151663,11.9423877 66.7646859,12.486486 67.5618477,13.0985189 C67.9602217,13.4046389 68.345765,13.7277426 68.7133038,14.0678299 C69.7962602,15.4662888 69.7687361,16.9422098 69.4185809,18.4568618 C69.3018625,18.9616077 69.1468588,19.4719458 68.98068,19.9889116 C65.4985809,25.7708102 72.5347967,30.1202826 74.8112195,35.0911082 C75.2251146,35.9195791 75.2251146,36.7480501 75.2089727,37.5570519 C75.2222173,37.9665237 75.2213895,38.3747527 75.2031781,38.7813248 C75.1851737,39.1881041 75.1493718,39.5932263 75.0928751,39.9966917 C75.0303769,40.52857 74.9651885,41.0565131 74.9099335,41.5811423 C74.6891205,43.3486851 76.0137916,45.7790045 76.9889283,47.7749981 C77.1702143,48.2544757 77.3225277,48.7383027 77.4464893,49.2233724 C77.6942055,50.1935119 77.8281005,51.1686222 77.8506578,52.1315125 C77.8661789,52.7737846 77.8332742,53.4106716 77.762912,54.0407238 C77.3382557,57.709193 75.5721656,61.6860606 71.8193792,63.2326087 C73.8062823,64.3371676 75.3513525,66.5464924 75.6557724,68.9215115 C75.8136733,69.5567415 75.9086622,70.2093695 75.9399113,70.8673826 C76.0429712,72.3451676 75.8871397,73.7481831 75.5241537,75.0741508 C75.3426608,75.7371347 75.1092239,76.3808566 74.832949,77.0073877 C73.5854693,80.0234361 72.4816112,83.3373199 69.6118699,85.7676393 C66.7421286,88.1979588 62.5479231,87.9769642 60.1299483,91.034229 C59.8586401,91.4577848 59.6314117,91.9086801 59.4637842,92.3744879 C59.1287361,93.3061034 59.0329194,94.2963333 59.3071249,95.2472108 C59.7441981,96.7633126 61.0667997,98.0503422 60.9606356,99.6248512 C56.4220695,97.5727287 51.813762,95.4769044 48.043799,92.2197709 C44.2738359,88.9628446 41.3920916,84.3219576 41.4158906,79.3376693 C41.4229268,77.8493213 41.6435329,76.2176478 41.2151515,74.8539847 C41.0723577,74.3993612 40.8575462,73.9745628 40.5386401,73.5947089 C40.0270658,72.9876468 39.3178566,72.6119352 38.5500813,72.437335 C37.7816851,72.2625276 36.9481005,72.2863461 36.180946,72.4771016 C34.6468441,72.8588196 33.3167923,73.7906422 32.0260606,74.7040314 C32.4318847,73.5951231 33.1106726,72.6398961 33.9142498,71.772487 C34.3161419,71.3387825 34.7490761,70.9272396 35.1935994,70.5291593 C36.0578123,69.6395886 37.1616704,68.9768119 37.8239024,67.872253 C39.6450407,63.7296913 42.707864,60.830043 46.142986,58.4042801 C46.7156098,57.9999863 47.2977531,57.6083267 47.8757576,57.2152172 C48.3024834,56.6141616 48.7410052,56.0400312 49.187184,55.4893052 C52.172609,51.0812185 56.3668145,47.9883294 61.002646,45.1162278 C61.444065,44.8952332 61.223459,43.7904672 61.1622025,42.806658 C61.0589357,42.2638024 60.9426312,41.7103838 60.8339837,41.15303 C60.7437546,40.688672 60.659527,40.2214144 60.5868884,39.7537426 C60.5144568,39.2860707 60.4538211,38.8175704 60.4101552,38.3503128 C60.1748559,37.0568626 60.3168219,35.826169 60.5953732,34.6224008 C60.7348559,34.0203095 60.9074501,33.4252603 61.0699039,32.8366317 C61.3648041,32.2380614 61.5549889,31.6724229 61.6561863,31.1349524 C61.980473,30.1202826 61.7735255,29.2918117 61.3296231,28.2112785 C61.1410939,27.7682537 60.8956541,27.3440765 60.6104804,26.9343977 C58.2554176,23.9067507 54.9442572,20.7999847 55.5650998,17.0718655 C55.7720473,16.0362768 58.2554176,15.2078059 59.8091796,14.3818204 C60.4602365,14.0189501 61.1112934,13.6560798 61.7217886,13.3157854 C63.5530673,12.2951092 65.0180488,11.478444 65.0180488,11.478444" id="Fill-78" stroke="none" fill="#012942" fill-rule="evenodd" mask="url(#mask-4)"></path>
                        <path d="M36.3888041,130.664384 C35.0001863,129.054458 33.064813,127.907855 29.9227288,128.362685 C29.8774072,128.353572 29.8264982,128.350051 29.7642069,128.360614 C26.9615166,128.838849 24.1588263,129.317084 21.3563429,129.795111 C19.4097945,130.127328 17.1565499,130.353501 15.4589593,131.227123 C13.6179542,132.174687 12.3650939,133.73097 10.988065,134.945922 C9.23687509,136.490813 7.41656467,138.002566 5.54327568,139.487186 C5.3953082,139.604414 5.48574427,139.751468 5.65275092,139.800141 C6.81310569,140.138364 8.62658684,139.515354 9.77286918,139.146477 C10.5296763,138.903114 11.2575107,138.617084 11.9640296,138.305786 C11.3427731,138.822545 10.9154265,139.434578 10.5967273,140.049303 C10.3210732,140.58056 10.1242661,141.122794 9.91731855,141.661715 C9.80825721,141.94588 9.65904804,142.248479 9.51687509,142.553978 C8.6137561,143.208056 7.73567775,143.877046 6.86339394,144.542722 C6.76012712,144.621427 6.78144272,144.727471 6.84932151,144.798099 C7.23010495,145.194936 7.3344065,145.475581 8.14895196,145.319 C9.41381523,145.076258 10.8903858,144.325663 12.0093511,143.830859 C14.9858773,142.514626 17.546646,140.738591 20.6614132,139.579767 C23.7265129,138.439584 27.0513319,139.264327 30.2995802,138.771387 C32.7113466,138.40541 34.9122336,137.505483 36.2162099,136.025213 C36.2416644,135.996423 36.255116,135.969498 36.2607036,135.94423 C36.9190037,135.20834 37.5965499,134.469344 37.682847,133.63321 C37.7962542,132.532379 37.1509919,131.547534 36.3888041,130.664384" id="Fill-79" stroke="none" fill="#C68657" fill-rule="evenodd" mask="url(#mask-4)"></path>
                        <path d="M21.8482158,130.270902 C21.8482158,130.270902 37.1534339,131.862809 33.9457472,137.917275 C39.8894871,134.55244 42.3722365,128.782968 42.3722365,128.782968 L32.826782,127.67261 L28.2488958,128.211738 C28.2488958,128.211738 23.4514383,130.270902 21.8482158,130.270902" id="Fill-80" stroke="none" fill="#00CABC" fill-rule="evenodd" mask="url(#mask-4)"></path>
                        <polygon id="Fill-81" stroke="none" fill="#012942" fill-rule="evenodd" mask="url(#mask-4)" points="73.0854013 27.8956518 73.0851944 27.9138628 73.0854013 27.9140698"></polygon>
                        <path d="M52.5733422,18.0211068 C48.5523518,20.5856385 41.1974368,19.6001724 36.854643,21.5702762 C33.029425,23.3055086 30.332071,32.2614864 30.4516866,36.4630768 C26.5935639,27.4729245 30.5218418,14.8207236 37.0680059,10.3341393 C42.1642956,6.84151293 48.7853747,3.6092336 54.9577916,7.27956694 C57.279122,8.66000662 60.5726918,8.0173203 62.3586489,10.0443815 C62.985493,10.755831 63.4393289,11.67067 63.3971116,12.6182336 C63.3130909,14.5027978 61.4263503,15.7417761 59.6908884,16.4782868 C56.6572446,17.7659377 52.5733422,18.0211068 52.5733422,18.0211068" id="Fill-82" stroke="none" fill="#012942" fill-rule="evenodd" mask="url(#mask-4)"></path>
                        <path d="M54.5256024,18.3882437 C55.9669919,20.4751619 57.1194826,22.7484862 57.839867,25.1810839 C58.5509387,27.5830283 59.1318404,30.0408944 59.6550037,32.4906829 C60.186031,34.9763028 60.2129342,37.4733142 60.1055285,40.0192054 C59.9987435,42.5495627 59.6115447,45.0637649 59.6076127,47.5993001 C59.6055432,48.9515718 59.6630746,50.318756 60.0426164,51.6192482 C60.675048,53.786321 59.8640207,55.2866819 58.2492092,57.2004497 C56.9539246,58.7356064 55.891456,60.3241994 55.0220695,61.9161063 L63.3997191,59.4449846 L68.2472579,37.2581189 C68.2472579,37.2581189 72.2378271,41.1846569 75.2089727,37.5571969 C75.2089727,28.4682495 73.1556393,28.2085238 73.1556393,28.2045886 L73.1196305,28.1925758 C73.1196305,28.1925758 73.1194235,27.3108756 73.1150776,27.0412083 C73.0625129,23.7488648 72.6221286,20.4695697 71.2032964,17.4667769 C70.5257502,16.0331079 69.6888544,14.6822861 68.8273319,13.3538329 C67.9358019,11.9787783 67.0461345,10.5857044 65.9712491,9.34424076 C63.9487509,7.00878121 61.144612,5.29881721 58.4898891,3.76863141 C57.2140576,3.03315634 55.8813156,2.37203654 54.4960089,1.89400881 L52.4352254,9.93659748 C52.6318256,9.64683977 52.7450259,9.48342388 52.7315743,9.51821966 C52.4116334,10.3506258 52.6326534,10.7197096 52.1852328,11.4858381 C52.4505395,13.8351745 53.2023799,16.4726118 54.5256024,18.3882437" id="Fill-83" stroke="none" fill="#012942" fill-rule="evenodd" mask="url(#mask-4)"></path>
                        <path d="M53.9081951,7.47545889 C53.6596511,7.55830598 52.2515802,10.5428725 54.5708411,15.434372 C56.8903089,20.3256643 63.1030806,26.2947974 61.1149357,41.21763 C60.1209667,49.5081386 60.2865248,52.6583993 60.2865248,52.6583993 C60.2865248,52.6583993 57.5529549,43.9534481 59.4583208,35.6629395 C59.7066578,29.0306155 56.4379217,21.6414833 53.4940931,17.1751965 C49.523184,11.1515915 53.9081951,7.47545889 53.9081951,7.47545889" id="Fill-84" stroke="none" fill="#1D3650" fill-rule="evenodd" mask="url(#mask-4)"></path>
                        <path d="M32.0260399,64.18767 C32.0260399,64.18767 26.9007775,61.5050811 25.66468,49.9162227 C24.4283755,38.3273642 28.9276216,32.3735579 28.9276216,32.3735579 L32.0260399,64.18767 Z" id="Fill-85" stroke="none" fill="#012942" fill-rule="evenodd" mask="url(#mask-4)"></path>
                        <path d="M53.9081951,7.47545889 C56.3290673,6.97009162 59.0731914,8.38449861 61.0942409,9.81112555 C63.1150835,11.2377525 64.6367687,13.2743412 65.8389268,15.4372716 C68.4102498,20.0640747 69.6289638,25.6991268 67.948136,30.7192464 C69.5002424,30.083395 71.351388,31.0773529 72.1762809,32.5385685 C73.0011737,33.9997842 73.0233171,35.7749902 72.8612772,37.4453947 C72.5866578,40.2762799 71.8437162,43.0586995 70.6984686,45.6619623 C72.9742705,46.2866294 74.912541,48.0850327 75.6314767,50.3345383 C76.3502055,52.5842511 75.7912402,55.2150606 74.1621493,56.923989 C72.8213363,58.3303184 70.9331471,59.0428034 69.1409815,59.7925696 C66.3987199,60.9400018 63.7336497,62.2728044 61.1701907,63.7785503 C59.0574634,65.0195998 56.9418389,66.4516118 55.6947731,68.5617273 C53.8475595,71.6873409 54.2697324,75.6006234 54.7504715,79.1997082 C52.4233466,77.4176672 52.3966504,73.933947 52.9783799,71.0595671 C53.2871456,69.534145 53.7140783,68.0099656 54.5122749,66.6742634 C57.0188234,62.479715 62.340065,61.1873004 66.7039675,58.9937165 C68.239932,58.2215816 69.7353348,57.2700827 70.7731766,55.8987562 C71.8110185,54.5274297 72.3265248,52.6675125 71.757833,51.0441237 C71.0206859,48.9402218 68.610782,47.402994 68.811935,45.1824848 C68.8916098,44.30327 69.3886977,43.527407 69.8129401,42.7532009 C70.921765,40.7288322 71.6020015,38.2626813 70.7458596,36.1190128 C70.1616467,34.6561402 68.8667761,33.4971094 67.3492299,33.0787316 C66.8562809,32.9426552 66.2739305,32.8310188 66.0402868,32.3759811 C65.8921123,32.0874661 65.9349505,31.7428222 65.9744775,31.4209613 C65.9744775,31.4209613 65.3583947,7.48767883 53.9081951,7.47545889" id="Fill-86" stroke="none" fill="#00B1B2" fill-rule="evenodd" mask="url(#mask-4)"></path>
                        <path d="M71.5438906,146.100952 C70.4654871,143.827835 68.1890643,142.585128 66.2563814,141.018076 C65.7642602,140.704085 65.2557901,140.415363 64.7311781,140.153359 C63.1596186,139.367762 61.4458862,138.819728 59.6350953,138.549025 C59.2356866,138.441945 58.8344154,138.353299 58.4323163,138.276251 C56.8243341,137.968681 55.2035211,137.84876 53.6524494,137.488789 C52.9680739,137.398693 52.2818359,137.321853 51.5943562,137.258475 C45.4064183,136.688901 39.1127302,137.218087 33.1116659,138.833812 C32.5055166,138.997021 31.9024715,139.171414 31.3025307,139.354506 C29.7882956,139.803951 27.8736171,140.059328 26.7757605,141.319846 C25.6433437,142.619924 25.823388,144.453952 27.3589387,145.200404 C31.70732,147.313833 37.484881,146.511666 42.1176083,146.21176 C48.3630776,145.807259 54.675184,145.687959 60.8389091,146.774085 C63.1012594,147.172786 65.3348441,147.733247 67.5177265,148.448839 C69.3947406,149.064392 71.3230776,150.033289 72.1045115,147.465651 C72.0291826,147.006678 71.8100251,146.531757 71.5438906,146.100952" id="Fill-87" stroke="none" fill="#161C23" fill-rule="evenodd" mask="url(#mask-4)"></path>
                        <path d="M42.6651086,95.7787992 C42.7180872,95.7404824 42.7712727,95.7023727 42.8242513,95.6642631 C43.0380281,95.5095461 42.8317014,95.1499898 42.6152343,95.3065708 C42.4124257,95.453003 42.2087894,95.5998495 42.0039113,95.7456604 C41.9099571,95.7473173 41.8170377,95.7506312 41.7278433,95.7578803 C41.5577324,95.7715501 41.4981316,95.9476001 41.5471781,96.0658644 C40.5453452,96.7561878 39.496949,97.384583 38.3260399,97.7323336 C37.6379394,97.9365517 35.719122,97.9601631 35.3813836,98.7424468 C35.0823444,99.4352556 36.0670007,99.9667197 36.5535344,100.145669 C37.7569342,100.588073 39.0402158,100.258963 40.2591367,100.087262 C41.2458625,99.9484934 42.1001419,99.9826678 43.0508588,100.31592 C43.598442,100.507711 44.1654782,100.775307 44.7635565,100.70323 C45.6093511,100.601121 46.1979098,99.902099 46.2989002,99.073421 C46.5414427,97.0794986 44.4469268,95.9815675 42.6651086,95.7787992" id="Fill-88" stroke="none" fill="#161C23" fill-rule="evenodd" mask="url(#mask-4)"></path>
                        <path d="M68.8119557,45.1825262 C68.7842247,45.4871964 68.8074028,45.7788181 68.8670037,46.0609125 C69.496952,45.9310497 70.3659246,45.729317 70.6986962,45.6615895 C70.8756364,45.2593669 71.0393319,44.851552 71.1968189,44.4414589 L69.5327539,43.2567455 C69.1935669,43.8677428 68.8744538,44.4932384 68.8119557,45.1825262" id="Fill-93" stroke="none" fill="#009BA6" fill-rule="evenodd" mask="url(#mask-4)"></path>
                        <path d="M65.9744568,31.4209198 C65.9349298,31.7427808 65.8920916,32.0876318 66.0402661,32.3759397 C66.0822764,32.4579583 66.13898,32.5254787 66.2010643,32.5874069 L67.921626,30.8080585 C67.921626,30.8080585 67.9721212,30.7593858 68.047864,30.6852377 C68.0147524,30.6970434 67.98102,30.7057423 67.9481153,30.719205 C68.154442,30.1032368 68.3164819,29.4777413 68.438374,28.8462393 L65.882986,29.7488584 C65.9581079,30.7948029 65.9744568,31.4209198 65.9744568,31.4209198" id="Fill-94" stroke="none" fill="#009BA6" fill-rule="evenodd" mask="url(#mask-4)"></path>
                        <path d="M8.29464302,143.721376 C8.23586992,143.665869 8.1495728,143.641015 8.05851589,143.691966 C6.93830894,144.318911 5.58238877,144.798181 4.60994235,145.654406 C4.46466519,145.782405 4.59111013,145.995736 4.75625425,146.007956 C5.55113969,146.067606 6.32181227,145.569281 7.0008071,145.22153 C7.41884109,145.007163 7.83542646,144.792382 8.25594383,144.585057 C8.45233703,144.488126 8.65762897,144.362406 8.69756984,144.120492 C8.75220399,143.789104 8.53428825,143.692173 8.29464302,143.721376" id="Fill-95" stroke="none" fill="#00B1B2" fill-rule="evenodd" mask="url(#mask-4)"></path>
                        <path d="M7.43982557,138.08854 C7.4164405,138.109666 7.39491796,138.131621 7.37173984,138.152954 C7.3411116,138.152125 7.30924169,138.157096 7.27633703,138.172009 C7.22253067,138.196449 7.17576053,138.227931 7.1320946,138.262726 C6.55015817,138.499876 5.99698744,139.034654 5.50610791,139.376398 C5.22569401,139.571296 4.96969993,139.791877 4.70770436,140.010179 C4.55787435,140.135278 4.35113378,140.252921 4.30808869,140.458174 C4.28822173,140.553241 4.32919734,140.642509 4.40038729,140.688075 C4.437017,140.773615 4.5206238,140.840928 4.63692831,140.816281 C5.21058684,140.694288 5.75837694,140.117673 6.20910865,139.769301 C6.44813304,139.584759 6.69233112,139.404566 6.92494013,139.21174 C7.28833999,138.956985 7.66953732,138.642373 7.78563489,138.290066 C7.85434146,138.08212 7.58427494,137.958885 7.43982557,138.08854" id="Fill-96" stroke="none" fill="#00B1B2" fill-rule="evenodd" mask="url(#mask-4)"></path>
                    </g>
                </g>
            </g>
        </g>
    </g>
</svg>