<?xml version="1.0" encoding="UTF-8" standalone="no"?>
<svg width="158px" height="149px" viewBox="0 0 158 149" version="1.1" xmlns="http://www.w3.org/2000/svg" xmlns:xlink="http://www.w3.org/1999/xlink">
    <!-- Generator: sketchtool 40.3 (33839) - http://www.bohemiancoding.com/sketch -->
    <title>welcome-notice</title>
    <desc>Created with sketchtool.</desc>
    <defs>
        <rect id="path-1" x="0" y="0" width="160" height="149"></rect>
    </defs>
    <g id="Plugin" stroke="none" stroke-width="1" fill="none" fill-rule="evenodd">
        <g id="Artwork" transform="translate(-220.000000, -246.000000)">
            <g id="welcome-notice" transform="translate(220.000000, 246.000000)">
                <mask id="mask-2" fill="white">
                    <use xlink:href="#path-1"></use>
                </mask>
                <g id="Mask"></g>
                <g id="Smush" mask="url(#mask-2)">
                    <path d="M64.4713366,86.7602469 C57.6459707,85.8237531 50.4152715,84.9378523 44.0987837,87.6936113 C37.2442797,90.6838197 32.8524748,97.3287272 28.3490602,103.309666 C19.8625561,114.580451 9.73858862,124.526167 1.14932033,135.718455 C0.461450407,136.614787 -0.255037398,137.717664 0.0891577236,138.794723 C0.353482927,139.621686 1.16050732,140.129703 1.90899512,140.567047 C4.08811707,141.84048 6.38509268,143.149381 8.90606829,143.230225 C11.4567024,143.312374 13.865548,142.121611 16.0665236,140.827314 C20.8519545,138.013138 25.2622309,134.558725 29.1438569,130.58482 C34.8359545,124.757226 39.6957919,117.596477 47.1762472,114.388771 C51.2631415,112.636268 56.0423285,112.113646 59.3141333,109.097098 C61.755239,106.846488 62.9314341,103.571759 64.0215154,100.431596 C65.668865,95.6862771 67.2753691,90.2610805 64.8914992,85.8409652" id="Fill-3" fill="#345468"></path>
                    <path d="M41.1817626,118.101887 C41.179161,118.089369 44.2979902,115.73001 44.2953886,115.717492 C44.8765919,113.132289 45.5324618,110.564298 46.2590959,108.015606 C46.6485593,106.64881 42.9737626,107.503416 41.8750959,106.652461 C40.7147707,105.753781 39.2547382,105.722487 37.9643317,106.376546 C35.8424455,107.45178 34.3756488,109.147431 33.2434211,111.102567 C27.1579577,115.160185 21.0724943,119.217543 14.9870309,123.275161 C13.4557138,124.296412 12.6520715,126.438012 13.7239415,128.104715 C14.7083967,129.635287 16.9013073,130.464596 18.5416325,129.370847 C19.3512585,128.831013 20.1608846,128.29118 20.9705106,127.751346 C19.3426732,129.769072 17.7921041,131.846257 16.4189659,134.044449 C14.8468033,136.560804 13.5629008,139.258407 12.6114862,142.071018 C12.5550309,142.237662 12.5175675,142.411347 12.4951935,142.588423 C13.7348683,142.136215 14.9287545,141.496499 16.0664455,140.827314 C20.8518764,138.013138 25.262413,134.558725 29.1437789,130.58482 C33.1656325,126.46722 36.7730472,121.685912 41.1817626,118.101887" id="Fill-5" fill="#161C23"></path>
                    <path d="M66.865665,63.6501818 C66.865665,63.6501818 66.3461203,73.7599339 65.544039,77.7638297 C64.7422179,81.7679863 60.0980553,86.4055998 58.566478,86.9506491 C57.0349008,87.4959592 50.2238439,93.6737933 49.1857951,97.4521065 C48.1474862,101.23042 47.3755837,107.189191 51.0683317,123.683322 C54.7608195,140.177714 52.4882992,151.854288 47.7348683,161.429683 C42.9811772,171.005078 32.3595187,180.898636 28.8051772,191.578995 C25.2508358,202.259354 66.865665,219.129804 66.865665,219.129804 L110.259746,197.966764 C110.259746,197.966764 105.367389,175.692242 104.29812,166.047476 C103.228852,156.402711 104.173242,139.82278 115.615714,118.997984 C117.436852,107.096611 118.811031,81.8131028 115.615714,81.439392 C112.420137,81.0656811 97.6683967,78.5250732 93.8393236,73.8819832 C92.0644943,71.1533464 92.5733724,59.9545387 92.5733724,59.9545387 L66.865665,63.6501818 Z" id="Fill-7" fill="#345468"></path>
                    <path d="M61.417678,128.183787 C59.9144585,128.700671 65.5165398,120.372891 64.2854504,121.240276 C64.1384585,121.305473 60.9574504,123.616586 60.9059382,123.641101 C60.6730927,123.735245 58.7843122,124.168938 58.5493854,124.257606 C57.9973203,124.464933 57.2821333,123.506533 56.7188813,123.681001 C56.0304911,123.894066 51.7698081,123.520616 51.0681496,123.683348 C52.4909789,135.991292 51.6613203,153.520235 47.7346862,161.429709 C45.5969301,165.73612 42.272052,170.107468 38.9370276,174.585218 C39.1867837,175.37906 39.7006049,176.080583 40.473548,176.490022 C42.1346862,177.369663 44.3309789,176.944838 45.291239,175.22363 C48.5169951,169.442195 51.0850602,163.250539 52.8429789,156.86303 C53.6937106,153.771636 54.2707512,150.618434 55.031987,147.505394 C55.4263935,145.892413 55.8788163,144.291168 56.4652228,142.736864 C56.5385886,142.542577 56.9626537,141.573223 56.6699707,142.207984 C56.8068163,141.911467 56.9410602,141.614428 57.0867512,141.321823 C57.379174,140.734265 57.6983935,140.160007 58.0451902,139.602961 C58.243174,139.284538 58.4502634,138.971851 58.6669789,138.665424 C58.6883122,138.635173 58.7429463,138.559544 58.795239,138.487044 C58.8608,138.404114 58.9461333,138.295104 58.9685073,138.267982 C59.4427837,137.698418 59.9537431,137.160149 60.5037268,136.663607 C60.5945236,136.581719 60.6889626,136.503482 60.7818407,136.423681 C61.9273366,135.892714 63.0468163,135.299158 64.1309138,134.635189 C65.6338732,133.715125 66.255922,131.852568 65.5716943,130.227591 C64.9283122,128.699106 63.086361,127.610051 61.417678,128.183787" id="Fill-9" fill="#161C23"></path>
                    <path d="M106.59598,127.871466 C105.962745,128.707295 105.376598,129.567638 104.828956,130.446498 C104.122094,130.960774 103.670452,131.809382 103.531005,132.704149 C102.393834,134.864527 101.480663,137.127394 100.751948,139.45598 C100.580761,139.379048 100.401249,139.317501 100.214192,139.274732 C98.5468098,138.89398 97.2397528,139.596285 96.2376065,140.896841 C96.0102244,141.192054 95.7935089,141.493265 95.5864195,141.799693 C95.158452,141.400685 94.6732488,141.116686 94.1604683,140.956822 C94.1516228,140.605539 94.1466797,140.253995 94.1498016,139.902191 C94.1659317,138.055543 92.5185821,136.287653 90.6285008,136.37241 C88.7069398,136.458731 87.1246309,137.923062 87.1072,139.902191 C87.0830049,142.67777 87.4823545,145.431703 87.9855089,148.160079 C87.905639,148.686352 87.8325333,149.210016 87.7518829,149.721685 L86.342322,158.653713 C85.3932488,164.669336 84.4441756,170.684959 83.4951024,176.700322 C83.2175089,178.459866 83.7989724,180.130482 85.5339967,180.864603 C87.2835902,181.604462 88.8406634,180.835134 89.9310049,179.420353 C90.2663545,178.985357 90.5881756,178.54045 90.8988098,178.088242 C91.0112,178.53054 91.1381593,178.971795 91.2841106,179.411486 C91.7578667,180.838785 93.088078,182.074404 94.6797528,182.002948 C96.2035252,181.934621 97.6932163,180.961095 98.075135,179.411486 C98.5886959,177.327781 98.8485984,175.238338 98.9591675,173.144201 C99.0619317,173.516608 99.1670374,173.888493 99.2765659,174.259336 C99.7771187,175.951075 101.400793,177.021875 103.140241,176.787686 C104.127558,176.654684 105.114875,176.033745 105.691915,175.166882 C105.077932,171.698647 104.567233,168.473468 104.298224,166.047607 C103.366582,157.646024 103.964436,143.981194 111.697249,126.833003 C111.479753,126.672879 111.245346,126.533878 110.992989,126.427215 C109.253281,125.691268 107.674094,126.4486 106.59598,127.871466" id="Fill-11" fill="#161C23"></path>
                    <path d="M16.5394472,135.286197 C19.2638699,137.067647 20.8212033,140.156956 22.0044228,143.193845 C23.1879024,146.230996 24.1601301,149.431139 26.1717073,151.993654 C28.8157398,155.361745 32.9205854,157.204221 36.955187,158.623435 C40.9897886,160.04265 45.2049431,161.20603 48.7002276,163.674921 C45.8579512,166.119819 42.979252,168.522731 40.0654309,170.881829 C39.5492683,171.299874 39.011252,171.727308 38.3694309,171.897081 C37.648,172.087979 36.8854634,171.929941 36.1562276,171.771642 C28.6578211,170.1451 20.7402927,168.300538 15.2316098,162.947841 C13.2244553,160.997399 11.6346016,158.662554 10.116813,156.309453 C6.58484553,150.833663 3.35986992,145.158891 0.462439024,139.320866 C0.277203252,138.947416 0.0885853659,138.522329 0.222569106,138.127234 C0.35603252,137.732399 0.763186992,137.509946 1.13990244,137.333652 C5.8504065,135.129723 11.1964878,134.311888 16.3484878,135.007674" id="Fill-24" fill="#00879F"></path>
                    <path d="M36.955213,158.623435 C32.9206114,157.204221 28.8157659,155.361745 26.1717333,151.993654 C24.1601561,149.431139 23.1879285,146.230996 22.0044488,143.193845 C21.3774569,141.584515 20.6427577,139.962146 19.6877008,138.525719 C20.6838634,137.844017 21.6579122,137.129976 22.6134894,136.391943 C21.7276358,120.815528 27.8370341,104.925645 39.0326114,94.0653422 C41.4508228,91.7198046 44.1234732,89.5776825 47.1939122,88.1981079 C50.500839,86.7123921 54.1004488,86.1762096 57.7427252,85.9879199 C53.0488715,85.6332466 48.3651642,85.8322287 44.0987577,87.6934809 C37.2442537,90.6839501 32.8524488,97.3285968 28.348774,103.309535 C19.8625301,114.580321 9.7385626,124.526297 1.14929431,135.718585 C0.46142439,136.614917 -0.255063415,137.717534 0.0891317073,138.794593 C0.194497561,139.124491 0.387278049,139.403275 0.62740813,139.647374 C3.48269268,145.370131 6.65095285,150.936154 10.1165789,156.309192 C11.6346276,158.662554 13.2244813,160.997399 15.2316358,162.947841 C20.7403187,168.300538 27.7340098,170.357904 35.2326764,171.984446 C35.9619122,172.142745 38.6821724,172.760033 39.4036033,172.569135 C40.0454244,172.399361 39.5492943,171.299874 40.0654569,170.881829 C42.9790179,168.52247 45.8577171,166.119819 48.7002537,163.674921 C45.2047089,161.20603 40.9898146,160.04265 36.955213,158.623435" id="Fill-26" fill="#00CABC"></path>
                    <path d="M113.714914,111.151361 C121.657158,114.490766 127.56545,121.319269 132.664637,128.276602 C137.764085,135.233935 140.420605,143.039093 147.10106,148.488282 C147.423141,148.751158 149.803109,148.640583 150.189971,148.792102 C150.897613,149.069581 151.690849,148.947271 152.440377,148.82131 C154.313808,148.506016 156.722393,148.804359 156.706784,146.900337 C156.7008,146.180559 158.134556,144.864617 156.490328,141.782611 C154.949646,138.893849 152.490849,134.023612 151.070621,131.073304 C145.538003,119.580066 142.106979,111.272627 136.727337,99.7066287 C135.258459,96.5487329 131.663011,91.0113969 129.417808,88.3516084 C123.679922,81.5551824 116.202849,80.9882268 107.364085,81.8668254 C108.173971,87.6094025 108.984117,93.3517187 109.794003,99.094035 C110.280767,102.544275 110.868735,106.219316 113.207076,108.797738 C113.806751,109.458839 114.479272,110.593793 113.721938,111.064518" id="Fill-28" fill="#345468"></path>
                    <path d="M55.088052,93.7885666 C55.088052,93.7885666 37.5783285,110.79567 44.7177106,121.325032 C51.8570927,131.854133 66.8487024,128.062259 76.841548,121.644238 C81.1066537,118.904648 86.5125724,96.327349 86.5125724,96.327349 C86.5125724,96.327349 60.5371577,87.4738182 55.088052,93.7885666" id="Fill-30" fill="#345468"></path>
                    <path d="M64.8916033,85.840913 L64.4714407,86.7601948 C62.2561561,86.4563754 59.9982049,86.1585542 57.7428553,85.9879981 C54.1003187,86.1762879 50.5009691,86.7124703 47.1940423,88.1981861 C44.1233431,89.5777607 41.4506927,91.719622 39.0324813,94.0654204 C38.8292943,94.262577 38.6313106,94.4649494 38.4312455,94.6654962 C39.351961,97.7300295 40.9485789,100.614358 42.7858472,103.23894 C45.1897496,106.673011 49.0523837,111.387557 51.7229528,114.63699 C53.7397333,113.998057 54.5876033,111.959729 56.4253919,111.043316 C58.4317659,107.133565 61.4173919,103.701319 64.1236033,100.135549 C65.7334894,95.4616855 67.2260423,90.1694913 64.8916033,85.840913" id="Fill-32" fill="#161C23"></path>
                    <path d="M78.7119089,122.763832 C78.7119089,122.763832 83.9364943,130.007511 101.900202,128.698871 C119.864169,127.390492 117.5456,110.428505 117.531031,102.620478 C117.516202,94.8124509 114.579486,91.4686125 115.615714,81.4394441 C101.207649,83.5476636 91.8040715,80.7311408 87.1981528,85.596684 C82.5924943,90.4622271 78.7028033,87.422208 78.7119089,122.763832" id="Fill-34" fill="#00ADB9"></path>
                    <path d="M62.7585821,68.9321269 C62.6061268,69.4203242 86.3769236,67.6680819 97.9929236,70.2944895 C102.490094,78.8835801 107.076761,87.7723174 107.858029,97.4408144 C108.208728,101.780867 107.773997,106.154823 106.969834,110.433591 C106.197932,114.54102 105.055037,118.653925 102.813476,122.178491 C100.044566,126.532366 95.7794602,129.718166 92.6752,133.838634 C90.6984846,136.462695 89.2212813,139.428389 87.9014764,142.438678 C83.3775089,152.758887 80.5805008,163.83721 79.6626472,175.072007 L68.8476878,175.974859 C71.2612163,162.452941 67.2789073,148.697618 63.3379642,135.541327 C62.9778992,134.33935 62.6043057,133.109989 61.8565984,132.103343 C60.9785496,130.921186 59.6691512,130.15577 58.5129886,129.245094 C52.9767285,124.885482 51.0811837,117.127526 51.8333138,110.110994 C52.5857041,103.094202 55.5533789,96.5436997 58.191948,90.0010215 C60.8307772,83.4586041 63.2110049,76.5510819 62.6940618,69.5131652 L62.7585821,68.9321269 Z" id="Fill-36" fill="#00CABC"></path>
                    <path d="M68.6254829,83.5292519 C68.2055805,83.0256681 67.7716293,82.5327766 67.3741008,82.0344085 C66.6552715,81.1331212 66.0985236,80.3648364 64.8637919,80.3927408 C63.6995642,80.4190805 62.5046374,80.6749147 61.3755317,80.9390941 C61.3713691,80.9401372 61.3672065,80.9411804 61.3627837,80.9422236 C60.5198569,84.0218826 59.3829463,87.0486015 58.191922,90.0012562 C55.5533528,96.5436736 52.585678,103.094175 51.833548,110.110968 C51.6738081,111.599292 51.6347837,113.121257 51.7229789,114.636964 C52.4441496,115.516345 53.1627187,116.396248 53.8727024,117.280062 C53.9986211,117.436536 54.3045724,117.354648 54.3373528,117.15723 C55.8473366,108.086723 63.7867187,102.144121 67.940735,94.374951 C68.9355967,92.5142205 69.7233691,90.5293543 70.1240195,88.4519079 C70.1276618,88.4323487 70.1313041,88.4130503 70.1349463,88.3934911 C69.729613,86.5734436 69.1915967,84.9398604 68.6254829,83.5292519" id="Fill-38" fill="#00B1B2"></path>
                    <path d="M141.408,139.290979 C141.364293,137.352012 143.390439,135.878814 145.324228,135.818572 C147.258276,135.758329 149.065106,136.71021 150.745496,137.671218 C152.401171,138.618404 154.056846,139.616444 155.393821,140.978807 C156.730537,142.341169 157.734764,144.12262 157.805268,146.032379 C157.867967,147.726726 157.205073,149.356658 156.494309,150.895314 C152.75265,158.995946 147.394341,166.228673 143.066797,174.030963 C140.662114,178.366843 138.578732,182.873019 136.497951,187.374239 C135.320976,189.920845 134.14374,192.467712 132.966504,195.014318 C132.38322,196.276016 131.783545,197.562228 130.828748,198.570961 C129.113756,200.382924 126.538667,201.028377 124.111089,201.591681 C123.690407,201.689217 123.245789,201.786491 122.833171,201.658704 C122.361236,201.512662 122.025626,201.103484 121.725138,200.710475 C119.644358,197.987575 117.850537,195.044831 116.382959,191.946395 C118.355512,191.062319 120.369691,190.150601 121.934309,188.6568 C123.462764,187.197946 124.461268,185.278277 125.357528,183.362781 C131.060033,171.176625 133.74439,157.655751 140.312715,145.915545 C140.839805,144.973836 141.398114,144.026649 141.635902,142.973322 C141.873431,141.919995 141.737106,140.717496 141.006049,139.924436 L141.408,139.290979 Z" id="Fill-44" fill="#161C23"></path>
                    <path d="M65.5441431,77.763934 C65.5441431,77.763934 71.0450211,84.9958779 70.8413138,95.3369501 C70.6378667,105.678283 69.1445333,103.433149 76.5425171,123.095086 C79.8005333,109.760416 85.1622244,98.7386837 86.2481431,89.6900826 C87.3340618,80.6414815 90.8553626,74.3163015 93.1671675,72.0701245 C92.5209236,61.7892947 92.5732163,59.9543822 92.5732163,59.9543822 L66.8657691,63.6502861 C66.8657691,63.6502861 66.168013,75.8747774 65.5441431,77.763934" id="Fill-46" fill="#C68657"></path>
                    <path d="M78.5630439,115.050289 C78.526361,115.072717 78.489678,115.095405 78.4529951,115.117833 C78.3965398,115.092537 78.334361,115.083148 78.2771252,115.095666 C78.2724423,114.971009 78.1579707,114.870344 78.0330927,114.846873 C78.1077593,114.769158 78.183987,114.692747 78.2630764,114.617379 C78.4956618,114.395708 78.1990764,114.028778 77.9261659,114.179775 C77.8824585,114.204028 77.6332228,114.358937 77.4071415,114.49559 C76.9963447,111.073515 76.8147512,107.553905 76.8784911,104.014996 C76.8839545,103.703353 76.6708813,103.663191 76.6107837,103.893207 C76.571239,103.835051 76.5179057,103.815231 76.4619707,103.875995 C75.8524098,104.541529 75.9335805,106.178763 75.8828488,107.35075 C75.7946537,109.374213 75.6380358,111.385158 75.4153366,113.367938 C75.348735,113.961755 75.2753691,114.552181 75.1970602,115.139739 C75.0115642,116.073625 74.8169626,117.001252 74.619239,117.926793 C74.9941333,118.949869 75.4020683,120.050138 75.8469463,121.24038 C75.9861333,121.079734 76.1250602,120.917784 76.2660683,120.763657 C76.3435967,120.902136 76.5400195,120.961596 76.7018407,120.831984 C76.8027837,120.75114 76.9013854,120.668469 76.999987,120.58606 C76.9867187,120.6124 76.9718894,120.637957 76.9586211,120.664558 C76.8868163,120.81086 76.9534179,120.968116 77.0660683,121.043484 C77.609548,118.985336 78.1962146,116.983779 78.8026537,115.037771 C78.7285073,115.005433 78.6423935,115.001521 78.5630439,115.050289" id="Fill-48" fill="#BB6D35"></path>
                    <path d="M95.4457496,61.3227429 C95.4036033,61.2935345 95.3557333,61.2666732 95.3016195,61.2426806 C94.7388878,60.9938878 96.9239935,53.3762367 96.3721886,53.5598323 C94.6777496,54.1231369 89.6782049,62.9451122 87.9837659,63.5084168 C85.593652,64.3033021 83.1933919,65.1005345 80.7145626,65.5438761 C78.2354732,65.9872176 75.6567415,66.0670191 73.2197984,65.431476 C71.3284163,64.9383237 68.8521886,60.1199834 67.2339772,59.0364044 C66.4186276,58.490312 66.4071805,61.7225327 65.5897496,61.1879149 C63.9736195,60.1309365 65.7593756,62.032611 65.7406439,62.2584544 C65.5998959,63.9488896 65.8545951,65.5931652 66.5081236,67.1615512 C66.5372618,67.2317035 66.5807089,67.2875123 66.6317008,67.3294994 C66.5874732,67.9752133 66.5385626,68.6699556 66.4852293,69.3860826 C66.4909528,69.3944279 66.4956358,69.4032947 66.5018797,69.41164 C68.0248715,71.4304088 68.7803837,73.8534007 68.5548228,76.3874889 C68.435148,77.7302922 67.9083187,78.9672152 67.4702049,80.2270875 C67.4171317,80.3796492 67.367961,80.5329932 67.3203512,80.686598 C68.9081236,83.7271387 70.9675707,88.9358804 70.8413919,95.3369501 C70.6944,102.800475 69.8764488,103.709325 72.2132293,111.027851 C72.2652618,109.146518 72.4328065,107.262055 72.5420748,105.406019 C72.8532293,100.127908 72.4354081,94.863357 71.2183675,89.7568446 C71.1090992,89.2313545 70.9852618,88.7079507 70.8458146,88.1861116 C70.4589528,86.7376887 69.977652,85.2759655 69.9651642,83.7628668 C69.9529366,82.2468995 70.6075057,80.8926215 71.0778797,79.4827953 C71.5045463,78.2036245 71.7386927,76.8516936 71.7441561,75.5013274 C71.7467577,74.8357935 71.6957659,74.1694772 71.5948228,73.510463 C72.835278,74.5554451 74.076774,75.7905425 75.4785301,76.5867318 C76.9606764,77.4285592 78.5065626,77.2942528 80.1354407,77.105963 C81.8780098,76.9046338 83.6328065,76.7033046 85.3608065,76.3971381 C87.1577496,76.0787145 88.2663024,75.1336147 89.5117008,73.8768718 C90.6936195,72.6840222 91.8755382,71.4911726 93.0574569,70.2983231 C92.9593756,68.6840382 92.8810667,67.315156 92.8183675,66.152558 C93.0590179,65.7170401 93.3259447,65.295344 93.6212293,64.8903385 C94.0244813,64.3379871 94.4808065,63.8325777 94.9670504,63.3532472 C95.2407415,63.0833305 95.4962211,62.8937367 95.5654244,62.4983804 C95.6099122,62.244111 95.4145301,62.0706862 95.1858472,62.0258305 C95.7319285,61.9762805 95.8006114,61.5691887 95.4457496,61.3227429" id="Fill-50" fill="#BB6D35"></path>
                    <path id="Fill-52" fill="#BB6D35"></path>
                    <path d="M57.0045138,127.883358 C57.1608715,128.017142 58.350335,129.117151 58.5129366,129.245199 C58.9065626,129.555277 59.3176195,129.848665 59.7237333,130.147268 C65.4673431,128.678243 71.1901398,125.034497 75.5538472,120.963839 C75.6001561,120.920809 75.6454244,120.870998 75.6906927,120.821709 C75.3740748,119.973101 65.1382374,127.905003 57.0045138,127.883358" id="Fill-62" fill="#00B1B2"></path>
                    <path d="M44.0987057,87.6935591 C41.7431935,88.7210684 39.6785431,90.1804445 37.8001691,91.8959155 C37.9422179,92.8342348 38.1560715,93.7587324 38.4292423,94.6675826 C38.6298276,94.4662533 38.8285919,94.2633594 39.0325593,94.0654204 C41.4507707,91.719622 44.1234211,89.5777607 47.1941203,88.1981861 C50.500787,86.7124703 54.1003967,86.1762879 57.7429333,85.9879981 C53.0488195,85.6330641 48.3653724,85.832307 44.0987057,87.6935591" id="Fill-64" fill="#00B1B2"></path>
                    <path d="M107.580462,106.569947 L107.350998,106.336019 L76.5362992,123.095112 C75.1936,123.922857 69.3056,134.697622 78.7994537,145.472647 C80.558413,147.469249 82.5816976,149.19463 84.7100878,150.68191 C85.6542179,147.889641 86.7182829,145.138054 87.9015024,142.438626 C89.2213073,139.428337 90.6985106,136.462643 92.675226,133.838843 C95.7794862,129.718374 100.044592,126.532313 102.813502,122.178439 C105.055063,118.654134 106.197698,114.541228 106.96986,110.433538 C107.210511,109.153064 107.41708,107.863983 107.580462,106.569947" id="Fill-66" fill="#00B1B2"></path>
                    <path d="M132.664663,128.276523 C137.764111,135.233856 140.420631,143.039276 147.101086,148.488204 C147.232989,148.59591 147.709346,148.640766 148.252826,148.666845 C148.198192,148.652501 148.143037,148.637375 148.088663,148.625901 C147.847753,148.472035 147.385444,148.16952 147.535298,148.319473 C147.295948,148.103279 147.076631,147.870655 146.853411,147.635684 C146.844566,147.626557 146.83546,147.615604 146.825834,147.603607 C146.831558,147.612996 146.836501,147.620559 146.842745,147.630468 C146.8352,147.618733 146.827135,147.607519 146.81959,147.595784 C146.763655,147.52511 146.700176,147.423663 146.680403,147.387152 C146.649184,147.342036 146.618224,147.296919 146.588306,147.25102 C146.395005,146.951634 146.216013,146.643121 146.046647,146.329652 C145.657184,145.608831 145.323395,144.860105 144.988306,144.112944 C143.485867,140.760761 141.990452,137.405187 140.491395,134.051438 C139.074289,130.880764 137.813281,127.551269 136.042094,124.557409 C134.205346,121.452454 131.548306,119.005469 129.005737,116.49746 C126.053672,113.585227 123.101086,110.672734 120.149021,107.760502 C118.83468,106.463858 116.462777,106.348068 115.169249,107.760502 C114.247233,108.767148 113.930094,110.191057 114.344013,111.426676 C121.970159,114.855792 127.701021,121.504351 132.664663,128.276523" id="Fill-68" fill="#161C23"></path>
                    <path id="Fill-70" fill="#009BA6"></path>
                    <path d="M157.149841,143.46032 C157.032507,142.96795 156.826719,142.41273 156.490589,141.782402 C154.949646,138.893641 152.490849,134.023664 151.070621,131.073357 C147.4528,123.557935 144.73358,117.404615 141.780735,110.812126 C143.150491,114.933116 144.344637,119.106525 145.263011,123.356345 C146.169938,127.552182 146.802133,131.917009 145.939954,136.122235 C145.283564,139.324204 143.615662,142.436983 141.102231,144.443755 C140.862621,144.944731 140.583987,145.431103 140.312637,145.915649 C133.744572,157.655595 131.059954,171.176469 125.35745,183.362885 C124.46145,185.27812 123.462686,187.197789 121.934231,188.656905 C120.369613,190.150444 119.215792,190.58205 116.383141,191.019133 C117.850459,194.117569 119.64454,197.98768 121.72532,200.710318 C122.025548,201.103328 120.103207,204.490979 120.575402,204.637021 C120.98802,204.764546 121.694621,204.310773 122.115304,204.213238 C124.542881,203.649673 129.113678,200.383028 130.82867,198.571065 C131.783727,197.562333 132.383141,196.27612 132.966426,195.014423 C134.143662,192.467556 135.320898,189.92095 136.498133,187.374344 C138.578914,182.872862 140.662036,178.366947 143.066979,174.030806 C147.394263,166.228777 152.752572,158.99579 156.494231,150.895157 C157.204735,149.356762 157.867889,147.726569 157.80545,146.032222 C157.77215,145.136411 157.53202,144.269809 157.149841,143.46032" id="Fill-72" fill="#00CABC"></path>
                    <path d="M98.7139902,20.5115882 C98.945535,16.8725364 80.1227707,6.68585142 79.4934374,6.67202959 C78.8638439,6.68585142 60.0410797,16.8725364 60.2726244,20.5115882 C60.5044293,24.15064 60.1953561,31.5833915 60.3498927,35.5322608 C60.5044293,39.4808693 60.2177301,51.7017096 60.9901528,53.5598323 C61.8270959,55.5739069 63.5899577,57.4388101 64.9243317,59.1240296 C66.9884618,61.7308779 70.2602667,64.2665308 72.6974699,66.5340925 C75.590478,69.2259581 77.6462829,70.3434396 81.4779577,69.3375758 C85.0505106,68.3995173 87.5358439,65.5910789 89.9332423,62.9482417 C91.5655024,61.1487965 93.9714862,57.9564766 95.4616976,56.0373292 C96.3035837,54.9529679 97.5939902,55.1057904 98.1283642,53.8206215 C98.900787,51.9624988 98.4821854,39.4808693 98.636722,35.5322608 C98.7912585,31.5833915 98.4821854,24.15064 98.7139902,20.5115882" id="Fill-90" fill="#C68657"></path>
                    <path d="M68.5490211,41.721674 C65.9330862,40.5202184 64.111948,38.173116 64.6210862,35.1523953 C64.5373138,34.9030809 64.4699317,34.6545488 64.4332488,34.4088855 C64.3237203,33.6713737 64.4951675,32.9549859 65.2405333,32.4034169 C66.2125008,31.6841604 67.1511675,30.8738885 68.0968585,30.0803072 C68.7259317,29.9178355 69.4398179,29.3623546 69.6619967,28.7085562 C67.9316553,27.8547326 66.1581268,27.088534 64.3484358,26.4196099 C63.0390374,26.9868263 62.0316878,28.2714736 61.1528585,29.5642054 C61.2428748,32.0589144 61.4634927,34.5486684 61.8173138,37.0196456 C61.8435902,37.2040236 61.8711675,37.3894446 61.9031675,37.5738226 C61.9159154,37.8685143 61.9585821,38.1467763 62.027265,38.4091302 C62.811135,40.7810075 65.1525984,42.0849533 67.7641106,41.7141111 C68.0315577,41.7112424 68.2940618,41.7125464 68.5490211,41.721674" id="Fill-92" fill="#BB6D35"></path>
                    <path d="M95.7837528,38.4629049 C95.7403057,37.5717884 95.8102894,36.6240806 95.6026797,35.7522625 C95.5738016,35.6312564 95.4642732,35.5736219 95.3518829,35.5608433 C94.4951675,35.4633081 93.3481106,36.5122021 93.2456065,37.3921047 C93.2427447,37.4085344 93.2502894,37.4220954 93.2502894,37.4406115 L93.2502894,37.5214561 C93.2502894,37.5451879 93.2437854,37.5634432 93.2487285,37.5837847 C93.2138667,38.0631152 93.1277528,38.4915917 92.9341919,38.942757 C92.7622244,39.3433291 92.4999805,39.7011318 92.3826472,40.1264789 C92.1443382,40.9883871 92.5010211,41.8255202 92.7369886,42.6524826 C92.7827772,42.8133895 92.9724358,42.8947557 93.1181268,42.8084345 C93.8983545,42.3457946 95.5896715,42.2036645 95.9395902,41.2760375 C96.1989724,40.5885973 95.8196553,39.2030245 95.7837528,38.4629049" id="Fill-94" fill="#BB6D35"></path>
                    <path d="M100.876618,22.7292087 C97.5985691,23.9593511 94.414439,25.5754615 91.3736585,27.5373782 C91.3835447,27.6633394 91.4043577,27.7853887 91.44,27.8998752 C91.5201301,28.1559701 91.6450081,28.3194849 91.795122,28.4251045 C91.728,28.4637013 91.6606179,28.5033412 91.5929756,28.5455891 C91.2935285,28.7328357 91.556813,29.2935324 91.8554797,29.1065465 C92.2738211,28.8447142 92.6827967,28.6676384 93.0881301,28.581578 C93.1162276,28.5807956 93.1445854,28.5800133 93.1719024,28.5800133 C93.2166504,28.5800133 93.254374,28.5672346 93.2874146,28.546893 C93.9630569,28.4545737 94.631935,28.6238258 95.3224065,29.1065465 C96.5547967,29.9679331 97.7931707,30.9930953 98.1423089,32.8047975 C98.8026016,36.2323493 96.6182764,39.2611544 94.7386016,41.3539874 C94.3944065,41.7368258 94.2796748,42.3757592 94.3434146,43.0149535 C94.9769106,42.9408893 95.6083252,42.853525 96.2295935,42.684012 C97.5803577,42.3149954 98.9415285,41.4676914 99.601561,39.9506809 C99.9564228,39.1354541 100.07922,38.1986994 100.184846,37.2802001 C100.738211,32.4649892 100.969756,27.592144 100.876618,22.7292087" id="Fill-96" fill="#BB6D35"></path>
                    <path d="M85.1130537,39.6542158 C85.1130537,39.6542158 87.2937366,35.487066 88.7334764,34.6976573 C91.4188748,33.8461807 95.3715252,32.2136406 95.3715252,32.2136406 C95.3715252,32.2136406 96.7225496,34.5357072 95.3879154,36.9733034 C92.3049886,37.7520198 85.1130537,39.6542158 85.1130537,39.6542158" id="Fill-98" fill="#FBF6E7"></path>
                    <path d="M94.3193496,37.2457237 C94.4241951,36.6881565 94.5009431,36.1212009 94.5191545,35.4955678 C94.5345041,34.974511 94.6133333,34.4393717 94.4692033,33.9882065 C94.5066667,33.9673433 94.5394472,33.9389173 94.5589593,33.8977126 C94.6723902,33.657265 94.8053333,33.3943896 94.7241626,33.1278631 C94.6869593,33.0065961 94.5649431,32.9254907 94.4437073,32.9380086 C94.4280976,32.9278378 94.4124878,32.917667 94.3971382,32.9074962 C94.3237724,32.859511 94.2524878,32.8553384 94.1910894,32.8775055 C93.8882602,32.8621189 93.7404878,32.8910665 93.4634146,33.0308495 C93.3923902,33.0665776 93.3570081,33.1299494 93.3450407,33.1982761 C93.1866016,33.1875838 93.0076098,33.3182391 93.0539187,33.5229586 C93.1345691,33.8794574 93.3234472,34.1864062 93.408,34.546556 C93.536,35.0905622 93.5110244,35.6809888 93.5354797,36.2346442 C93.5542114,36.6545147 93.5542114,37.0516966 93.5401626,37.4465314 C93.8104715,37.3766399 94.0711545,37.3093563 94.3193496,37.2457237" id="Fill-100" fill="#DAD7D0"></path>
                    <path d="M84.9874992,39.724003 L86.8578081,39.2149426 C86.8578081,39.2149426 94.8494829,37.2326843 95.6814829,37.1202842 C96.5134829,37.007884 97.3108813,36.5525462 97.3108813,36.5525462 C97.3108813,36.5525462 96.6727024,35.8040813 95.8149463,35.9981084 C95.5441171,36.4863057 95.027174,37.0110135 94.6124748,37.0767324 C94.1980358,37.1424512 87.6866862,38.7157922 86.8042146,38.8748736 C85.9214829,39.0339549 84.9874992,39.724003 84.9874992,39.724003" id="Fill-102" fill="#00B1B2"></path>
                    <path d="M93.0294114,35.5047736 C93.1045984,36.7341337 92.171135,37.7916337 90.9449886,37.8667409 C89.7185821,37.942109 88.6636228,37.0066583 88.5884358,35.7772983 C88.571265,35.4940813 88.6074276,35.2199919 88.6883382,34.9652009 C89.0986146,34.5249888 91.8305821,33.6208328 92.1448585,33.8578901 C92.6477528,34.2368168 92.9880455,34.8259395 93.0294114,35.5047736" id="Fill-104" fill="#000000"></path>
                    <path d="M90.2761366,35.8028295 C90.2761366,35.8028295 91.0082341,36.2237432 91.4315187,35.5456914 C92.3374049,35.7694485 92.6875837,36.027369 92.6875837,36.027369 C92.6875837,36.027369 92.3238764,37.3727802 91.1789008,37.4990022 C90.0341854,37.6249633 89.4631285,37.1010379 89.320039,36.8864084 C89.1766894,36.6715182 90.2761366,35.8028295 90.2761366,35.8028295" id="Fill-106" fill="#012942"></path>
                    <path d="M92.5507902,35.3366428 C92.3806439,35.4370467 92.078335,35.4083599 91.8845138,35.4245288 C91.6555707,35.4438272 91.4263675,35.4571274 91.1969041,35.4670374 C90.9585951,35.4777298 90.9812293,35.8480504 91.2195382,35.8378796 C91.5254894,35.8243186 91.8311805,35.8042378 92.1360911,35.7745078 C92.3470829,35.7539055 92.5705626,35.7554702 92.756839,35.6451564 C92.9623675,35.5236287 92.7557984,35.2153759 92.5507902,35.3366428" id="Fill-108" fill="#627B8A"></path>
                    <path d="M85.1116748,39.6738793 C85.548748,39.0516364 87.7694959,35.4488343 88.7315772,34.8850082 C90.5581789,33.8147295 92.872065,33.9696383 94.7886829,33.0712197 C96.6038374,32.2202647 97.004748,31.6486149 97.2529431,29.6554034 C96.201626,30.6158898 95.7926504,31.3080242 94.7098537,31.9688639 C93.9738537,32.4179428 91.884748,33.3768645 91.1253333,33.6235711 C90.4387642,33.8468066 89.7748293,34.1378473 89.0937236,34.3639515 C87.9758049,34.7347936 87.0014959,35.506208 86.3570732,36.4912086 C86.059187,36.9468072 85.8926829,37.4496087 85.6647805,37.9338941 C85.4014959,38.4935477 85.1624065,39.1285692 84.9891382,39.7216038" id="Fill-110" fill="#00CABC"></path>
                    <path d="M95.9755187,26.0914067 C93.4456976,26.9760035 90.9788358,28.0413272 88.6022504,29.2805972 C88.3644618,29.4047329 88.1274537,29.5301724 87.8875837,29.6548297 C85.9236163,30.5149123 84.0416,31.8681472 83.3930146,34.0358266 C83.3209496,34.276535 83.2642341,34.5274141 83.222348,34.7889856 C82.8438114,36.8693007 82.5836488,39.216403 82.3971122,41.1950103 C82.3742179,41.4693605 82.342478,41.7416244 82.2982504,42.0099764 C82.2917463,42.1025565 82.2829008,42.1951367 82.2769171,42.2879776 C82.3835837,42.100731 82.4990959,41.9166139 82.6213724,41.7348438 C82.7436488,41.5530738 82.8726894,41.3736509 83.0051122,41.1960535 C84.404787,38.6948247 85.7056,36.3477224 86.4402992,33.7424388 C86.5258927,33.4764338 86.6252748,33.2192957 86.7402667,32.97285 C87.3144455,31.7411428 88.2728846,30.7858722 89.7997789,30.4395442 C90.0172748,30.3075849 90.2347707,30.175104 90.452787,30.0431447 C92.414413,28.8534246 94.4460228,27.6777871 95.9755187,26.0914067" id="Fill-112" fill="#BB6D35"></path>
                    <path d="M94.9490992,23.2459624 C94.0054894,21.1567805 92.7280911,19.2384155 91.774335,17.15132 C91.5820748,16.7304063 91.2615545,15.2389531 90.793522,14.8793249 C90.355148,14.5421245 89.5293919,14.8994057 89.0878959,15.0227589 C86.8593431,15.6452626 84.6784,16.5139513 82.4821073,17.2449433 C80.1749854,18.0129673 77.8782699,18.8146332 75.5896195,19.6366406 C73.2746927,20.4680364 70.8491967,21.2258896 68.6206439,22.2713933 C67.953587,22.5846011 65.9427902,23.3557546 66.5221724,24.3871757 C66.8806764,25.0255875 67.7740748,25.5628132 68.4080911,25.8658502 C68.8862699,26.0945623 71.3065626,26.5514649 71.4257171,27.0673058 C71.4839935,27.3202713 71.8424976,27.3009729 71.9208065,27.0907768 C73.2213593,26.6878576 74.473522,26.0397965 75.7714732,25.5959334 C77.1864976,25.1121695 78.6129691,24.6683064 80.0266927,24.1798483 C81.5322537,23.6600956 83.0856846,23.2845592 84.5928065,22.7697614 C85.6168065,22.4200432 86.5877333,21.924283 87.5963837,21.5338816 C87.5003837,22.8985912 87.8968715,24.1576813 88.817587,25.268643 C89.2070504,25.7383243 89.2385301,25.7954371 89.7541724,25.7591874 C90.2141398,25.7265888 90.7880585,25.470233 91.2545301,25.3745234 C92.007961,25.220397 92.7642537,25.0785277 93.5140423,24.9069285 C94.8257821,24.6064994 95.5831154,24.6497904 94.9490992,23.2459624" id="Fill-114" fill="#BB6D35"></path>
                    <path d="M67.3061984,60.3439491 C67.1141984,59.5008178 66.912052,58.6589904 66.6581333,57.8359398 C66.0118894,55.7425853 64.6993691,49.4638258 64.5794341,48.8408005 C64.5635642,48.7578695 64.4797919,48.6754602 64.3978407,48.6587697 C64.356735,48.6501636 64.3156293,48.6418184 64.2745236,48.6332123 C64.1644748,48.1348443 63.9719545,47.6907203 63.4547512,47.4330607 C62.4187837,46.9169589 61.0430439,47.4700927 60.0924098,47.910044 C59.9841821,47.9601155 59.9511415,48.0988554 59.9729951,48.204475 C60.2740033,49.6680237 61.5050927,50.72761 62.294426,51.9345422 C63.1860033,53.2971655 64.2074016,54.7171624 64.9415805,56.1658461 C65.8609951,57.9791131 66.6014179,59.825761 67.0946862,61.7381279 C67.158426,62.0943658 67.2148813,62.4479959 67.2609301,62.7945847 C67.4276943,64.0463726 67.2775805,65.4966211 67.8033691,66.6571328 C67.9126374,66.8983628 68.2935154,66.7710977 68.288052,66.5254343 C68.2414829,64.4148677 67.9162797,62.3635002 67.3061984,60.3439491" id="Fill-116" fill="#BB6D35"></path>
                    <path d="M99.7771447,52.9799676 C99.457665,51.6011754 98.6118764,50.4826507 98.1092423,49.1789658 C97.8350309,48.467533 97.3784455,47.6191859 96.4749008,47.6671711 C95.5822829,47.7146347 95.2989659,48.7666581 94.6105756,49.178705 C94.3230959,49.3508258 94.6248846,49.7759121 94.9113236,49.6043129 C94.950348,49.5811027 94.9844293,49.5526766 95.0198114,49.5258154 C95.076787,51.4201877 94.4924618,53.2699652 94.0681366,55.1033129 C93.6279415,57.0052482 93.121665,58.8959695 92.246478,60.6500373 C91.5136,62.118541 90.8179252,63.1689997 90.734413,64.853176 C90.6467382,66.6195009 90.8382179,68.5662919 91.672039,70.1482389 C91.7219902,70.2429054 91.8179902,70.3396581 91.9387057,70.3169695 C92.7545756,70.164147 93.2525268,69.3257099 93.6765919,68.6844294 C94.3160715,67.7169017 94.9672585,66.7511994 95.5669333,65.7586359 C97.233535,62.9994867 99.1811122,60.3326569 99.7956163,57.1017401 C100.052657,55.7495484 100.08908,54.3261612 99.7771447,52.9799676" id="Fill-118" fill="#BB6D35"></path>
                    <path d="M98.5956163,47.3368816 C98.5969171,47.1047793 98.5979577,46.8716338 98.5989984,46.6377059 C97.7794862,47.1139069 96.8054374,47.4065123 95.9164618,47.6161868 C94.8438114,47.8691523 93.5500228,48.217045 92.4492748,48.1122078 C91.4596163,48.0178021 90.4298927,47.5460345 89.4490797,47.3316658 C89.0029008,47.2341307 88.5790959,47.0682688 88.1308358,46.9869026 C87.9141203,46.9475234 87.3389008,46.9290074 87.0774374,46.7701868 C87.0220228,46.6695222 86.9137951,46.5965012 86.7709659,46.6254488 C86.7558764,46.6285783 86.7410472,46.631447 86.7262179,46.6345764 C86.6616976,46.6476159 86.6153886,46.6825617 86.582348,46.7268958 C86.3947707,46.6530925 86.2071935,46.5795499 86.0203967,46.5049642 C85.6348358,46.3510986 85.1301203,45.9766054 84.7206244,45.9283594 C84.4326244,45.8944568 83.9906081,46.1362084 83.7189984,46.2280062 C82.7709659,46.5490376 81.8195512,46.9274427 80.8941528,47.3094988 C80.193535,47.5989747 79.5483317,47.9562559 78.7868358,47.7012041 C78.3372748,47.5507287 77.8905756,47.3733921 77.4490797,47.2007497 C76.6959089,46.906058 75.9721366,46.2892916 75.206478,45.977127 C75.2647545,45.7992688 75.1190634,45.5468249 74.8724293,45.5963748 C74.0526569,45.7609328 73.2297626,46.1226473 72.433665,46.3850012 C71.5116488,46.6890814 70.5820878,46.9657787 69.6626732,47.2802904 C68.1402016,47.8010863 66.4197463,48.2921523 65.0315187,49.1191147 C64.9979577,49.1037281 64.9586732,49.0948613 64.9139252,49.0946005 C64.212787,49.0909494 63.6019252,48.6327429 63.0004293,48.3354433 C62.3989333,48.0381436 61.8523317,47.742148 61.3273236,47.3162793 C61.0765268,47.1128637 60.7453398,46.6465727 60.3870959,46.4376806 C60.3878764,46.6841264 60.3889171,46.9300506 60.3902179,47.1751924 C60.6524618,47.4286794 60.998478,47.7614464 61.0533724,47.8047374 C61.4319089,48.1043841 61.8257951,48.3729969 62.2542829,48.5962324 C63.057665,49.0150598 63.9794211,49.6469519 64.9139252,49.6519069 C64.9607545,49.6521677 65.0008195,49.6425185 65.0354211,49.6260888 C65.107226,49.6639032 65.1959415,49.6688582 65.2877789,49.6138317 C66.7420878,48.7412312 68.543974,48.2480789 70.142413,47.7048551 C71.532722,47.2323052 72.990413,46.6285783 74.4343154,46.2671245 C74.4665756,46.3145882 74.5173073,46.3521418 74.5922341,46.3677891 C75.1346732,46.4809716 75.6700878,46.9290074 76.1292748,47.2059655 C76.5988683,47.4894433 77.1043642,47.6628681 77.6171447,47.8540265 C78.0877789,48.0295376 78.571161,48.2663342 79.0657301,48.3669988 C79.5134699,48.458275 79.7918439,48.3492651 80.2218927,48.1826208 C81.3915837,47.7296301 82.5506081,47.2346523 83.731226,46.8116523 C83.9643317,46.7281998 84.2484293,46.5878952 84.4937626,46.5652065 C84.7893073,46.5380845 84.929535,46.6656104 85.2190959,46.794701 C85.6868683,47.0033323 86.1697301,47.1887534 86.641665,47.3893002 C87.8829008,47.9163551 89.1878764,48.2791128 90.4686569,48.6940284 C91.4603967,49.0153206 92.8220878,49.7439655 93.8918764,49.6526893 C94.8430309,49.5713231 95.836852,48.8677139 96.6425756,48.414984 C97.3166569,48.0365789 97.9686244,47.7218064 98.5956163,47.3368816" id="Fill-120" fill="#BB6D35"></path>
                    <path d="M72.7764553,58.4143962 C75.6926179,59.5483075 77.3430894,60.3843975 78.2786341,60.9683044 C78.6667967,61.0079443 79.0739512,61.0295898 79.5021789,61.0295898 C79.9387317,61.0295898 80.3531707,61.0011638 80.7506992,60.9531786 C81.6534634,60.3927427 83.212878,59.6025516 85.8967154,58.5447908 C86.0931382,58.3585874 86.275252,58.1721231 86.4396748,57.9887883 C86.6519675,57.4007088 88.5438699,56.526022 88.5891382,55.8988241 L70.8398049,55.7029715 C70.8980813,56.5101139 72.4132683,57.9188969 72.7764553,58.4143962" id="Fill-122" fill="#161C23"></path>
                    <path d="M71.9123252,58.3893605 C74.1432195,60.4349906 75.0337561,61.2489135 78.1109593,60.9064973 C78.5482927,60.9450941 79.0069593,60.9727378 79.489561,60.9727378 C79.9812683,60.9727378 80.4482602,60.947702 80.896,60.9004992 C81.9129756,60.3510165 83.6695935,59.5775158 86.6934634,58.5398358 C86.9148618,58.3572834 87.1198699,58.1509992 87.3051057,57.9710547 C87.5441951,57.3944499 87.6552846,56.689276 87.7062764,55.9069086 L71.2725854,55.9069086 C71.3384065,56.689276 71.5033496,57.9032495 71.9123252,58.3893605" id="Fill-124" fill="#FBF6E7"></path>
                    <path d="M70.1721496,55.6060361 C70.1721496,55.6060361 71.5915967,59.3121107 74.0930602,62.1004683 C75.4074016,63.7773425 82.6955967,64.3761144 85.3240195,61.8610639 C86.8771902,60.0644874 88.3811902,55.9200263 89.537613,55.350202 C88.547174,55.4558216 87.1162797,57.3100324 87.1162797,57.3100324 C87.1162797,57.3100324 84.1293528,59.5429091 82.5761821,60.0219788 C81.0230114,60.5010485 79.3501659,60.8604159 79.3501659,60.8604159 C79.3501659,60.8604159 74.8774504,59.9176631 74.2801171,59.3188912 C72.3876943,57.421911 70.9180358,55.5596157 70.1721496,55.6060361" id="Fill-126" fill="#345468"></path>
                    <path d="M83.2693854,49.4398592 C82.311987,49.5019271 81.5783285,50.1210405 81.1149789,50.523699 C80.6516293,50.9260966 80.0493528,50.9879036 79.4933854,50.9879036 C78.9374179,50.9879036 78.3348813,50.9260966 77.8717919,50.523699 C77.4084423,50.1210405 76.6747837,49.5019271 75.7171252,49.4398592 C74.7597268,49.3780522 75.6065561,49.9160602 76.100865,50.1017421 C76.5949138,50.2876848 78.2630764,51.6409197 79.5602472,51.6409197 C80.857678,51.6409197 82.331239,50.4045183 82.825548,50.2188364 C83.3198569,50.0328938 84.2267837,49.3780522 83.2693854,49.4398592" id="Fill-128" fill="#BB6D35"></path>
                    <path d="M63.4249366,26.0914067 C66.7365463,27.2495713 69.9407089,28.7170319 72.9755057,30.4797057 C73.6883512,30.8938389 74.4069203,31.3366589 74.9256846,31.978461 C75.5828553,32.7913408 75.856026,33.8428426 76.0795057,34.8648753 C76.4762537,36.6807501 76.7673756,38.5195744 76.9585951,40.3688303 C76.9747252,40.9209209 77.0137496,41.4732723 77.1022049,42.0099764 C77.1087089,42.1025565 77.1175545,42.1951367 77.1235382,42.2879776 C75.8417171,40.0407575 73.3098146,38.2415732 72.8030179,35.644374 C72.6235057,34.7240491 72.7114407,33.7393093 72.3297821,32.8833993 C71.9382374,32.0053223 71.1169041,31.4070719 70.3090992,30.8878408 C67.9665951,29.3825658 65.3131967,28.0499332 63.4249366,26.0914067" id="Fill-130" fill="#BB6D35"></path>
                    <path d="M80.1335415,61.3563065 C79.4308423,61.1022978 78.4396228,61.1137726 77.6882732,60.9966782 C76.6288911,60.8318595 75.3892163,60.6307911 74.4453463,60.1193835 C74.3561106,60.0711375 74.2697366,60.0713983 74.1968911,60.0995636 C74.107135,60.049492 74.0098341,60.0215876 73.9036878,60.0252387 C73.8076878,60.0286289 73.6874927,60.0740062 73.6461268,60.1634569 C73.5045984,60.4685802 73.6411837,60.6865999 73.8508748,60.9210494 C73.871948,60.9747719 73.8969236,61.0305808 73.9315252,61.0908231 C74.5587772,62.1796178 76.0796878,62.1566684 77.2113951,62.2179538 C78.1152,62.2667214 79.6251837,62.5856665 80.2651837,61.8220759 C80.4100943,61.6491727 80.3570211,61.4371511 80.1335415,61.3563065" id="Fill-132" fill="#FBF6E7"></path>
                    <path d="M73.0494699,58.7168073 C73.023974,58.6383098 72.9669984,58.569983 72.8837463,58.5444257 C72.8392585,58.5092192 72.7929496,58.4771421 72.7461203,58.4508024 C72.625665,58.3827364 72.4851772,58.4137703 72.3844943,58.4943542 L72.3602992,58.5136526 C72.2380228,58.6117093 72.2525919,58.8070404 72.3602992,58.907705 C72.3798114,58.9259602 72.4008846,58.9395213 72.4227382,58.9515176 C72.4877789,59.0331446 72.5585431,59.1051224 72.636852,59.1755355 C72.7864455,59.3103634 73.0934374,59.2668117 73.1353236,59.052443 C73.1589984,58.9319584 73.1197138,58.8172112 73.0494699,58.7168073" id="Fill-134" fill="#FBF6E7"></path>
                    <path d="M96.7403707,37.0196978 C96.6404683,37.7572095 96.5246959,38.5093254 96.1890862,39.1639062 C95.5649561,40.3817915 94.278452,41.0619296 93.001574,41.3581861 C91.7246959,41.6544425 90.4012488,41.6414031 89.1126634,41.874027 C87.4733789,42.1700227 85.9228098,42.8569413 84.3888911,43.5386441 C83.9138341,43.7496226 82.1785496,44.7776534 82.1785496,44.7776534 C82.2235577,41.446072 82.5862244,38.1194456 83.2584846,34.864797 C83.4697366,33.8427644 83.7278179,32.7912625 84.3490862,31.9783827 C84.8394927,31.3368414 85.5187772,30.8937607 86.1925984,30.4796275 C89.7211837,28.3114265 93.4888585,26.5818729 97.3944195,25.3371263 C97.4823545,29.2416614 97.2635577,33.1537594 96.7403707,37.0196978 M75.0115902,43.5386441 C73.4776715,42.8569413 71.9271024,42.1700227 70.2878179,41.874027 C68.9992325,41.6414031 67.6757854,41.6544425 66.3989073,41.3581861 C65.1220293,41.0619296 63.8355252,40.3817915 63.2113951,39.1639062 C62.8757854,38.5093254 62.760013,37.7572095 62.6601106,37.0196978 C62.1369236,33.1537594 61.9178667,29.2416614 62.0060618,25.3371263 C65.9116228,26.5818729 69.6792976,28.3114265 73.2078829,30.4796275 C73.8817041,30.8937607 74.5609886,31.3368414 75.0513951,31.9783827 C75.6726634,32.7912625 75.9307447,33.8427644 76.1419967,34.864797 C76.8142569,38.1194456 77.1766634,41.446072 77.2219317,44.7776534 C77.2219317,44.7776534 75.4866472,43.7496226 75.0115902,43.5386441 M79.4616715,28.7070436 C62.811265,22.592842 58.9038829,19.4526799 59.1510374,21.1133852 C59.3981919,22.7740905 60.3849886,48.4633864 60.3849886,48.4633864 C60.3849886,48.4633864 63.8867772,50.4357348 65.0606309,50.387228 C66.2344846,50.3387212 73.5778341,47.4439617 74.3809561,47.4815153 C75.184078,47.5193297 79.516826,50.7492033 79.516826,50.7492033 C79.516826,50.7492033 83.7710049,48.5624863 84.5741268,48.5246719 C85.3769886,48.4871182 92.7364683,50.3387212 93.9100618,50.387228 C95.0839154,50.4357348 98.5935089,48.4633864 98.5935089,48.4633864 C98.5935089,48.4633864 99.5527285,22.7740905 99.7998829,21.1133852 C100.047037,19.4526799 96.112078,22.592842 79.4616715,28.7070436" id="Fill-136" fill="#00CABC"></path>
                    <path d="M80.1938472,46.7393615 C80.0577821,44.587851 79.9727089,42.4412956 79.8238959,40.2913498 C79.6633756,37.9664145 79.8067252,35.6130533 79.859278,33.2875964 C79.8868553,32.0657993 79.859278,30.840351 79.859278,29.6185539 C79.859278,29.2657062 79.8590179,28.9131192 79.859278,28.5602715 C79.7268553,28.6092999 79.5957333,28.6578067 79.4614894,28.706835 C79.1667252,28.5986075 78.8771642,28.491684 78.5902049,28.385282 C78.5826602,28.3824133 78.5751154,28.3795446 78.5673106,28.376676 C78.2852943,28.2720995 78.0074407,28.1685662 77.7329691,28.0655545 C76.7727089,29.178081 75.7960585,30.2830446 75.0301398,31.5515231 C74.9656195,31.6584466 74.9005789,31.7669349 74.8360585,31.8764663 C74.8657171,31.9106297 74.8971967,31.9432284 74.9258146,31.9784349 C75.5829854,32.7913147 75.8558959,33.8428165 76.0793756,34.8648492 C76.7906602,38.1194978 77.1741398,41.4461242 77.2220098,44.7777055 C77.2220098,44.7777055 75.3860423,43.7496747 74.8836683,43.5386963 C74.7005138,43.4617635 74.5173593,43.3848307 74.3336846,43.3084195 C74.092774,43.785142 73.7657496,44.2256149 73.3840911,44.7370224 C72.1691317,46.3643467 70.6981724,47.873012 69.079961,49.1727851 C71.4084163,48.3669466 73.9291317,47.4604435 74.3810341,47.4815674 C75.1838959,47.5193819 79.5166439,50.7492555 79.5166439,50.7492555 C79.5166439,50.7492555 79.8041236,50.5312358 80.2417171,50.2089004 C80.244839,49.0525613 80.2669528,47.8936143 80.1938472,46.7393615" id="Fill-138" fill="#00B1B2"></path>
                    <path d="M98.5994927,48.3061045 C98.6062569,48.1269424 98.6184846,47.7986088 98.6356553,47.3453573 C98.644761,47.1096039 98.6549073,46.8407303 98.6663545,46.5413443 C98.6702569,46.4333776 98.6197854,46.3217599 98.623948,46.2062303 C98.662452,45.2016705 98.7137041,43.9154584 98.7137041,42.4558215 L98.7137041,42.4487802 C98.7137041,42.2876125 98.7813463,42.1246193 98.7878504,41.959279 C98.7888911,41.9324177 98.8175089,41.9055564 98.8185496,41.8786951 C98.8242732,41.7334356 98.8437854,41.5871329 98.8495089,41.4390046 C98.8510699,41.3980607 98.8596553,41.3571168 98.8612163,41.3159121 C98.8669398,41.1716957 98.8760455,41.0261754 98.8817691,40.8793511 C98.8838504,40.830062 98.8874927,40.7807728 98.8893138,40.7314837 C98.8932163,40.6313406 98.8981593,40.5309368 98.9020618,40.4300114 C98.9064846,40.3165681 98.9114276,40.2026033 98.9161106,40.0881168 C98.9181919,40.031004 98.9207935,39.9736304 98.923135,39.9165176 C98.928078,39.7902956 98.9330211,39.6640737 98.9382244,39.5365478 C98.9405659,39.4739584 98.9431675,39.4111082 98.9457691,39.348258 C98.9507122,39.2243832 98.9556553,39.1005083 98.9605984,38.9758511 C98.9645008,38.877012 98.9684033,38.7773906 98.9723057,38.6780299 C98.9756878,38.5982284 98.9788098,38.5186877 98.9819317,38.4383647 C98.9884358,38.2753715 98.9949398,38.1115959 99.0014439,37.9472987 C99.0027447,37.9199158 99.0037854,37.8927938 99.004826,37.8654109 C99.0446309,36.8715435 99.0857366,35.8547266 99.1276228,34.8371273 C99.1304846,34.7690613 99.1330862,34.7009954 99.135948,34.6329294 C99.1419317,34.485062 99.1481756,34.3371945 99.1541593,34.1893271 C99.1552,34.1655953 99.1562407,34.1418634 99.1572813,34.1181316 C99.1645659,33.9381871 99.1721106,33.7585034 99.1793951,33.5790805 C99.1812163,33.5378758 99.1830374,33.4969319 99.1845984,33.4557272 C99.1908423,33.3065558 99.1970862,33.1573844 99.2033301,33.0087346 C99.2056715,32.9511002 99.208013,32.8937266 99.2103545,32.8360922 C99.2173789,32.6694479 99.2244033,32.5033252 99.2314276,32.3377241 C99.2322081,32.3189473 99.2329886,32.3001705 99.2337691,32.2813936 C99.2407935,32.113967 99.2478179,31.947062 99.2548423,31.7809393 C99.2574439,31.7212186 99.2597854,31.6617586 99.262387,31.6022987 C99.2673301,31.4867691 99.2722732,31.3715003 99.2772163,31.2562315 C99.2811187,31.1610435 99.2852813,31.0658554 99.2891837,30.971189 C99.2936065,30.8715675 99.2977691,30.7722068 99.3021919,30.673107 C99.3058341,30.5849602 99.3097366,30.4965527 99.3133789,30.4089276 C99.3188423,30.2811409 99.3243057,30.1543973 99.3300293,30.0276538 C99.3323707,29.9728881 99.3347122,29.9176008 99.3370537,29.8628351 C99.3425171,29.7350484 99.3482407,29.6083049 99.3537041,29.4818221 C99.356826,29.4101051 99.359948,29.3381273 99.3630699,29.2669319 C99.3682732,29.1469689 99.3734764,29.0283098 99.3786797,28.9099115 C99.3815415,28.8483653 99.3841431,28.7862975 99.3870049,28.7252728 C99.3932488,28.5841859 99.3992325,28.4449245 99.4054764,28.3059239 C99.4075577,28.2631544 99.4093789,28.2193419 99.4114602,28.1765724 C99.4174439,28.0420052 99.4234276,27.9090028 99.4294114,27.7765219 C99.4314927,27.7298406 99.4387772,27.682377 99.4408585,27.6359565 C99.4572488,27.2784146 99.4941919,26.9302611 99.4941919,26.5917568 L99.4941919,26.5868018 C99.4941919,26.423287 99.504078,26.2623801 99.5116228,26.1038203 C99.5129236,26.0740903 99.5118829,26.0456643 99.5131837,26.0161951 C99.5191675,25.8897124 99.5238504,25.7642728 99.529574,25.6414411 C99.5324358,25.5861538 99.5342569,25.5324313 99.5368585,25.4779263 C99.5415415,25.3801304 99.5459642,25.2831168 99.5506472,25.1879288 C99.5532488,25.134467 99.5555902,25.0820484 99.5581919,25.029369 C99.5628748,24.9352241 99.5672976,24.8418616 99.5719805,24.7503246 C99.5751024,24.6861705 99.5782244,24.6233203 99.5813463,24.5604701 C99.5849886,24.4890139 99.5886309,24.4178184 99.592013,24.3481877 C99.5953951,24.2832512 99.5985171,24.2193579 99.6018992,24.1559861 C99.6058016,24.0798357 99.6097041,24.0044676 99.6136065,23.9304035 C99.6164683,23.8745946 99.6193301,23.8193073 99.6221919,23.7645416 C99.6258341,23.6954325 99.6294764,23.6273665 99.6331187,23.5600829 C99.6359805,23.505578 99.6388423,23.4513338 99.6417041,23.3983936 C99.6456065,23.3282414 99.6492488,23.2599146 99.6531512,23.1923702 C99.6557528,23.1438634 99.6583545,23.0953567 99.6609561,23.0481538 C99.6643382,22.9894763 99.6674602,22.932885 99.6708423,22.8765546 C99.6739642,22.8233536 99.676826,22.7698918 99.679948,22.7187771 C99.6830699,22.6624467 99.6861919,22.6089849 99.689574,22.5552623 C99.6919154,22.5130145 99.6945171,22.4697235 99.6971187,22.4290404 C99.7005008,22.3716668 99.7038829,22.3174226 99.7075252,22.2631785 C99.7096065,22.226668 99.711948,22.1891144 99.7142894,22.1541686 C99.7174114,22.1043579 99.7205333,22.058459 99.7236553,22.0117777 C99.7259967,21.976832 99.7283382,21.9400607 99.7306797,21.9066797 C99.7340618,21.8542611 99.7418667,21.8062759 99.7452488,21.7582907 C99.7468098,21.7363844 99.7543545,21.712131 99.7543545,21.6910071 L99.7543545,21.6881384 C99.2340293,21.4411711 98.6515252,21.2500126 98.0497691,21.1000589 C97.9922732,21.1232691 97.9308748,21.1472617 97.8702569,21.1722975 C97.8411187,21.1842938 97.8093789,21.1970724 97.7794602,21.2095903 C97.7451187,21.2236729 97.7107772,21.2377555 97.6753951,21.2526205 C97.6433951,21.2659208 97.609574,21.2802642 97.5765333,21.294086 C97.542452,21.3086902 97.5083707,21.3227728 97.4732488,21.3376378 C97.4389073,21.352242 97.4030049,21.3676285 97.3676228,21.3827543 C97.3309398,21.3984017 97.2947772,21.4137882 97.2573138,21.4299572 C97.2263545,21.4432574 97.1943545,21.4570792 97.1626146,21.4706403 C97.1178667,21.4901994 97.0728585,21.5094978 97.0268098,21.5295786 C97.0018341,21.540271 96.976078,21.5514849 96.9508423,21.562438 C96.8946472,21.5869522 96.838452,21.6114664 96.7804358,21.6367629 C96.7606634,21.645369 96.7401106,21.6544966 96.7198179,21.6633634 C96.6581593,21.6902247 96.5959805,21.7176076 96.5319805,21.7457728 C96.5127285,21.7541181 96.4932163,21.7627241 96.4739642,21.7710694 C94.438452,22.6663585 91.312078,24.0853123 86.6843057,25.9390015 C86.8417041,26.6934645 87.0810537,27.4401039 87.3620293,28.0740823 C87.5462244,28.4897802 87.8238179,29.0525632 88.1674927,29.5138992 C91.3896065,27.7945163 94.779265,26.3901668 98.2750699,25.3371002 C98.3682081,29.2416353 98.1366634,33.1537334 97.5832976,37.0196717 C97.4776715,37.7571834 97.3548748,38.5092993 97.000013,39.1638801 C96.3397203,40.3817654 94.9785496,41.0621643 93.6277854,41.3584208 C93.0840455,41.4776014 92.5319805,41.546189 91.9778341,41.6014763 C91.9796553,42.3640237 92.212761,43.0660681 92.5246959,43.8335706 C93.2729236,45.673438 93.5003057,47.4726224 93.510452,49.4525336 C93.5117528,49.7357506 93.5026472,50.0254874 93.4906797,50.3173104 C93.6675902,50.3577327 93.8122407,50.3830293 93.9100618,50.3872019 C95.0839154,50.4357087 98.5935089,48.4633604 98.5935089,48.4633604 C98.5935089,48.4633604 98.5942894,48.4471914 98.5950699,48.4237204 C98.5961106,48.3976415 98.5974114,48.3598271 98.5994927,48.3061045" id="Fill-140" fill="#00B1B2"></path>
                    <path d="M66.2548293,25.48309 C65.9694309,25.8521066 65.6626992,26.3126602 65.3903089,26.8185912 C67.3136911,27.5738366 69.1941463,28.4380918 71.0217886,29.4032724 C72.0663415,28.7317404 73.1509593,28.1157564 74.2025366,27.4494401 C74.4489106,27.2934882 74.6934634,27.1448384 74.9387967,27.0016652 C74.217626,26.72236 73.5274146,26.4514001 72.8660813,26.1885246 C72.851252,26.1825264 72.8364228,26.1767891 72.8213333,26.1707909 C71.8340163,25.7780425 70.9122602,25.40381 70.0526829,25.0491368 C70.0407154,25.0441818 70.028748,25.0392268 70.0165203,25.0342718 C69.4465041,24.7987792 68.9035447,24.5718927 68.3868618,24.3541337 C68.382439,24.3520474 68.3780163,24.3502219 68.3735935,24.3483964 C68.1129106,24.2383433 67.8589919,24.1306374 67.6115772,24.0250178 C67.1006179,24.4884401 66.6406504,24.9842003 66.2548293,25.48309" id="Fill-142" fill="#00B1B2"></path>
                    <path d="M65.2232325,50.3683469 C65.2534114,50.3636527 65.2848911,50.3581761 65.3189724,50.3516564 C65.3403057,50.3474837 65.3621593,50.3430503 65.3850537,50.3383561 C65.4167935,50.3315756 65.4508748,50.3240127 65.4854764,50.3159282 C65.5127935,50.3096693 65.5388098,50.3039319 65.5676878,50.2968906 C65.5996878,50.289067 65.6348098,50.2799393 65.6691512,50.2713333 C65.7401756,50.2530781 65.8148423,50.2332581 65.8939317,50.2113518 C65.9142244,50.2056144 65.9339967,50.2001379 65.9550699,50.1944005 C66.0091837,50.1790139 66.0653789,50.162845 66.1226146,50.1461545 C66.1403057,50.1409387 66.1582569,50.1842297 66.1764683,50.1790139 C66.2394276,50.1602371 66.3034276,50.1696255 66.3697691,50.1696255 L66.3700293,50.1696255 C66.3302244,49.6480472 66.2750699,49.0542303 66.1598179,48.5057908 C65.8957528,47.2519165 65.8148423,46.0752359 65.8827447,44.7999769 C65.9126634,44.2338037 65.9209886,43.6634578 65.9267122,43.096763 C65.9334764,42.4171465 66.0778667,41.92921 66.2433301,41.3252223 C65.0184846,41.0109714 63.8100293,40.3352667 63.2113951,39.1669313 C62.8757854,38.5123506 62.7597528,37.7586699 62.6601106,37.0211582 C62.6538667,36.9760417 62.6491837,36.929882 62.6432,36.8845047 C61.9412813,29.7094128 61.9542894,36.0804917 61.6277854,35.6527975 C61.1548098,35.0331625 60.5150699,34.0051317 59.7704846,33.2746613 C59.7710049,33.2882223 59.7715252,33.3017834 59.7720455,33.3156052 C59.8201756,34.4440398 59.8683057,35.5849924 59.9148748,36.708472 C59.9148748,36.7123838 59.915135,36.7162957 59.915135,36.7202075 C59.9338667,37.1692864 59.9523382,37.6149751 59.9702894,38.0559695 C59.9710699,38.0705737 59.9715902,38.0846564 59.9721106,38.0989998 C59.9799154,38.2917229 59.9879805,38.483403 59.9957854,38.673779 C59.9973463,38.7126366 59.9989073,38.7512334 60.0004683,38.7895694 C60.017639,39.2086576 60.0342894,39.6217476 60.0509398,40.0277963 C60.0509398,40.0324905 60.0512,40.0374455 60.0514602,40.0424005 C60.1032325,41.3171379 60.1513626,42.519115 60.1940293,43.5951311 C60.1948098,43.6126039 60.1955902,43.629816 60.1961106,43.6472889 C60.2234276,44.3292525 60.2481431,44.9585367 60.2705171,45.5231453 C60.2718179,45.5591342 60.2733789,45.5951231 60.2746797,45.6308512 C60.3085008,46.4917162 60.3358179,47.1914134 60.3548098,47.6803931 C60.3555902,47.7033425 60.3563707,47.7226409 60.3571512,47.7442864 C60.3587122,47.7802753 60.360013,47.8167858 60.3613138,47.8501668 C60.3633951,47.9051933 60.3654764,47.9555256 60.3672976,48.0035109 C60.3675577,48.0108129 60.3678179,48.018115 60.368078,48.0251564 C60.3717203,48.1174757 60.3748423,48.2004067 60.3774439,48.2640392 C60.379265,48.3099381 60.380826,48.3498388 60.3818667,48.3798296 C60.383948,48.4335522 60.3849886,48.4632821 60.3849886,48.4632821 C60.3849886,48.4632821 63.8867772,50.4356305 65.0606309,50.3871237 C65.0939317,50.3858197 65.1334764,50.3813863 65.1761431,50.375649 C65.1909724,50.3735626 65.2073626,50.3709547 65.2232325,50.3683469" id="Fill-144" fill="#00B1B2"></path>
                    <path d="M85.6928,54.9973803 C83.5516618,54.6468797 81.5429463,54.342278 79.5134179,55.1723699 C78.9673366,55.0179827 78.4990439,54.8103945 78.0372553,54.6414031 C77.5754667,54.4726726 77.1201821,54.342278 76.5998569,54.342278 C73.4779057,54.8638563 70.6161171,54.6030671 67.4941659,54.342278 C69.8007675,56.3190597 73.2177431,56.4285912 76.233548,56.482053 C76.6638569,56.5086535 77.0931252,56.5383834 77.5195317,56.5746331 C78.2021984,56.6327891 78.8781008,56.7078964 79.5412553,56.8132552 C81.0723122,56.6690388 82.6145561,56.615577 84.1502959,56.5362971 C84.6620358,56.5096966 85.1732553,56.4804882 85.6829138,56.4439777 C87.7868488,56.4285912 90.1457431,55.8345135 91.6892878,54.342278 C90.1283122,54.342278 87.7329951,55.3314512 85.6928,54.9973803" id="Fill-146" fill="#161C23"></path>
                    <path d="M75.0714797,39.6542158 C75.0714797,39.6542158 72.8907967,35.487066 71.4510569,34.6976573 C68.7656585,33.8461807 64.8130081,32.2136406 64.8130081,32.2136406 C64.8130081,32.2136406 63.4619837,34.5357072 64.7966179,36.9733034 C67.8795447,37.7520198 75.0714797,39.6542158 75.0714797,39.6542158" id="Fill-148" fill="#FBF6E7"></path>
                    <path d="M65.7396813,35.5152573 C65.7365593,34.6184035 65.8616976,34.0183276 66.2472585,33.2573449 C66.2795187,33.2276149 66.3063154,33.1908436 66.3169821,33.1412937 L66.324787,33.1053048 C66.3279089,33.0993067 66.3305106,33.0935693 66.3338927,33.0875711 C66.3635512,33.0322838 66.3669333,32.9798652 66.3601691,32.9305761 C66.3661528,32.8964127 66.3643317,32.8653788 66.3591285,32.8361704 C65.438413,32.471848 64.8129821,32.2136667 64.8129821,32.2136667 C64.8129821,32.2136667 63.4619577,34.5357333 64.7965919,36.9733295 C65.1225756,37.0554781 65.4966894,37.1511877 65.9015024,37.2549818 C65.8023805,36.6655983 65.7417626,36.0689127 65.7396813,35.5152573" id="Fill-150" fill="#DAD7D0"></path>
                    <path d="M75.1970341,39.724003 L73.3267252,39.2149426 C73.3267252,39.2149426 65.3350504,37.2326843 64.5030504,37.1202842 C63.6710504,37.007884 62.873652,36.5525462 62.873652,36.5525462 C62.873652,36.5525462 63.5118309,35.8040813 64.369587,35.9981084 C64.6404163,36.4863057 65.1573593,37.0110135 65.5720585,37.0767324 C65.9864976,37.1424512 72.4978472,38.7157922 73.3803187,38.8748736 C74.2630504,39.0339549 75.1970341,39.724003 75.1970341,39.724003" id="Fill-152" fill="#00B1B2"></path>
                    <path d="M71.3879154,36.8900073 C70.7205984,37.9240363 69.3435577,38.2202928 68.3117528,37.5513686 C67.2802081,36.8827052 66.9849236,35.5020875 67.6519805,34.4680585 C67.8057366,34.2296972 67.9969561,34.0307151 68.2131512,33.8734592 C68.8039805,33.7634062 71.5380293,34.6605209 71.6506797,35.0384044 C71.8312325,35.642392 71.7563057,36.3188791 71.3879154,36.8900073" id="Fill-154" fill="#000000"></path>
                    <path d="M68.8426927,35.8028295 C68.8426927,35.8028295 69.5747902,36.2237432 69.9980748,35.5456914 C70.903961,35.7694485 71.2541398,36.027369 71.2541398,36.027369 C71.2541398,36.027369 70.8904325,37.3727802 69.7454569,37.4990022 C68.6007415,37.6249633 68.0296846,37.1010379 67.8865951,36.8864084 C67.7432455,36.6715182 68.8426927,35.8028295 68.8426927,35.8028295" id="Fill-156" fill="#012942"></path>
                    <path d="M71.1173463,35.3366428 C70.9472,35.4370467 70.6448911,35.4083599 70.4510699,35.4245288 C70.2221268,35.4438272 69.9929236,35.4571274 69.7634602,35.4670374 C69.5251512,35.4777298 69.5477854,35.8480504 69.7860943,35.8378796 C70.0920455,35.8243186 70.3977366,35.8042378 70.7026472,35.7745078 C70.913639,35.7539055 71.1371187,35.7554702 71.3233951,35.6451564 C71.5289236,35.5236287 71.3223545,35.2153759 71.1173463,35.3366428" id="Fill-158" fill="#627B8A"></path>
                    <path d="M75.0728585,39.6738793 C74.6357854,39.0516364 72.4150374,35.4488343 71.4529561,34.8850082 C69.6263545,33.8147295 67.3124683,33.9696383 65.3958504,33.0712197 C63.5806959,32.2202647 63.1797854,31.6486149 62.9315902,29.6554034 C63.9829073,30.6158898 64.3918829,31.3080242 65.4746797,31.9688639 C66.2106797,32.4179428 68.2997854,33.3768645 69.0592,33.6235711 C69.7457691,33.8468066 70.4097041,34.1378473 71.0908098,34.3639515 C72.2087285,34.7347936 73.1830374,35.506208 73.8274602,36.4912086 C74.1253463,36.9468072 74.2918504,37.4496087 74.5197528,37.9338941 C74.7830374,38.4935477 75.0221268,39.1285692 75.1953951,39.7216038" id="Fill-160" fill="#00CABC"></path>
                    <path d="M106.789463,151.45708 C106.789463,151.45708 65.5732033,144.070749 73.707187,118.883994 C75.2327805,114.99328 88.4987317,104.517902 88.4987317,104.517902 C88.4987317,104.517902 80.1129106,101.19284 83.2267967,82.1463653 C84.1347642,76.5910348 85.7782114,72.1025928 87.6506016,68.5308246 C87.9180488,68.020721 88.1901789,67.5291335 88.4656911,67.056062 C88.7859512,66.4147814 89.132748,65.7935817 89.500878,65.1877685 C89.7917398,64.7402543 90.0888455,64.2958696 90.388813,63.8525281 C90.6890407,63.4094473 90.9913496,62.9676705 91.2897561,62.5285015 C93.7706667,59.5578523 95.8519675,56.1675934 95.3316423,52.2557562 C95.0714797,48.6047081 95.0714797,45.2144491 95.5400325,41.4692562 C95.6266667,40.7891181 95.7333333,40.1141957 95.8563902,39.4416205 C96.2247805,37.4251988 96.7414634,35.431205 97.2750569,33.4729393 C97.4855285,32.7557691 97.704065,32.047205 97.9517398,31.3415096 C98.1988943,30.6360749 98.475187,29.9332482 98.7832195,29.235898 C94.0279675,26.4425854 92.3010081,21.8187938 93.5971382,13.3113301 C95.646439,5.74740166 96.2971057,3.50252867 96.2971057,3.50252867 C96.2971057,3.50252867 119.66465,9.05655518 117.593236,51.6475959 C121.922862,54.7961033 120.504195,61.8144609 116.883252,73.1196705 C122.487675,77.2537001 123.733073,85.9387611 118.359675,96.7589029 C119.106081,98.0581544 120.654309,101.488053 120.654309,101.488053 C120.654309,101.488053 125.396293,109.668487 123.592846,114.99328 C121.789659,120.318073 100.881171,126.393939 106.789463,151.45708" id="Fill-162" fill="#012942"></path>
                    <path d="M96.2971057,3.50258083 C96.2971057,3.50258083 89.0716098,-1.94504371 74.9044553,1.28170043 C60.7373008,4.50844457 52.499252,19.1439316 51.4507967,27.0408879 C49.0266016,35.5994662 48.5970732,40.568021 52.6301138,57.657534 C48.663935,66.1094495 47.0306341,64.8409711 45.9761951,72.4627948 C39.1895935,81.2683404 29.7204553,93.2669883 53.6062439,112.907802 C62.035252,96.4016739 70.7561626,83.753661 69.5115447,78.5222306 C68.2669268,73.2905395 68.7180488,65.0003133 64.9238374,55.6781443 C61.1478374,48.1640266 58.0794797,38.2469976 65.9223415,29.2083065 C71.1622764,23.1694729 80.779187,25.1300858 92.3829593,19.7442682 C102.163772,15.0863133 96.2971057,3.50258083 96.2971057,3.50258083" id="Fill-164" fill="#012942"></path>
                    <path d="M94.1418407,102.524064 C99.0183285,99.4318874 103.972085,95.4937104 105.604605,89.6877616 C105.610589,89.6658553 105.611629,89.6457745 105.615792,89.6246506 C105.637646,89.5928343 95.5735154,96.9692554 90.150426,99.4999533 C88.5803447,100.23251 86.993613,100.941596 85.417548,101.671023 C86.9410602,103.898684 88.4986537,104.518058 88.4986537,104.518058 C88.4986537,104.518058 86.2875317,106.264041 83.5670114,108.594975 C87.0958569,106.579857 90.7076943,104.701654 94.1418407,102.524064" id="Fill-166" fill="#1D3650"></path>
                    <path d="M116.883382,73.1197748 C118.411577,68.3483765 119.544846,64.3434375 120.021724,61.0679258 C118.154276,68.9588839 111.906472,74.5071731 106.753431,80.4907193 C105.977886,81.2895165 105.259057,82.1454264 104.627642,83.0887008 C104.22361,83.6926885 107.07187,82.097702 107.82452,81.2256231 C110.660813,78.3311244 114.330667,76.1817002 117.233041,73.3930818 C117.117528,73.3010232 117.002797,73.2079215 116.883382,73.1197748" id="Fill-168" fill="#1D3650"></path>
                    <path d="M119.13548,98.2533551 C118.848,97.6684051 118.571447,97.1277891 118.359675,96.7590333 C119.538472,94.3850697 120.398309,92.1143785 120.963902,89.9717349 C119.292878,92.7418372 116.844488,95.106934 114.421593,97.1580407 C110.430439,100.536303 106.087024,103.628219 103.273106,108.140915 C102.883902,108.764723 112.440455,101.824341 117.27922,99.2659994 C117.889821,98.9431424 118.513431,98.607246 119.13548,98.2533551" id="Fill-170" fill="#1D3650"></path>
                    <path d="M58.4017171,63.9184295 C58.4113431,63.9085195 58.4212293,63.8991311 58.4305951,63.8892211 C58.4295545,63.8881779 58.4285138,63.8873956 58.4274732,63.8866132 C58.4618146,63.8428006 58.4982374,63.8015959 58.5320585,63.7575226 C58.9850016,63.1691822 50.352026,68.1666847 46.3624325,70.1747612 C46.2245463,70.8405559 46.0965463,71.5931933 45.9763512,72.4626644 C44.8750829,73.8912673 43.7033106,75.404366 42.6150504,77.0202155 C43.641652,75.9971397 44.7351154,75.0361317 45.891278,74.145276 C50.1725138,70.8452501 55.0104976,68.2326644 58.4017171,63.9184295" id="Fill-172" fill="#1D3650"></path>
                    <path d="M56.660735,59.8100094 C52.4229463,56.2228546 52.1947837,50.2932917 50.4982634,45.2548454 C50.7233041,48.0601543 51.2353041,51.3588762 52.1128325,55.3815488 C52.3589463,56.0110938 52.624052,57.0200871 52.4593691,56.9246382 C52.5150439,57.1666506 52.5720195,57.4104884 52.6302959,57.6577165 C52.5223285,57.8874718 52.4164423,58.1088818 52.3118569,58.3248152 C53.5627187,59.0977942 57.222426,60.285428 56.660735,59.8100094" id="Fill-174" fill="#1D3650"></path>
                    <path d="M109.14841,23.1153592 C110.698459,30.9166058 113.636475,26.9294005 111.88558,32.242197 C110.134686,37.5549936 107.598361,46.250747 110.275694,52.7078863 C113.657288,50.8317692 116.790946,61.4237205 111.701646,66.7208697 C106.612085,72.0180189 96.6900033,76.302263 94.9581008,96.7588247 C94.2395317,71.5720694 105.934881,65.5209788 107.752898,63.1198931 C109.571174,60.7188074 109.124215,53.0531711 107.163629,53.7080127 L105.625808,54.504202 C105.625808,54.504202 102.799402,41.5521089 107.752898,31.4003697 C108.162133,29.2217371 106.064702,29.1948758 105.493125,25.2535694 C104.921288,21.312263 94.180735,11.2165935 94.180735,11.2165935 C94.180735,11.2165935 107.598361,15.3141126 109.14841,23.1153592" id="Fill-176" fill="#00B1B2"></path>
                    <path d="M94.3542114,34.2225516 C92.7128455,45.6584166 99.2759675,56.5920017 99.2759675,56.5920017 C99.2759675,56.5920017 98.1970732,57.3910596 96.6954146,59.2447489 C98.0493008,58.1922039 101.428293,56.3964098 101.547187,56.0636428 C101.678049,55.9927082 98.3646179,45.4907292 98.2865691,40.4449807 C98.2230894,36.3498087 99.1854309,29.7453235 102.757463,28.6891274 C103.314992,28.5243087 95.6862439,25.2391478 94.5373659,20.6789887 C93.4022764,16.1735954 97.9379512,5.63484507 97.4948943,6.22709723 C97.4631545,6.26960586 97.4314146,6.31289686 97.3994146,6.35566628 C95.646439,7.44289624 93.9881626,11.3456059 92.7521301,13.3455978 C92.5390569,14.0262575 92.3460163,14.7601182 92.1844553,15.5576114 C91.4567805,21.9383395 91.5686504,25.4076176 93.1715122,27.9218858 C94.2738211,29.650657 94.6747317,31.9901965 94.3542114,34.2225516" id="Fill-188" fill="#1D3650"></path>
                </g>
            </g>
        </g>
    </g>
</svg>